<?xml version="1.0" standalone="no"?>
<!DOCTYPE svg PUBLIC "-//W3C//DTD SVG 1.1//EN" "http://www.w3.org/Graphics/SVG/1.1/DTD/svg11.dtd" >
<svg>
<metadata>
Created by FontForge 20090622 at Tue Dec  5 04:59:20 2017
 By ffonts
Piparivahtiperhonen &#194;&#169;junkohanhero 2015. All Rights Reserved
</metadata>
<defs>
<font id="Piparivahtiperhonen" horiz-adv-x="640" >
  <font-face 
    font-family="Piparivahtiperhonen"
    font-weight="400"
    font-stretch="normal"
    units-per-em="2048"
    panose-1="2 0 5 0 0 0 0 0 0 0"
    ascent="1638"
    descent="-410"
    x-height="1436"
    cap-height="1434"
    bbox="-8 -357 1449 1708"
    underline-thickness="150"
    underline-position="-142"
    unicode-range="U+001D-U+F002"
  />
<missing-glyph horiz-adv-x="1024" 
 />
    <glyph glyph-name=".notdef" horiz-adv-x="1024" 
 />
    <glyph glyph-name=".null" horiz-adv-x="0" 
 />
    <glyph glyph-name=".null" horiz-adv-x="0" 
 />
    <glyph glyph-name="nonmarkingreturn" horiz-adv-x="508" 
 />
    <glyph glyph-name="space" unicode=" " horiz-adv-x="407" 
 />
    <glyph glyph-name="space" unicode="&#xa0;" horiz-adv-x="407" 
 />
    <glyph glyph-name="exclam" unicode="!" horiz-adv-x="398" 
d="M174 1441h33q77 0 77 -60v-6q-6 -61 -6 -75q0 -73 -6 -829q0 -69 -56 -69h-24q-69 0 -69 54q-3 211 -3 287q0 20 -3 60q0 7 3 12q-3 104 -3 162v350q0 30 -3 72q0 42 60 42zM195 214q83 0 83 -33q6 -13 6 -48v-60q0 -63 -29 -63q0 -6 -30 -6h-48q-63 0 -63 63v87
q0 60 54 60h27z" />
    <glyph glyph-name="quotedbl" unicode="&#x22;" horiz-adv-x="737" 
d="M167 1434h101q45 -4 45 -45v-105q0 -37 -69 -284q-17 -18 -38 -18q-24 0 -36 30q12 31 24 185q0 24 -51 39q-21 18 -21 51v102q0 45 45 45zM577 1434q41 0 41 -72v-45q0 -105 -44 -242q0 -79 -63 -93q-30 8 -30 36q21 107 21 152v21q0 26 -60 51q-6 24 -9 108q0 84 48 84
h96z" />
    <glyph glyph-name="numbersign" unicode="#" horiz-adv-x="849" 
d="M377 1434q54 -6 54 -33l-57 -350v-39q0 -42 72 -42h45q72 0 72 48q60 371 72 398q11 11 47 18q51 0 51 -36v-24q-39 -210 -59 -353q0 -46 83 -57q21 -20 21 -54q0 -60 -42 -60h-56q-54 0 -54 -146q0 -39 59 -39q69 0 69 -42v-36q0 -42 -69 -42h-59q-43 0 -51 -108
q-60 -339 -60 -362q-14 -78 -63 -78q-57 0 -57 33q12 37 24 144q9 24 54 323q0 42 -36 48h-111q-53 0 -62 -147q-57 -343 -69 -383q-22 -18 -54 -18q-48 4 -48 33l24 156q51 283 51 308v15q0 32 -66 42q-27 11 -27 45v9q0 57 57 57q75 0 75 57q15 45 15 83q0 48 -63 48
t-63 63q0 57 75 57q78 0 78 24q8 0 27 131q8 24 15 102q11 34 29 162q8 42 42 42zM317 710v-9q0 -39 72 -39q120 0 120 30q8 20 15 113q-5 45 -39 45h-105q-45 0 -54 -75z" />
    <glyph glyph-name="dollar" unicode="$" horiz-adv-x="713" 
d="M346 1607q63 0 63 -54v-42q0 -46 90 -74q49 -43 63 -93q15 -24 36 -171v-92q0 -75 -66 -75h-27q-60 0 -60 54v164q0 81 -96 81q-62 0 -89 -78v-203q15 -83 59 -126q219 -206 219 -239q34 -56 54 -159q6 -47 6 -81v-95q-19 -195 -54 -231q-50 -69 -114 -87
q-21 -16 -21 -47v-51q0 -42 -54 -42q-60 0 -60 69q0 62 -47 83q-69 34 -81 75q-57 57 -57 275v6q0 93 42 93l30 3h18q60 0 60 -57v-161q0 -78 59 -78h63q63 21 63 75v230q0 86 -120 192q-148 130 -152 185q-63 79 -63 275q0 216 87 285q37 36 86 59q11 0 15 60q0 4 -3 9
q0 63 51 63z" />
    <glyph glyph-name="percent" unicode="%" horiz-adv-x="1053" 
d="M231 1464h3q92 -21 92 -51q36 -52 36 -162v-401q0 -178 -66 -209q-27 -24 -74 -24h-3q-47 0 -93 60q-36 65 -36 137v455q19 150 39 150q38 45 102 45zM739 1419q25 0 27 -30l-299 -967q-81 -277 -132 -419q-13 -10 -30 -15q-24 0 -27 30l330 1066q71 236 101 317
q7 11 30 18zM162 1287v-491q0 -95 75 -95q45 0 53 71v533q0 75 -50 75h-27q-51 0 -51 -93zM844 841q56 0 111 -84q24 -46 24 -176v-329q0 -194 -66 -231q-34 -30 -54 -30h-30q-73 0 -102 66q-24 62 -24 174v365q0 182 60 221q16 12 81 24zM775 168q0 -87 42 -87q0 -3 18 -3
q69 0 69 75v527q0 62 -63 71h-3q-63 0 -63 -62v-521z" />
    <glyph glyph-name="ampersand" unicode="&#x26;" horiz-adv-x="719" 
d="M368 1460h21q59 0 75 -18q76 -41 99 -96q20 0 45 -158v-222q0 -53 -36 -144q-57 -57 -57 -80v-3q0 -27 36 -54q39 -35 57 -132v-266q-1 -30 -6 -30q0 -86 -69 -191q-89 -57 -156 -57h-12q-117 0 -191 98q-51 111 -51 216v300q-1 21 -6 21q0 20 -52 10q-33 0 -33 90v18
q0 59 42 59h45l83 -4l100 7l87 10q72 31 72 105v249q0 10 -6 41q-17 57 -75 57h-39q-65 0 -71 -122q0 -36 -72 -36h-3q-72 0 -72 45q12 87 30 143q16 57 69 99q0 20 116 45h21l6 3q0 -3 3 -3zM443 631q-18 27 -111 27h-6q-53 0 -53 -54v-329q0 -21 3 -24q23 -72 89 -72
q61 4 63 15q33 0 33 102v257q0 39 -18 78z" />
    <glyph glyph-name="quotesingle" unicode="'" horiz-adv-x="380" 
d="M213 976h-48q-66 0 -66 63v36q0 110 45 269q14 87 57 87q33 -6 33 -33v-27q-18 -84 -18 -147q0 -28 60 -54q6 -19 6 -27v-125q0 -42 -69 -42z" />
    <glyph glyph-name="parenleft" unicode="(" horiz-adv-x="359" 
d="M299 1600q35 0 35 -57v-21q0 -52 -47 -68q-27 -53 -27 -96v-1296q0 -90 62 -137q12 -25 12 -48v-27q0 -35 -26 -42q-55 7 -99 42q-68 67 -75 126q-9 22 -15 80v1302q17 112 66 182q19 24 114 60z" />
    <glyph glyph-name="parenright" unicode=")" horiz-adv-x="344" 
d="M57 1595h3q84 -17 120 -63q60 -78 60 -260v-1101q0 -247 -63 -284q-68 -78 -120 -78q-30 0 -30 63v6q0 58 48 96q24 21 24 80v1290q0 102 -63 140q-9 32 -9 60q0 51 30 51z" />
    <glyph glyph-name="asterisk" unicode="*" horiz-adv-x="633" 
d="M321 934q-29 1 -58 61q13 54 44 129q6 15 16 23h6q21 -10 54 -139v-6q-1 -42 -62 -68zM491 1069q-27 0 -114 98q-20 9 -29 10q-19 -3 -19 -6l-21 3l-15 1q-17 0 -115 -91q-18 -8 -25 -8q-35 1 -49 91v3q1 43 70 48q62 -7 96 -8q24 5 25 27v9q-7 15 -89 59q-35 36 -34 60
q21 78 64 77h3q49 -1 69 -157q10 -19 14 -19h12q13 0 48 137q21 39 43 38q68 -12 67 -79q-2 -48 -94 -91q-40 -9 -40 -33q-1 -27 23 -27l33 -1q50 5 56 5h15q66 -16 65 -58q-19 -89 -59 -88z" />
    <glyph glyph-name="plus" unicode="+" horiz-adv-x="683" 
d="M332 1028h15q51 0 51 -33v-111q0 -81 30 -81l18 -3h105q34 0 42 -50v-48q0 -54 -45 -54h-102q-27 0 -45 -33q-3 -74 -3 -117v-33q0 -47 -63 -47t-63 80v99q0 51 -53 51h-78q-60 0 -60 45v63q4 44 45 44h108q38 0 38 51v72q0 102 30 102z" />
    <glyph glyph-name="comma" unicode="," horiz-adv-x="426" 
d="M165 199h81q60 0 60 -54q3 -21 3 -60q0 -81 -69 -314q-25 -24 -48 -24q-27 9 -27 33q21 77 21 174q-16 42 -48 42q-21 12 -21 72v50q0 81 48 81z" />
    <glyph glyph-name="hyphen" unicode="-" horiz-adv-x="503" 
d="M366 793q97 0 97 -36q3 -16 3 -30v-21q0 -63 -66 -63h-292q-83 0 -83 63v18q0 69 53 69h288z" />
    <glyph glyph-name="hyphen" unicode="&#xad;" horiz-adv-x="503" 
d="M366 793q97 0 97 -36q3 -16 3 -30v-21q0 -63 -66 -63h-292q-83 0 -83 63v18q0 69 53 69h288z" />
    <glyph glyph-name="period" unicode="." horiz-adv-x="405" 
d="M169 208h72q48 0 48 -51v-101q0 -54 -45 -54h-78q-45 5 -45 45v122q0 39 48 39z" />
    <glyph glyph-name="slash" unicode="/" horiz-adv-x="409" 
d="M325 1438q48 0 48 -27l-156 -949l-74 -440q-13 -30 -54 -30h-12q-39 0 -39 36v12l209 1265q12 130 60 130q5 3 18 3z" />
    <glyph glyph-name="zero" unicode="0" horiz-adv-x="704" 
d="M357 1453q57 0 140 -42q57 -40 87 -168q6 -34 6 -48v-954q-6 -190 -164 -257l-75 -12q-89 0 -168 78q-68 69 -68 230v880q0 106 47 194q0 29 66 66q66 33 129 33zM258 1183v-942q0 -96 93 -96h3q84 8 84 51q9 20 9 48v939q0 93 -81 93h-36q-72 0 -72 -93z" />
    <glyph glyph-name="one" unicode="1" horiz-adv-x="674" 
d="M140 1389l224 40q48 0 48 -51v-1161q0 -40 63 -48h60q42 0 42 -42v-83q0 -48 -63 -48h-347q-66 0 -66 51v62q0 60 39 60h63q68 0 68 63v51q0 44 -3 60q3 31 3 69v83q0 43 -3 63q3 26 3 66v75q0 48 -3 72q3 23 3 71v75q0 43 -3 63q3 26 3 66v60q0 143 -18 133
q-20 -4 -35 -4l-81 -20q-36 0 -36 69v54q0 51 39 51z" />
    <glyph glyph-name="two" unicode="2" horiz-adv-x="705" 
d="M330 1450h65q123 -28 123 -48q50 -34 78 -153q9 -69 9 -107v-72q0 -203 -90 -290q-24 -55 -105 -105q-69 -52 -95 -122q-52 -45 -42 -258v-84q0 -38 57 -42h227q48 0 48 -63v-50q0 -60 -57 -60h-359q-60 0 -60 36q-3 0 -3 12v236q-10 229 42 326q0 37 221 243
q57 32 66 116q6 0 6 21v200q-8 90 -69 90h-50q-69 0 -69 -90v-107q0 -96 -30 -96q-16 -3 -27 -3h-15q-75 0 -75 48v144q0 99 72 221q90 57 132 57z" />
    <glyph glyph-name="three" unicode="3" horiz-adv-x="705" 
d="M325 1450h33q85 0 131 -45q102 -77 102 -245v-231q0 -115 -81 -215v-36q81 -85 81 -192v-179q0 -223 -96 -281q0 -23 -95 -48q-14 0 -51 -6q-87 13 -144 48q-24 0 -63 92q-30 83 -30 135v150q0 44 48 44h54q45 0 45 -41v-147q0 -108 81 -108h30q78 27 78 93v302
q-10 78 -162 78q-63 0 -63 48v51q0 78 42 78q150 0 165 23q18 27 18 54v314q0 74 -57 87q-11 3 -33 3h-27q-63 0 -72 -96v-149q0 -51 -69 -51h-27q-51 0 -51 42v167q0 40 42 159q80 93 135 93q0 7 36 9z" />
    <glyph glyph-name="four" unicode="4" horiz-adv-x="669" 
d="M399 1429h114q42 0 42 -54v-796q0 -24 59 -66q6 -19 6 -27v-89q0 -32 -53 -54q-12 -16 -12 -27v-257q0 -63 -48 -63h-27q-75 0 -75 54v224q0 84 -48 84h-266q-48 0 -48 72l3 17v51q84 271 308 916q14 15 45 15zM198 594v-30q0 -30 69 -30h72q66 0 66 39v455q0 60 -24 60
h-6q-23 0 -81 -207q-12 -21 -96 -287z" />
    <glyph glyph-name="five" unicode="5" horiz-adv-x="715" 
d="M188 1429h371q42 0 42 -42v-93q-10 -39 -39 -39h-210q-52 0 -62 -21q-6 -27 -6 -39v-62q-9 -152 -9 -177q0 -19 18 -30h21q7 0 53 30q27 6 39 6h27q40 -5 108 -54q42 -71 60 -158v-506q-21 -156 -42 -156q-81 -113 -183 -113q-3 -3 -21 -3q-77 11 -119 39q-45 21 -69 80
q-45 30 -45 252q0 78 60 78h18q69 0 69 -66q-3 -31 -3 -48v-21q0 -132 45 -132q15 -9 41 -9h18q49 0 78 57q9 29 9 54v428q0 108 -51 108q-3 3 -42 6q-76 0 -89 -33l-15 -69q-12 -15 -69 -15q-66 0 -66 36q9 417 27 694q13 18 36 18z" />
    <glyph glyph-name="six" unicode="6" horiz-adv-x="726" 
d="M362 1453l6 -3h12q103 0 173 -99q51 -51 51 -230v-90q0 -51 -57 -51h-27q-59 0 -59 69v131q0 75 -78 96h-36q-60 0 -78 -96v-338q0 -35 27 -35h6q16 0 102 29h21q86 0 155 -116q24 -79 24 -150v-314q0 -114 -66 -212q-70 -66 -152 -66q0 -4 -24 -6q-29 0 -120 30
q-87 66 -87 116q-30 21 -30 234v730q0 243 63 281q62 87 153 87h18q3 0 3 3zM269 546v-272q0 -101 48 -120q20 -9 33 -9h24q64 0 84 72q3 4 3 21v347q0 67 -63 87h-60q-34 0 -60 -48q-9 -22 -9 -78z" />
    <glyph glyph-name="seven" unicode="7" horiz-adv-x="691" 
d="M139 1429h386q56 0 56 -60v-12q0 -35 -38 -242q-18 -81 -120 -626q-51 -257 -84 -445q-16 -48 -63 -48h-18q-63 0 -63 36q90 489 111 586q108 569 108 586v15q0 36 -57 36h-227q-42 0 -42 57v63q0 54 51 54z" />
    <glyph glyph-name="eight" unicode="8" horiz-adv-x="723" 
d="M336 1450h30q133 0 201 -126q36 -51 36 -260v-42q0 -198 -36 -230q0 -15 -51 -84l-3 -21q0 -7 57 -78q33 -33 33 -221v-42q0 -263 -90 -314q-46 -51 -108 -51q0 -4 -45 -9q-48 0 -149 48q-43 37 -57 92q-11 0 -33 123v272q29 138 60 138q36 42 36 57v6q0 17 -69 93
q-27 75 -27 101v284q31 174 57 174q34 59 120 84q26 6 38 6zM271 863q0 -68 50 -68h72q39 0 60 53q6 16 6 69v255q0 104 -81 104h-39q-51 0 -68 -75v-338zM271 519v-290q0 -67 62 -84h45q78 22 81 105v227q0 110 -30 126q-24 15 -51 15h-21q-83 0 -83 -51q-3 -17 -3 -48z
" />
    <glyph glyph-name="nine" unicode="9" horiz-adv-x="705" 
d="M346 1450h33q49 -2 113 -39q64 -59 81 -129q21 -79 21 -149v-865q0 -109 -69 -227q-33 -38 -125 -60l-51 -9q-126 22 -126 39q-87 70 -87 122q-11 0 -27 153v105q0 50 57 50h48q37 0 45 -56l-3 -18q3 -76 3 -120v-24q0 -48 78 -78h27q68 0 77 66q3 19 3 51v317
q-1 51 -20 51h-3q-16 0 -72 -33l-51 -9q-80 13 -108 45q-66 65 -66 132q-3 0 -15 107v267q0 38 27 173q63 104 153 135q33 3 57 3zM259 1201v-119q0 -64 -3 -105q3 -26 3 -96v-63q0 -43 63 -65h15q101 0 101 51q6 0 6 65v261q0 103 -20 122q-30 24 -48 24h-39q-55 0 -69 -39
q-9 -27 -9 -36z" />
    <glyph glyph-name="colon" unicode=":" horiz-adv-x="398" 
d="M183 956h36q69 0 69 -78v-51q0 -83 -48 -83l-27 -3q-93 0 -93 33q-3 19 -3 39v59q0 81 42 81q12 3 24 3zM159 199h75q54 0 54 -75v-65q0 -66 -48 -66h-81q-42 0 -42 75v74q0 57 42 57z" />
    <glyph glyph-name="semicolon" unicode=";" horiz-adv-x="419" 
d="M183 955h39q69 0 69 -51v-113q0 -48 -72 -48q-25 0 -54 -3q-42 5 -42 33q-2 15 -2 30v83q0 63 32 63q0 6 30 6zM162 198h99q45 0 45 -57v-54q0 -102 -66 -323q-11 -18 -36 -18q-39 9 -39 33q21 110 21 129v45q0 28 -51 48q-14 21 -14 57v89q0 51 41 51z" />
    <glyph glyph-name="semicolon" unicode="&#x37e;" horiz-adv-x="419" 
d="M183 955h39q69 0 69 -51v-113q0 -48 -72 -48q-25 0 -54 -3q-42 5 -42 33q-2 15 -2 30v83q0 63 32 63q0 6 30 6zM162 198h99q45 0 45 -57v-54q0 -102 -66 -323q-11 -18 -36 -18q-39 9 -39 33q21 110 21 129v45q0 28 -51 48q-14 21 -14 57v89q0 51 41 51z" />
    <glyph glyph-name="less" unicode="&#x3c;" horiz-adv-x="691" 
d="M558 1105q21 0 24 -45v-15q0 -69 -33 -87q-5 0 -84 -63q-47 -14 -108 -68q-61 -30 -69 -39q-45 -31 -62 -60v-30q22 -35 110 -75q23 -28 108 -66q40 -42 114 -72q24 -24 24 -59v-36q0 -48 -24 -48q-45 10 -129 78q-22 0 -123 80q-29 0 -110 72q-87 29 -87 72v132
q0 54 99 92q103 87 137 90q80 74 132 90q63 57 81 57z" />
    <glyph glyph-name="equal" unicode="=" horiz-adv-x="676" 
d="M512 959q63 0 63 -54v-12q0 -78 -45 -78h-380q-51 0 -51 60v21q0 63 54 63h359zM521 606q54 0 54 -48v-24q0 -63 -36 -63q-16 -3 -36 -3h-335q-66 0 -66 36q-3 11 -3 27v24q0 51 51 51h371z" />
    <glyph glyph-name="greater" unicode="&#x3e;" horiz-adv-x="683" 
d="M125 1093h15q70 -59 120 -78q80 -70 135 -90q63 -58 128 -84q60 -44 60 -95v-84q0 -70 -66 -96q-28 -7 -113 -75q-27 0 -120 -77q-24 0 -117 -75q-31 -9 -33 -9h-6q-21 0 -21 24v78q0 35 84 68q39 41 108 66q66 58 125 81q39 32 39 57v3q0 26 -89 90q-42 10 -111 71
q-68 24 -150 108q-6 24 -6 30v57q0 18 18 30z" />
    <glyph glyph-name="question" unicode="?" horiz-adv-x="669" 
d="M331 1462h6q105 0 161 -78q75 -47 75 -272v-48q0 -107 -33 -198q0 -8 -69 -131q-83 -79 -101 -141q-38 -47 -48 -129q0 -54 -51 -54q-28 3 -54 3h-6q-30 0 -30 36q0 115 51 207q0 21 84 113q42 75 84 129q27 82 27 120v182q0 60 -72 87h-36q-53 0 -72 -48q-9 -32 -9 -48
v-104q0 -51 -60 -51h-21q-63 0 -63 45v98q0 175 126 255q24 19 111 27zM268 214q69 0 69 -48v-123q0 -39 -54 -39h-57q-63 0 -63 54v93q0 63 69 63h36z" />
    <glyph glyph-name="at" unicode="@" horiz-adv-x="770" 
d="M429 1290q123 -18 171 -51q113 -98 113 -159q27 -52 27 -173v-81q-4 -45 -36 -45q-30 0 -30 93q0 212 -56 245q-57 84 -180 84h-30q-123 0 -185 -72q-21 0 -54 -161v-497q16 -174 84 -174q26 15 26 36q-3 88 -3 111q0 169 24 195q49 86 168 86q27 19 27 39v195
q0 37 -42 56h-33q-52 0 -69 -92q-16 -19 -39 -21q-31 0 -33 36q0 182 159 182q105 -32 105 -69q39 -61 39 -134v-27q0 -151 3 -216q-3 -80 -3 -224v-42q0 -171 -63 -209q-18 -30 -111 -48q-16 -3 -27 -3q-68 15 -149 48q-90 77 -90 122q-29 23 -45 201v371q0 148 63 257
q0 36 81 90q104 48 185 51h3zM351 566v-243q0 -46 66 -59q61 0 69 80v234q0 45 -54 45h-9q-59 0 -72 -57z" />
    <glyph glyph-name="A" unicode="A" horiz-adv-x="637" 
d="M259 1434h108q72 0 72 -111l95 -724q30 -230 45 -386l21 -174v-6q0 -32 -60 -32h-12q-71 0 -71 47q-23 249 -42 249q-18 12 -33 12h-69q-19 0 -39 3q-69 0 -69 -54q-27 -211 -27 -228q-9 -29 -63 -29h-23q-57 0 -57 35q39 307 48 425q32 221 38 288l36 269q33 240 33 248
q9 23 18 141q13 27 51 27zM235 533v-6q0 -42 54 -42h54q57 0 57 57q-9 128 -21 198l-27 242q0 111 -36 111q-25 0 -36 -147z" />
    <glyph glyph-name="B" unicode="B" horiz-adv-x="701" 
d="M349 1434q151 0 201 -81q57 -55 57 -266v-123q0 -149 -51 -180q-36 -40 -36 -44v-27q60 -76 60 -90q27 -50 27 -153v-122q0 -199 -48 -243q-61 -104 -207 -104h-167q-57 0 -57 59v1317q0 57 45 57h176zM278 1212v-368q0 -32 41 -39q123 0 123 33q24 20 24 120v162
q0 114 -36 122q0 8 -39 15h-69q-44 -11 -44 -45zM278 587v-368q5 -42 38 -42h69q81 0 81 123v185q0 105 -30 120q-31 27 -69 27h-33q-56 0 -56 -45z" />
    <glyph glyph-name="C" unicode="C" horiz-adv-x="680" 
d="M354 1455q99 0 146 -63q66 -57 66 -105q19 0 21 -197v-39q0 -63 -45 -63h-51q-48 0 -48 72v119q0 105 -95 105h-3q-66 0 -84 -51q-9 -31 -9 -39v-951q0 -64 54 -87h84q50 21 50 81q0 206 21 206q27 9 45 9h18q63 0 63 -53v-60q0 -187 -39 -240q0 -69 -149 -116
q-36 -3 -54 -3q-86 0 -162 56q-31 27 -60 123q-15 52 -15 117v853q0 207 90 266q39 60 156 60z" />
    <glyph glyph-name="D" unicode="D" horiz-adv-x="701" 
d="M336 1434q134 0 171 -45q58 -46 71 -108q21 -45 21 -200v-715q0 -217 -50 -267q-71 -98 -195 -98h-162q-71 0 -71 47q0 18 -3 18l3 30v171q0 10 -3 15l3 18v170q0 13 -3 24q3 12 3 24v165q0 12 -3 24q3 11 3 24v164q0 13 -3 24q3 12 3 24v171q0 10 -3 15l3 17v171
q0 11 -3 27q0 90 33 90h185zM270 1212v-996q0 -39 42 -39h63q84 0 84 123v829q0 88 -27 107q-27 21 -42 21h-75q-45 -9 -45 -45z" />
    <glyph glyph-name="E" unicode="E" horiz-adv-x="637" 
d="M175 1434h320q54 0 54 -57v-57q0 -63 -54 -63h-191q-42 -9 -42 -42v-374q0 -31 39 -36h188q63 0 63 -47v-87q0 -39 -39 -39h-186q-58 0 -65 -51v-368q0 -30 45 -36h176q66 0 66 -63v-39q0 -71 -42 -71q-15 -3 -39 -3h-290q-57 0 -57 38q-3 3 -3 24v1287q0 81 39 81
q0 3 18 3z" />
    <glyph glyph-name="F" unicode="F" horiz-adv-x="601" 
d="M501 1434q47 0 47 -51q0 -23 3 -42q0 -84 -59 -84h-183q-45 0 -45 -66q0 -28 -3 -50q3 -56 3 -120q0 -51 -3 -117q0 -99 45 -99h189q56 0 56 -44v-81q0 -48 -44 -48h-192q-51 0 -51 -69q0 -35 -3 -57q3 -62 3 -116q0 -69 -3 -105q3 -41 3 -105q0 -35 -3 -147
q0 -32 -72 -32h-6q-65 0 -65 59v24q0 24 3 63q-3 6 -3 9q3 12 3 24l-3 18q0 3 3 9q-3 39 -3 63v27q0 24 3 63q-3 5 -3 9q3 11 3 24l-3 17q0 4 3 9q-3 39 -3 63v24q0 24 3 63q-3 6 -3 9q3 16 3 24l-3 18q0 7 3 12q-3 39 -3 63v24q0 23 3 62q-3 6 -3 9q3 17 3 24l-3 18
q0 7 3 12q-3 39 -3 63v24q0 24 3 63q-3 6 -3 9q3 11 3 24l-3 18q0 3 3 9q-3 39 -3 63v26q0 24 3 63q-3 6 -3 9q3 12 3 24l-3 18q0 3 3 9q-3 39 -3 63v30q0 75 32 75h351z" />
    <glyph glyph-name="G" unicode="G" horiz-adv-x="691" 
d="M359 1455q100 0 168 -81q57 -77 57 -165q6 -37 6 -63v-107q-5 -51 -45 -51h-57q-45 0 -45 57q0 6 3 6q-3 55 -3 81v71q0 78 -81 78h-32q-72 -18 -72 -93v-909q0 -111 27 -111q0 -7 27 -12h68q63 24 63 66v60q0 27 3 78l-3 6l3 18v9q0 10 -3 14q0 4 3 9q-3 51 -3 78v9
q0 28 3 57q0 75 -66 75q-21 17 -21 42v87q0 41 54 41h114q63 0 63 -50v-473q0 -92 -39 -195q-71 -107 -197 -107q-79 0 -120 30q-50 16 -69 53q-34 62 -54 162q-3 53 -3 90v793q0 231 93 293q42 54 158 54z" />
    <glyph glyph-name="H" unicode="H" horiz-adv-x="708" 
d="M204 1434q57 0 57 -66v-512q0 -51 42 -51h114q36 8 36 36v521q0 72 53 72h33q57 0 57 -48v-1347q0 -38 -51 -38h-30q-62 0 -62 53v527q0 43 -57 51h-75q-60 -9 -60 -57v-518q0 -56 -45 -56h-45q-48 0 -48 32l-5 24q3 51 3 78v84q0 42 -3 63q3 26 3 66v83q0 43 -3 63
q3 26 3 66v75q0 48 -3 72q3 23 3 71v75q0 43 -3 63q3 26 3 66v84q0 42 -3 63q3 25 3 65v84q0 30 -3 75q0 81 53 81h33z" />
    <glyph glyph-name="I" unicode="I" horiz-adv-x="387" 
d="M221 1434q50 0 50 -45v-1344q0 -44 -62 -44h-21q-60 0 -60 56v1320q0 57 36 57h57z" />
    <glyph glyph-name="J" unicode="J" horiz-adv-x="633" 
d="M415 1434h30q54 -5 54 -42q3 -147 3 -168q0 -37 -3 -92q3 -58 3 -111q0 -51 -3 -102q3 -55 3 -108q0 -45 -3 -104q3 -58 3 -111q0 -48 -3 -99q3 -55 3 -98q0 -258 -42 -309q-81 -110 -180 -110h-20q-107 0 -159 71q-78 57 -78 240v3q0 37 48 42h48q45 0 45 -45v-36
q12 -96 48 -96q30 -6 54 -6q54 0 77 51q15 29 15 120v1062q0 48 57 48z" />
    <glyph glyph-name="K" unicode="K" horiz-adv-x="658" 
d="M211 1434q51 0 51 -54v-545q0 -16 15 -24h6q29 0 42 72q27 77 84 290q8 18 72 234q18 27 56 27h42q42 0 42 -24q0 -10 -158 -503q-54 -153 -54 -182v-21q18 -66 143 -455q69 -214 69 -221q0 -26 -57 -27h-24q-50 0 -62 29q-84 302 -171 578q-10 12 -21 12q-24 -3 -24 -27
v-527q0 -65 -63 -65h-15q-66 0 -66 62v1308q0 63 39 63h54z" />
    <glyph glyph-name="L" unicode="L" horiz-adv-x="580" 
d="M181 1434h30q53 0 53 -54v-1146q0 -57 48 -57h177q63 0 63 -63q0 -107 -24 -107q-24 -6 -51 -6h-299q-54 0 -54 38v1347q0 48 57 48z" />
    <glyph glyph-name="M" unicode="M" horiz-adv-x="987" 
d="M209 1434q72 0 72 -48q9 -34 171 -814q21 -123 41 -123h12q25 0 51 180q84 379 120 571q33 168 48 210q21 24 57 24h30q56 0 56 -48v-1347q0 -38 -59 -38h-6q-72 0 -72 47v653q-4 83 -24 83q-39 -71 -39 -137q-57 -278 -93 -491q-22 -149 -54 -149q-21 -3 -21 -6
q-50 0 -59 98q-93 497 -129 662q-18 26 -27 26q-18 -21 -18 -74q3 -45 3 -75v-6q0 -84 -3 -138q3 -46 3 -107q0 -52 -3 -102q3 -56 3 -108q0 -167 -15 -167q-22 -9 -57 -9h-9q-60 0 -60 44v1314q0 75 54 75h27z" />
    <glyph glyph-name="N" unicode="N" horiz-adv-x="715" 
d="M214 1434q63 -3 63 -63q12 -35 39 -201q14 -46 50 -248l60 -290q15 -18 18 -18h3q27 0 27 39q0 12 -3 24q3 82 3 134v42q0 43 -3 63q3 26 3 66v84q0 42 -3 63q3 25 3 65v84q0 30 -3 75q0 81 51 81h27q51 0 51 -45v-1344q0 -44 -72 -44h-15q-66 0 -66 59q-12 39 -84 419
q-33 143 -44 231q-11 15 -21 74l-12 9h-9q-18 -9 -18 -32v-698q0 -62 -66 -62h-9q-60 0 -60 29q-5 0 -6 30v1311q0 63 45 63h51z" />
    <glyph glyph-name="O" unicode="O" horiz-adv-x="705" 
d="M357 1454q66 0 159 -54q36 -33 75 -162q6 -43 6 -117v-849q0 -81 -36 -180q-81 -116 -192 -116h-9q-3 0 -3 -3q-6 3 -9 3q-142 0 -212 158q-21 91 -21 204v760q0 226 78 287q57 69 164 69zM262 1190v-927q0 -108 47 -108q0 -6 54 -6q63 0 84 72v987q0 72 -96 72
q-89 -12 -89 -90z" />
    <glyph glyph-name="P" unicode="P" 
d="M175 1433h162q122 0 167 -66q66 -59 66 -132q15 -44 15 -69v-257q-26 -153 -45 -153q-90 -119 -173 -119q-99 0 -99 -45v-533q0 -59 -54 -59h-42q-54 0 -54 47v1326q0 60 57 60zM268 1223v-380q16 -36 51 -36h39q77 0 77 84v293q-19 75 -89 75h-36q-33 0 -42 -36z" />
    <glyph glyph-name="Q" unicode="Q" horiz-adv-x="708" 
d="M360 1454q123 0 183 -90q27 0 59 -168v-948q-22 -150 -38 -150q0 -37 -81 -107l-3 -15v-18q36 -72 116 -72h3q12 0 69 24q51 -23 51 -54q0 -41 -111 -69h-24q-58 0 -122 72q-92 96 -114 96h-39q-17 0 -84 -45q-37 0 -59 54q0 11 21 42q6 9 6 17v6q0 12 -33 63
q-42 101 -42 267v697q0 141 30 254q48 79 65 93q74 51 147 51zM267 1151v-900q0 -75 54 -96l18 -3h42q72 0 72 81q3 40 3 120v24q0 31 -3 50q3 22 3 54v108q0 32 -3 51q3 21 3 54v110q0 31 -3 48q3 17 3 48v111q0 32 -3 54q3 19 3 51v26q0 108 -39 120q-22 18 -42 18
q-99 0 -99 -42q-9 0 -9 -87z" />
    <glyph glyph-name="R" unicode="R" horiz-adv-x="666" 
d="M169 1433h147q166 0 215 -84q48 -104 48 -153q6 0 6 -80v-138q0 -166 -57 -219q0 -7 -78 -74l-6 -21v-3q0 -33 111 -401l69 -231q0 -26 -51 -29h-24q-81 0 -81 62q-72 276 -72 285q-30 131 -71 266q-15 15 -18 15h-24q-15 -5 -15 -39v-491q0 -95 -36 -95q-20 -3 -39 -3
h-21q-54 0 -54 41v1350q0 42 51 42zM268 1202v-344q0 -51 36 -51h53q53 0 78 72v302q0 78 -96 78h-23q-48 0 -48 -57z" />
    <glyph glyph-name="S" unicode="S" horiz-adv-x="680" 
d="M345 1454h9q143 0 212 -153q21 -51 21 -144v-119q0 -51 -54 -51h-27q-59 0 -59 45v146q0 84 -63 102q-37 3 -39 3q-93 0 -93 -117v-131q0 -88 75 -159q0 -9 155 -152q26 -35 51 -90q19 0 51 -129q3 -36 3 -81v-140q0 -204 -108 -276q-88 -32 -131 -32q-63 0 -153 50
q-50 46 -78 165q-9 78 -9 144v47q0 69 60 69h24q60 0 60 -45v-128q0 -126 81 -126h21q90 0 90 93q3 0 3 27v173q0 56 -54 144q-231 220 -231 248q-54 111 -54 234v3q0 177 24 224q27 80 123 141q43 15 90 15z" />
    <glyph glyph-name="T" unicode="T" horiz-adv-x="534" 
d="M76 1433h377q51 0 51 -39v-90q0 -45 -54 -45h-63q-48 -6 -48 -48v-1116q0 -89 -30 -89q0 -6 -36 -6h-24q-54 0 -54 44v1149q0 66 -44 66h-75q-51 0 -51 66v51q0 57 51 57z" />
    <glyph glyph-name="U" unicode="U" horiz-adv-x="708" 
d="M208 1433q54 0 54 -66v-1128q14 -84 75 -84q0 -3 21 -3h15q50 0 75 72v1119q0 87 35 87q12 3 24 3h36q54 0 54 -60v-57q0 -27 3 -36q-3 -26 -3 -45v-122q0 -31 3 -48q-3 -17 -3 -48v-117q0 -31 3 -48q-3 -17 -3 -48v-122q0 -25 3 -39q-3 -19 -3 -42v-132q0 -24 3 -39
q-3 -18 -3 -42v-125q0 -86 -42 -177q-85 -107 -179 -107h-24q-95 0 -156 65q-78 68 -78 255v1044q0 90 39 90h51z" />
    <glyph glyph-name="V" unicode="V" horiz-adv-x="641" 
d="M91 1433h36q59 0 59 -69l45 -410q0 -27 21 -183q0 -40 21 -188q0 -44 21 -183q2 -64 21 -68h9q27 0 39 203q8 40 18 174q12 39 39 353q15 74 24 203q16 159 36 159q10 9 36 9h41q45 0 45 -27q-36 -355 -74 -647q-87 -657 -99 -727q0 -31 -48 -32h-102q-75 0 -75 77
q0 20 -41 320l-27 210l-48 362q-5 13 -18 173q-8 26 -21 186q-9 27 -9 48v18q0 36 51 39z" />
    <glyph glyph-name="W" unicode="W" horiz-adv-x="1055" 
d="M78 1433h48q45 0 45 -81q15 -66 24 -219q11 -28 18 -164q14 -54 24 -210q11 -34 21 -191q11 -32 24 -197q13 -27 20 -30h9q26 0 48 284q9 37 24 212l24 201l39 359q11 36 54 36h45q51 0 51 -39q15 -77 48 -404l50 -449q0 -96 33 -194l6 -3h9q25 0 39 212q8 30 24 209
q6 19 42 362q8 32 18 180l21 111q13 15 42 15h42q45 0 45 -36v-6q0 -70 -21 -210q0 -43 -21 -194l-48 -380q-36 -254 -45 -356q-11 -36 -27 -186q-8 -65 -63 -65h-108q-56 0 -56 71q-21 134 -30 252q-12 45 -21 167q-11 49 -21 171q-17 63 -30 63q-33 0 -45 -216
q-14 -60 -48 -374q-6 0 -12 -96q-14 -38 -48 -38h-116q-55 0 -63 77l-75 578q-24 152 -24 179q-36 239 -45 392q-13 34 -18 171q0 36 48 36z" />
    <glyph glyph-name="X" unicode="X" horiz-adv-x="612" 
d="M93 1433h27q66 -8 66 -57q72 -244 90 -314q18 -18 27 -18q36 0 60 125q17 50 59 210q0 48 60 54h39q42 0 42 -27q-54 -207 -138 -500q-45 -147 -45 -179q0 -55 84 -342q90 -308 99 -356v-3q0 -25 -45 -26h-18q-78 0 -78 68q-39 115 -77 270q-11 56 -42 56q-30 0 -69 -173
q-55 -218 -78 -218l-30 -3h-36q-45 0 -45 32q186 655 186 668v18q-23 128 -87 329q-57 200 -96 356q0 30 45 30z" />
    <glyph glyph-name="Y" unicode="Y" horiz-adv-x="612" 
d="M77 1433h39q48 0 62 -42q42 -203 108 -494l12 -9h21q20 0 51 177q9 30 48 227q24 138 51 138q11 3 24 3h44q45 0 45 -33q0 -13 -155 -611q-42 -146 -42 -194v-557q0 -38 -60 -38h-33q-57 0 -57 47v536q0 50 -27 147q-98 367 -173 679q0 24 42 24z" />
    <glyph glyph-name="Z" unicode="Z" horiz-adv-x="569" 
d="M131 1433h290q54 0 54 -57q0 -48 -30 -183q-102 -459 -111 -523q-11 -33 -95 -440v-15q10 -39 39 -39h149q60 0 60 -39v-99q0 -38 -54 -38h-314q-54 0 -54 41v27q0 23 204 964q24 104 36 188v9q0 26 -39 30h-135q-54 0 -54 51v66q0 57 54 57z" />
    <glyph glyph-name="bracketleft" unicode="[" horiz-adv-x="352" 
d="M273 1616q60 0 60 -54v-27q0 -57 -48 -57q-45 0 -45 -38v-1449q0 -40 72 -50q21 -19 21 -57v-9q0 -66 -51 -66h-105q-54 0 -54 51v1681q0 75 63 75h87z" />
    <glyph glyph-name="backslash" unicode="\" horiz-adv-x="441" 
d="M105 1439q60 0 60 -43q12 -31 60 -331q56 -295 86 -491l96 -528v-16q0 -34 -39 -34h-30q-49 0 -57 85q0 15 -233 1320q0 38 57 38z" />
    <glyph glyph-name="bracketright" unicode="]" horiz-adv-x="348" 
d="M176 1616q60 0 60 -45v-1708q0 -54 -66 -54h-83q-63 0 -63 54v27q0 60 54 60q48 0 48 59v69q0 48 -3 69q3 30 3 75v75q0 42 -3 62q3 26 3 66v84q0 43 -3 63q3 26 3 66v84q0 42 -3 62q3 26 3 66v75q0 48 -3 72q3 23 3 72v74q0 43 -3 63q3 26 3 66v66q0 132 -18 132
q-56 11 -72 20q-12 19 -12 51v9q0 66 60 66h92z" />
    <glyph glyph-name="asciicircum" unicode="^" horiz-adv-x="715" 
d="M330 1431h56q53 0 72 -93q84 -206 165 -455q0 -24 -51 -24q-63 0 -84 102l-96 254l-18 15h-14q-26 0 -48 -80q-84 -229 -105 -273q-13 -18 -60 -18q-35 0 -42 27q90 264 195 530q17 15 30 15z" />
    <glyph glyph-name="underscore" unicode="_" horiz-adv-x="612" 
d="M61 -94h490q60 0 60 -66v-3q0 -60 -57 -60h-493q-69 0 -69 51v30q0 48 69 48z" />
    <glyph glyph-name="grave" unicode="`" horiz-adv-x="448" 
d="M178 1432q50 -29 70 -88q56 -87 56 -117q-2 -12 -23 -23q-39 6 -154 158q0 8 -9 33q9 37 60 37z" />
    <glyph glyph-name="a" unicode="a" horiz-adv-x="641" 
d="M265 1434h119q54 0 54 -105q39 -275 54 -410q54 -364 96 -769q6 -74 15 -116q0 -33 -57 -33h-21q-69 0 -69 56q-22 243 -39 243q-14 9 -39 9h-116q-57 0 -57 -81q-18 -86 -24 -188q-14 -39 -48 -39h-33q-63 0 -63 39q15 88 21 197q15 95 42 353q12 59 90 667q8 33 18 141
q21 36 57 36zM238 533q0 -48 65 -48h42q57 0 57 39q0 17 -60 551q-9 18 -15 18h-15q-21 0 -29 -153q-9 -40 -24 -200q-6 -31 -21 -207z" />
    <glyph glyph-name="b" unicode="b" horiz-adv-x="701" 
d="M175 1434h210q79 0 128 -48q55 -43 78 -111q18 -65 18 -158v-132q0 -184 -75 -239q-12 -13 -12 -24v-18q0 -16 63 -81q24 -45 24 -195v-56q0 -244 -63 -294q-45 -77 -236 -77h-120q-60 0 -60 45v1331q0 57 45 57zM280 1221v-374q4 -45 45 -45h30q79 0 108 69q6 24 6 51
v231q0 80 -54 101q-56 6 -81 6q-54 -4 -54 -39zM280 590v-377q17 -36 48 -36h60q63 0 81 87v251q0 111 -84 111h-69q-36 -7 -36 -36z" />
    <glyph glyph-name="c" unicode="c" horiz-adv-x="680" 
d="M346 1455h27q38 0 126 -42q90 -80 90 -305v-63q0 -60 -54 -60h-30q-57 0 -57 39q-3 11 -3 33v102q0 122 -75 122h-39q-78 0 -78 -108v-927q0 -80 84 -96h15q93 0 93 102v123q0 71 42 71h57q45 0 45 -56v-66q0 -206 -69 -264q-65 -80 -159 -80q0 -3 -15 -3
q-111 15 -111 33q-77 48 -104 131q-21 49 -21 144v877q0 145 81 245q84 48 155 48z" />
    <glyph glyph-name="d" unicode="d" horiz-adv-x="701" 
d="M165 1434h218q79 0 153 -72q60 -85 60 -168q4 -62 6 -62l-3 -21v-141q0 -31 3 -48q-3 -17 -3 -48v-116q0 -31 3 -48q-3 -17 -3 -48v-123q0 -24 3 -39q-3 -18 -3 -42v-191q0 -80 -45 -168q-62 -98 -215 -98h-156q-63 0 -63 45v1340q0 48 45 48zM270 1206v-969
q0 -60 54 -60h56q71 0 78 105v54l-3 18q3 5 3 15v9q0 10 -3 15l3 18v9q0 11 -3 11l3 21v93l-3 18q3 5 3 15v9q0 10 -3 15l3 18v9q0 12 -3 12l3 21v96l-3 18q3 5 3 15v8q0 10 -3 15l3 18v9q0 12 -3 12l3 21v96l-3 18q3 5 3 15v9q0 10 -3 15l3 18v9q0 12 -3 12l3 21v12
q0 116 -27 143q-29 18 -101 18q-60 0 -60 -54z" />
    <glyph glyph-name="e" unicode="e" horiz-adv-x="641" 
d="M155 1434h347q45 0 45 -51v-66q0 -57 -56 -57l-18 -3q-45 3 -75 3h-75q-63 0 -63 -48v-350q0 -60 66 -60h173q48 0 48 -41q0 -18 3 -54q0 -75 -33 -75q0 -6 -35 -6h-177q-45 0 -45 -45v-350q0 -54 54 -54h188q45 0 45 -42v-81q0 -53 -65 -53h-288q-74 0 -74 53v1329
q0 51 35 51z" />
    <glyph glyph-name="f" unicode="f" horiz-adv-x="601" 
d="M165 1434h338q48 0 48 -51v-66q0 -57 -45 -57h-45q-37 0 -69 -3q-16 3 -57 3q-65 0 -65 -51v-338q0 -69 42 -69h185q54 0 54 -47v-84q0 -45 -54 -45h-191q-36 0 -36 -66v-500q0 -59 -66 -59h-27q-57 0 -57 56v1326q0 51 45 51z" />
    <glyph glyph-name="g" unicode="g" horiz-adv-x="694" 
d="M334 1455h39q44 0 123 -42q61 -58 71 -111q10 0 24 -146v-126q0 -45 -62 -45h-3q-78 0 -78 42v27q0 10 -3 15l3 18v24q0 140 -24 140q0 19 -54 30h-33q-78 0 -78 -75v-978q0 -43 69 -75q12 -3 24 -3q93 0 93 87q3 36 3 105l-3 12q3 5 3 15v9q0 10 -3 15l3 18v9
q0 11 -3 11l3 21v51q0 117 -27 117q-63 8 -63 57v51q0 74 45 74h135q53 0 53 -53v-464q-15 -177 -36 -177q-38 -95 -83 -95q-30 -24 -120 -36q-126 17 -126 36q-101 83 -101 167q-15 39 -15 120v853q17 170 36 170q34 82 77 96q56 36 111 36z" />
    <glyph glyph-name="h" unicode="h" horiz-adv-x="708" 
d="M162 1434h63q39 0 39 -54v-536q17 -42 56 -42h75q55 0 60 63v515q0 54 42 54h57q42 0 42 -51v-1317q0 -65 -57 -65h-15q-69 0 -69 56v518q0 51 -48 51h-101q-42 -5 -42 -33v-530q0 -62 -69 -62q-75 0 -75 48v1343q0 42 42 42z" />
    <glyph glyph-name="i" unicode="i" horiz-adv-x="387" 
d="M214 1436q65 0 65 -51v-1320q0 -65 -53 -65h-33q-63 0 -63 59v1317q0 60 57 60h27z" />
    <glyph glyph-name="j" unicode="j" horiz-adv-x="633" 
d="M418 1436h27q57 0 57 -57v-1065q0 -262 -135 -314q-69 -21 -107 -21q-107 0 -186 86q-51 102 -51 225q0 45 63 45q29 0 39 3q42 0 42 -72q0 -80 39 -102q19 -12 30 -12h54q68 17 68 105v1122q0 57 60 57z" />
    <glyph glyph-name="k" unicode="k" horiz-adv-x="666" 
d="M179 1436h18q69 0 69 -42v-503q2 -75 18 -75h12q20 0 102 306q78 267 90 290q15 24 68 24h15q54 0 54 -30q-173 -528 -212 -667v-24q0 -33 48 -171q95 -311 164 -517q0 -27 -51 -27h-33q-65 0 -71 77q-15 41 -150 500q-13 33 -30 33h-6q-18 0 -18 -120v-446
q0 -44 -60 -44h-39q-47 3 -47 44v1347q0 45 59 45z" />
    <glyph glyph-name="l" unicode="l" horiz-adv-x="576" 
d="M204 1436q57 0 57 -39v-1158q0 -60 41 -60h147q99 0 99 -36v-87q0 -56 -54 -56h-320q-54 0 -54 56v96v1194v36q0 54 51 54h33z" />
    <glyph glyph-name="m" unicode="m" horiz-adv-x="987" 
d="M187 1436h33q66 0 66 -72l171 -808q13 -99 44 -99h3q30 0 39 99q93 429 171 826q13 54 54 54h48q56 0 56 -45v-1347q0 -44 -62 -44h-18q-57 0 -57 44v611q0 128 -15 128h-6q-27 0 -39 -95l-81 -422q-41 -251 -54 -251q-10 -9 -30 -15q-65 0 -65 89l-96 482
q-32 209 -51 209h-15q-15 -7 -15 -23v-692q0 -65 -66 -65h-9q-63 0 -63 50v1344q0 42 57 42z" />
    <glyph glyph-name="n" unicode="n" horiz-adv-x="715" 
d="M222 1436q50 0 60 -72l27 -147q18 -72 53 -272q51 -254 66 -311q16 -24 21 -24h3q21 8 21 69v718q0 39 54 39h12q66 0 66 -51v-1320q0 -65 -63 -65h-30q-63 0 -63 53q-81 387 -128 650q-16 74 -39 74h-3q-18 0 -18 -104v-620q0 -53 -60 -53h-15q-66 0 -66 62v1314
q0 60 57 60h45z" />
    <glyph glyph-name="o" unicode="o" horiz-adv-x="701" 
d="M359 1457q104 0 167 -90q63 -44 63 -236v-853q0 -191 -105 -260q0 -18 -119 -39h-15q-64 0 -153 48q-45 45 -45 68q-42 89 -42 195v891q18 137 54 183q73 93 192 93h3zM257 1140v-853q4 -117 30 -117q0 -10 42 -18h45q75 21 75 99v930q-14 93 -54 93q0 5 -57 6
q-78 -16 -78 -78q-3 -20 -3 -62z" />
    <glyph glyph-name="p" unicode="p" horiz-adv-x="646" 
d="M186 1436h134q172 0 225 -111q33 -81 33 -138q3 -50 3 -128v-57q0 -227 -60 -266q-75 -102 -183 -102q-78 0 -78 -60v-533q0 -41 -44 -41h-48q-48 3 -48 44v1341q0 51 66 51zM260 1208v-347q0 -49 36 -57h42q93 0 93 69q9 22 9 45v228q0 94 -57 110q-9 0 -57 3
q-66 0 -66 -51z" />
    <glyph glyph-name="q" unicode="q" horiz-adv-x="705" 
d="M369 1457q47 0 137 -42q93 -78 93 -267v-891q0 -119 -75 -227q-46 -23 -48 -33v-21q0 -33 78 -81q10 -6 18 -6h30q8 0 60 18q51 -34 51 -60q0 -28 -108 -57h-21q-34 0 -123 54q-7 0 -101 102q-28 12 -51 12q-9 0 -81 -42q-29 0 -60 51v3q18 41 18 51v20q0 12 -42 84
q-24 87 -24 132v889q0 131 51 212q0 33 69 69q68 30 123 30h6zM267 1187v-9q0 -80 -3 -101q3 -51 3 -114q0 -68 -3 -105q3 -36 3 -107q0 -69 -3 -105q3 -36 3 -108q0 -67 -3 -99q3 -39 3 -110v-90q0 -61 72 -87h30q86 0 86 96v966q-17 63 -62 63q-26 3 -42 3q-81 0 -81 -69
q-3 -11 -3 -24z" />
    <glyph glyph-name="r" unicode="r" horiz-adv-x="662" 
d="M305 1436q139 0 168 -39q110 -72 110 -275v-135q0 -204 -68 -239q-63 -60 -63 -81v-30q47 -199 107 -383l63 -219q0 -31 -45 -35h-42q-68 0 -68 74q-21 73 -72 285q-66 255 -66 263l-18 15h-24q-24 -12 -24 -48v-521q0 -48 -24 -62q-27 -6 -39 -6h-15q-65 0 -65 71v1305
q0 60 56 60h129zM263 882q0 -78 51 -78h33q66 0 93 75v33q0 27 3 60l-3 12q0 9 3 9q-3 45 -3 66v113q-15 84 -84 84q-2 0 -39 3q-54 0 -54 -54v-323z" />
    <glyph glyph-name="s" unicode="s" horiz-adv-x="680" 
d="M344 1457q154 0 216 -144q30 -105 30 -173v-96q0 -60 -51 -60h-33q-63 0 -63 42q-3 0 -6 33q3 45 3 84v5q0 112 -42 120q0 10 -42 12q-98 0 -98 -51q-6 -15 -6 -69v-107q0 -91 30 -123q1 -43 200 -227q63 -64 72 -111q36 -91 36 -177v-113q0 -164 -84 -272
q-94 -51 -156 -51h-15q-116 19 -116 36q-90 76 -90 125q-27 68 -27 237q0 68 54 68l27 3q69 0 69 -62v-138q0 -73 71 -96h39q75 0 75 90q3 25 3 87q0 30 -3 158q0 21 -51 99q0 31 -158 165q-72 89 -81 110q-45 108 -45 255q0 99 33 206q79 135 209 135z" />
    <glyph glyph-name="t" unicode="t" horiz-adv-x="534" 
d="M444 1436q57 0 57 -39q3 -3 3 -24q0 -111 -24 -111l-30 -3h-42q-71 0 -71 -33q-3 -15 -3 -30v-1152q0 -44 -63 -44h-15q-66 0 -66 62v1152q0 45 -75 45h-36q-54 0 -54 48v66q0 63 45 63h374z" />
    <glyph glyph-name="u" unicode="u" horiz-adv-x="701" 
d="M167 1436h33q57 0 57 -45v-1101q0 -126 35 -126q0 -9 42 -12h33q78 18 78 96v1143q0 45 57 45h30q57 0 57 -51v-1074q0 -251 -132 -308q-63 -24 -111 -24q-70 0 -152 51q-46 34 -72 146q-12 40 -12 60v1155q0 45 57 45z" />
    <glyph glyph-name="v" unicode="v" horiz-adv-x="648" 
d="M102 1436h15q63 0 63 -51q18 -110 30 -251q8 -49 21 -192q8 -35 18 -176q12 -51 42 -365q15 -63 30 -63q28 0 51 278q15 148 23 197q0 15 54 497q0 126 66 126h24q63 0 63 -45l-48 -419l-57 -434l-57 -431q-11 -101 -27 -101q-24 -6 -30 -6h-113q-63 0 -63 65
q-114 836 -126 970q-39 291 -39 371q8 30 60 30z" />
    <glyph glyph-name="w" unicode="w" horiz-adv-x="1058" 
d="M80 1436h33q60 0 60 -54q15 -109 27 -243q29 -236 41 -368l21 -170q16 -186 30 -227q13 -21 21 -21q30 0 48 248q8 55 21 194q30 235 42 380q11 50 21 186q10 75 48 75h57q56 0 56 -66l27 -254l33 -294l21 -173q16 -213 42 -299l6 -3h12q25 0 39 209l24 201
q54 510 78 664q17 15 54 15h32q48 -2 48 -30q-9 -140 -80 -703q-9 -27 -18 -150q-12 -30 -24 -170q-9 -22 -21 -159q-9 -32 -21 -153q-9 -68 -54 -68h-123q-54 0 -54 86q-18 117 -30 252q-11 27 -20 176q-12 60 -24 171q-18 39 -27 39q-31 -17 -51 -261q-8 -39 -18 -161
q-11 -56 -27 -201q-10 -84 -24 -87q-12 -14 -36 -14h-117q-56 0 -56 89q-33 222 -72 533l-21 140q-48 381 -72 635q0 36 48 36z" />
    <glyph glyph-name="x" unicode="x" horiz-adv-x="608" 
d="M97 1436h21q55 0 72 -54q84 -335 102 -335l5 -3h21q18 0 51 149q57 198 72 234q19 9 39 9h36q48 0 48 -24q-33 -132 -93 -341q-63 -218 -87 -320q0 -13 -3 -33q0 -40 39 -171q141 -494 141 -515q0 -29 -33 -29h-45q-58 0 -81 131l-72 252l-15 11h-18q-23 0 -71 -209
q-11 -28 -51 -165q-16 -20 -42 -20h-51q-36 0 -36 29l168 605q15 47 15 66v15q0 53 -78 308q0 6 -93 332q0 8 -12 51q7 27 51 27z" />
    <glyph glyph-name="y" unicode="y" horiz-adv-x="613" 
d="M86 1436h24q60 0 60 -45q18 -57 57 -258q0 -2 54 -236q11 -9 21 -9q33 0 51 132q24 96 51 233q32 177 56 177q24 6 51 6h21q48 0 48 -30l-150 -581q-53 -180 -53 -236v-548q0 -38 -42 -38h-57q-48 0 -48 53v530q0 45 -69 308q-102 377 -131 512q0 30 56 30z" />
    <glyph glyph-name="z" unicode="z" horiz-adv-x="569" 
d="M132 1436h284q57 0 57 -45v-36q0 -26 -186 -892q-8 -20 -21 -104q-11 -20 -29 -141q0 -33 50 -42h144q54 0 54 -45q3 0 3 -18v-36q0 -74 -45 -74h-335q-42 6 -42 53q0 54 93 464l143 685v33q0 13 -33 21h-143q-51 0 -51 66v45q0 66 57 66z" />
    <glyph glyph-name="braceleft" unicode="{" horiz-adv-x="352" 
d="M287 1597q27 0 30 -48v-27q0 -43 -60 -95q-12 -34 -12 -54v-401q0 -166 -48 -254v-3q0 -18 39 -135q9 -107 9 -123v-422q0 -75 66 -104q6 -21 6 -36v-36q0 -51 -30 -51q-31 4 -108 54q-78 87 -78 257v389q0 98 -36 114t-36 78v12q0 51 54 92q18 22 18 93v380
q0 194 66 248q63 72 120 72z" />
    <glyph glyph-name="bar" unicode="|" horiz-adv-x="401" 
d="M200 1677q57 0 57 -60v-1816q0 -54 -42 -54h-26q-45 0 -45 60v1822q0 48 56 48z" />
    <glyph glyph-name="braceright" unicode="}" horiz-adv-x="362" 
d="M63 1596q28 0 87 -30q92 -73 92 -269v-386q0 -97 63 -138q12 -30 12 -42v-35q0 -46 -57 -93q-18 -71 -18 -93v-425q0 -155 -83 -218q-48 -54 -96 -54h-12q-18 11 -18 36v54q0 28 57 86q12 27 12 39v488q0 47 45 183v15q0 8 -33 107q-12 38 -12 96v440q0 83 -57 125
q-12 17 -12 45v27q0 42 30 42z" />
    <glyph glyph-name="asciitilde" unicode="~" horiz-adv-x="833" 
d="M276 826h21q37 0 120 -47q10 0 93 -54q42 -16 73 -16t96 72q52 -15 52 -57q0 -46 -108 -107q-11 -10 -53 -15l-6 3h-18q-63 1 -135.5 57.5t-110.5 56.5h-18q-41 20 -86 -63q-20 -9 -27 -9q-66 13 -66 48q10 57 117 119q35 12 56 12z" />
    <glyph glyph-name="exclamdown" unicode="&#xa1;" horiz-adv-x="424" 
d="M114 46q3 42 3 72v350q0 58 3 162q-3 5 -3 12q3 40 3 60q0 76 3 287q0 54 69 54h24q56 0 56 -69q6 -756 6 -829q0 -14 6 -75v-6q0 -60 -77 -60h-33q-60 0 -60 42zM168 1231q-54 0 -54 60v87q0 63 63 63h48q30 0 30 -6q29 0 29 -63v-60q0 -35 -6 -48q0 -33 -83 -33h-27z
" />
    <glyph glyph-name="cent" unicode="&#xa2;" horiz-adv-x="708" 
d="M127 152q-17 48 -17 133v877q0 145 81 245q84 48 155 48h27q38 0 126 -42q8 -7 15 -15q7 22 13 38q7 11 30 18q25 0 27 -30l-29 -95q34 -83 34 -221v-63q0 -60 -54 -60h-30q-37 0 -50 17l-170 -545l-32 -108v-103q0 -80 84 -96h15q93 0 93 102v123q0 71 42 71h57
q45 0 45 -56v-66q0 -206 -69 -264q-65 -80 -159 -80q0 -3 -15 -3q-111 15 -111 33q-42 26 -70 63l-12 -35q-13 -10 -30 -15q-24 0 -27 30zM444 1180q-6 101 -74 101h-39q-78 0 -78 -108v-613l173 559q10 32 18 61z" />
    <glyph glyph-name="sterling" unicode="&#xa3;" horiz-adv-x="755" 
 />
    <glyph glyph-name="currency" unicode="&#xa4;" horiz-adv-x="764" 
d="M738 1245l-8 -20v-7q0 -4 2 -4l-2 -8v-12h5v-121l3 -8q-3 0 -3 -4q3 0 3 -4q-5 -1 -5 -8v-4h5v-4h-5l2 -8q-2 0 -2 -3q2 0 2 -4h-2l2 -8q0 -4 -2 -4l2 -8q-2 -7 -2 -16h5v-4l-5 -11l5 -4l-3 -8l1 -8q0 -4 2 -4l-2 -8l2 -19q-2 0 -2 -4q2 0 2 -4q-2 0 -2 -4q2 0 2 -4h-2
l2 -8v-8l-2 -7q2 0 2 -4q-2 0 -2 -4q2 0 2 -4q-2 0 -2 -4q2 0 2 -4q-2 0 -2 -4q2 0 2 -4h-2l2 -8l-2 -7q2 0 2 -4q-2 0 -2 -4h2q-2 -8 -2 -12q2 -8 2 -12q-2 0 -2 -4h2l-2 -8v-191l3 -8q-3 0 -3 -4h3l-3 -8v-157l3 -8h-6v-3q0 -4 3 -4l-3 -8l3 -8q-3 0 -3 -4q3 0 3 -4h-3
l3 -8v-8q0 -3 -3 -3l3 -8l-3 -8q3 -7 3 -16q-3 -7 -3 -12h6l-3 -7v-8q0 -4 3 -4q-3 -8 -3 -12q3 -7 3 -12h-347q0 11 -3 11l3 8v16q0 4 -3 4l3 8v23l-3 20q3 0 3 4h-3l3 8v15l-3 8q3 0 3 4h-3l3 8q0 9 -3 15q3 7 3 16h-3l3 8v4q0 4 -3 4l3 8v31q0 4 -3 4l3 8v4l-3 7q3 0 3 4
q-3 0 -3 4q3 0 3 4h-3l3 8v55q0 4 -3 4l3 8v43l-3 19q3 0 3 4q-3 0 -3 4q3 0 3 4h-3l2 8l-2 8l2 19q-2 0 -2 4q2 0 2 4q-2 0 -2 4h2l-2 8v4h5l-3 8q0 4 3 4l-3 7v4l3 8h-3q0 -4 -2 -4v4q0 4 2 4l-2 8v4l5 12q0 3 -3 3l3 8l-3 20q3 7 3 16h-3l9 23q-3 0 -3 4q3 0 3 4h-3
q0 4 3 4l-3 19v4l3 8q-6 4 -9 4v35q0 4 -3 4l3 8v24q0 8 -3 15q3 7 3 16v16q0 3 -3 3l3 8v4q0 4 -3 4l3 8v31q0 4 -3 4l3 8v4q0 4 -3 4l3 8v4q0 4 -3 4l3 7v24q0 4 -3 4l3 8v4q0 3 -3 3l3 8v86l284 1q2 0 2 -4q3 0 3 4l14 -4h41v-31q0 -4 3 -4zM614 794h-2q-6 0 -11 -4
q-5 4 -11 4h-6q-3 0 -3 -4l-5 4h-8q-3 0 -3 -4l-6 4h-2q-9 0 -9 -4l-16 4l-25 -4l-5 4q-44 -18 -44 -39v-28q13 -39 52 -39l118 1q3 0 3 4l6 -4q38 13 38 51q0 54 -61 54zM672 1237h-179q-12 15 -14 15l3 8v8q-1 8 -6 8h-11q-8 -4 -8 -24q7 -47 44 -47l163 1l5 4q0 -4 3 -4
v31zM672 1178h-160q-38 0 -49 -28l-6 -27q10 -47 58 -47h58q3 0 3 4l5 -4h91v36l-176 -1q-10 0 -17 12q0 24 39 24h154v31zM669 1053l-13 -4h-53q-10 0 -25 4q-16 -4 -16 -8l-14 4h-14v-8h-5v4l3 8l-20 -4h-5q-12 0 -22 4q-11 -4 -22 -4h-3v-28q32 -4 47 -4h3q2 0 2 4l6 -4
h14v8q4 -4 13 -4l-2 -7v-4h5v-8q-29 -4 -88 -28v-31h3q3 0 3 4l5 -4h74q7 0 11 4q5 -4 12 -4h30l5 4q0 -4 3 -4v4l6 -4h33q6 0 11 4q4 -4 11 -4q5 0 5 8v24l-107 -1q0 11 107 40v31zM672 920l-212 -1v-31h50q36 -3 36 -15q-86 -28 -86 -36v-27l121 39v-12q6 0 6 12h3l82 -39
v35q-6 0 -77 35q0 8 6 8h71v32zM672 661q-8 0 -8 4l-14 -4h-5q-3 0 -3 4l-5 -4h-3q-9 0 -14 4l-16 -4q-15 0 -47 4q-15 -4 -25 -4v4l-6 -4h-24q-3 0 -3 4q-5 -4 -8 -4l-20 4q-4 -4 -11 -4v-24q0 -7 6 -7h94q0 -10 2 -32l-8 -7l-94 -1v-23q0 -8 6 -8h201q6 0 6 8v24h-83
q-6 0 -6 7v32h83q5 0 5 8v23zM463 539v-31q8 0 53 -8v-35h-25l-28 -4v-31h9q133 20 201 35v36q0 10 -97 19q-44 12 -113 19zM670 411l-19 -4h-44q-13 0 -28 3q-10 -4 -25 -4q-13 0 -27 4q-10 -4 -25 -4l-17 4q-10 -4 -22 -4h-2v-27q32 -4 46 -4l12 4q4 -4 11 -4q2 0 8 4
q11 -4 47 -4v-4q-114 -29 -124 -43v-27h3q2 0 2 3l6 -3h74q6 0 11 4q5 -4 11 -4h30l6 4q0 -4 3 -4v4l5 -4h22q10 0 25 4q5 -4 11 -4l3 8v23h-108v8l108 31v32zM656 571v-4h-3q-5 0 -5 8v4h3q5 -1 5 -8zM650 747v-11q0 -16 -38 -16h-19q-3 0 -3 4q-6 -4 -8 -4q-3 0 -9 4
l-16 -4h-6q-3 0 -3 4l-5 -4h-30q-33 0 -33 15v12q0 10 30 16q26 -4 49 -4h11q3 0 3 4l6 -4h36q6 0 11 4q24 -7 24 -16zM645 575q-1 -8 -5 -8h-6v12q5 -4 11 -4zM612 481q-50 -1 -50 -8q-2 0 -2 4l-14 -4h-6v24q72 -5 72 -16zM590 888v-11q-1 -8 -6 -8v4q3 7 3 11q-3 0 -3 4
h6zM584 1018q0 -9 -33 -12l-3 8v3zM581 873v-16q-5 0 -5 8v8h5zM556 1061h-5v-8h11q-1 8 -6 8zM535 520v-12q-5 4 -8 4q0 8 5 8h3zM527 508v-12h-6v4q0 8 6 8zM515 1088v-4h-3q-5 0 -5 8l5 4zM515 649v-8h-2q-4 0 -9 12v4h6q0 -8 5 -8zM510 516h-8v8h3q5 -1 5 -8zM504 778
q-1 -7 -5 -7l-3 7h8zM479 1123v-4q-1 -8 -5 -8h-3v4q0 8 5 8h3zM477 751q-3 -7 -3 -16h-5v16h8zM411 543h-3v-4l-5 4h-3v-4q3 0 8 -4zM383 1240l-3 -7v-4q0 -4 3 -4l-3 -8v-59l3 -8q-3 0 -3 -4h3l-3 -7v-8q0 -4 3 -4l-3 -8v-4l3 -8q-3 0 -3 -4h3l-3 -8v-3l3 -8h-3l3 -8
l-3 -8q3 0 3 -4q-3 0 -3 -4q3 0 3 -4q-3 0 -3 -4h3l-3 -7l3 -8l-6 -24q3 0 3 -4q-3 0 -3 -4h6v-4l-3 -7q3 0 3 -4h-6v-4h6l-6 -12v-4h6l-6 -16q6 -1 6 -7q-6 -2 -6 -8q3 0 3 -4h-3q3 -16 6 -16l-3 -19v-102l3 -8q-3 0 -3 -4h3l-3 -8l3 -8h-3l3 -7q-3 -8 -3 -12t3 -4l-3 -20
l1 -113l2 -8q-2 0 -2 -4q2 0 2 -4q-2 0 -2 -4h2l-2 -8v-4q0 -4 2 -4l-2 -7l2 -8q-2 0 -2 -4q2 0 2 -4q-2 0 -2 -4q2 0 2 -4q-2 0 -2 -4h2q-2 -7 -2 -12l2 -7l-2 -8q2 -8 2 -12q-2 0 -2 -4q2 0 2 -4h-2q2 -7 2 -12q-2 -7 -2 -11h2l-2 -8l2 -8h-2l2 -8v-4q0 -4 -2 -4l3 -7
q0 -4 -3 -4l3 -8l-3 -8l3 -8q-3 -7 -3 -12q3 -7 3 -11q-3 0 -3 -4q3 0 3 -4q-3 0 -3 -4q3 0 3 -4q-3 0 -3 -4h3l-3 -8v-31l3 -8q-3 0 -3 -4q3 0 3 -4q-3 0 -3 -4h3q-3 -7 -3 -11q3 -8 3 -12l-350 -1v4l3 8h-3l3 8v4q0 3 -3 3l3 8v39l-3 8q3 0 3 4h-3q3 8 3 12l-3 8q0 4 3 4
q0 3 -3 23q2 35 2 43q-2 0 -2 4h2q-2 12 -5 12q3 8 3 12q0 20 2 78q-2 0 -2 4h2q-2 12 -5 12l3 8v3l-3 8h3l-3 8v4q5 0 5 4l-2 8q2 7 2 12l-2 7q2 8 2 12h-2l2 8l-3 8q3 7 3 12q-5 0 -5 7h5v4l-5 12q5 0 5 4q-3 8 -3 12q3 0 3 4h-5q5 29 5 31q-3 28 -5 35q5 0 5 8l-3 8l3 8
l-3 8l3 19h-3q3 8 3 12q-3 7 -3 12q3 0 3 4q-3 0 -3 3q3 0 3 4h-3q3 8 3 12l-3 8l3 8q-3 12 -6 12l6 15q-3 0 -3 4q3 0 3 4h-3l3 8v82l-3 8q3 0 3 4h-3l3 8v235h344v-39q0 -4 3 -4zM359 621h-11v-3h11v3zM289 903v-4q-10 8 -22 8h-69q-2 0 -2 -4l-6 4h-44q-36 0 -44 -47v-20
q4 -16 28 -35v-4l5 4h11q3 0 3 -4l6 4h16q8 0 8 -4l14 4h50q2 0 2 -4l6 4h27q31 0 42 44q0 38 -31 54zM279 715h-22l-3 -27v-4h33q4 0 11 -16q-5 -18 -11 -19h-33q-45 15 -121 66h-22q-6 -1 -6 -8v-51q0 -4 3 -4l-3 -8v-27h19q6 0 6 8h-3l3 8v43q10 0 102 -55l27 -4h20
q35 0 41 47v16q0 21 -41 35zM320 614h-25v-4h25v4zM157 598l-5 3q0 -3 -3 -3v3q-47 -15 -47 -54v-4q8 -47 42 -47h69q6 0 11 -4q5 4 11 4h49q36 10 36 47v16q0 19 -39 39h-124zM317 1264l-14 4l-11 -4q-6 4 -8 4q-3 0 -3 -4l-14 4q-19 -1 -33 -4q-14 3 -33 3h-3l-16 -4
q-6 4 -9 4l-11 -4q-14 4 -27 4l-6 -4q-5 4 -11 4h-8q-6 -1 -5 -8v-19q0 -8 5 -8h94v-35h-99v-28q0 -8 5 -8l52 1q29 0 89 4v-4l5 4q24 -4 30 -4q14 0 14 8l6 -4h5q6 0 6 8v4l-3 19h-85l-1 35h86l3 20v12zM311 1138h-8q-3 0 -3 -4l-5 4h-3v-8h-3v8h-3v-11h-2v11h-69
q-3 0 -3 -4l-5 4h-42q-3 0 -3 -4l-5 4h-33q-3 0 -3 -4l-5 4h-6q-5 -1 -5 -8v-74q0 -8 5 -8h14q6 0 5 8v43q0 8 6 8q3 0 8 -4q3 0 8 4q24 -4 39 -4h14v-55l14 -4h5l-5 12v4h2q6 0 6 -12h3v55l13 4h6q14 0 47 -4v-43l3 -8q-3 0 -3 -4h22v83q-1 7 -6 7zM317 1025h-17q-2 0 -2 4
l-6 -4l-187 -1v-23q0 -8 5 -8h55v4l-2 8h11v-4h-6q0 -8 28 -12q-4 -19 -47 -19l-41 -16q-3 -7 -3 -16v-8q0 -7 8 -7l88 27q15 -23 50 -23h5q61 0 61 51v47zM295 476h-16q-6 0 -6 -27q-2 0 -2 4q-6 -4 -9 -4q-15 0 -19 4q-23 -4 -39 -4h-93q-6 -2 -6 -8v-16q0 -8 6 -8l206 1
v19q-22 21 -22 39zM312 390v-4l-6 4h-110q-2 -7 -2 -16v-4q0 -7 5 -7h6q2 0 2 4q17 -8 17 -16v-8q0 -6 -11 -16h-69q-7 8 -11 8v16q0 11 30 15v20q-1 8 -5 8h-22q-33 -10 -33 -47v-4q0 -41 47 -51h8q3 0 3 4l5 -4h19q61 0 61 47l-3 24h36l14 -4v-27q0 -9 2 -16v-12
q6 -4 9 -4l14 4l-1 78q0 8 -5 8zM295 986v-8q0 -15 -33 -20q-6 4 -8 4q-3 0 -3 -4q-33 5 -33 20v7q0 8 5 8h66q6 -1 6 -7zM295 860v-11q-3 -12 -17 -12l-146 -1q-4 0 -11 16v4q0 14 31 20q31 -4 58 -4q2 0 8 4l16 -4h22l17 4q22 -6 22 -16zM295 551v-12q-1 -12 -22 -12h-124
q-20 0 -22 12q0 23 20 23q11 4 41 4h96q5 0 11 -15zM286 1177v-3h-8l-3 7v4q7 -8 11 -8zM238 327v-3q-5 0 -11 -8q-6 0 -6 8q8 0 8 7q6 -4 9 -4zM218 312q0 -8 -5 -8h-3q0 8 6 8h2zM188 480h-8v-4q-6 4 -9 4h-2v-4q3 0 8 -4q5 4 11 4v4zM171 950l-6 -4h-2v4q0 8 5 8z
M149 883v-3q-4 0 -8 11v4q4 0 8 -12zM130 519q-14 -4 -16 -4l-3 8q4 0 11 8q4 0 8 -12zM121 864q-2 -7 -2 -16h-3l-6 4q3 8 3 12h8zM116 597h-25v-3q3 0 9 -4v4l5 -4q5 4 11 4v3z" />
    <glyph glyph-name="yen" unicode="&#xa5;" horiz-adv-x="1262" 
d="M103 1435h42q57 -5 57 -42q21 -80 95 -443q12 -60 24 -60h21q21 0 54 180q57 284 78 347q10 18 45 18h42q48 0 48 -30q-9 -47 -81 -317q-69 -256 -87 -350v-21q17 -24 39 -24h66q54 -3 54 -48q0 -31 -39 -36h-96q-54 0 -54 -42v-72q9 -42 45 -42h90q54 0 54 -54
q0 -31 -45 -35h-93q-51 -7 -51 -45v-249q0 -68 -51 -68h-45q-54 0 -54 53v225q0 81 -29 81q-6 3 -12 3h-105q-45 4 -45 44t48 45h102q41 0 41 72v6q0 78 -56 78h-87q-35 0 -48 42q0 42 54 42h54q48 0 48 42v12q-12 63 -114 451q-18 63 -54 213q0 24 45 24z" />
    <glyph glyph-name="brokenbar" unicode="&#xa6;" horiz-adv-x="753" 
 />
    <glyph glyph-name="section" unicode="&#xa7;" horiz-adv-x="761" 
 />
    <glyph glyph-name="dieresis" unicode="&#xa8;" horiz-adv-x="646" 
d="M201 1675q51 0 51 -42v-63q0 -42 -54 -42q-62 0 -62 54v39q0 54 65 54zM514 1615v-33q0 -50 -60 -54q-57 0 -57 36v72q0 39 54 39q63 0 63 -60z" />
    <glyph glyph-name="copyright" unicode="&#xa9;" horiz-adv-x="778" 
d="M371 1328h21q30 0 99 -34q71 -66 71 -249v-52q0 -49 -43 -49h-23q-45 0 -45 32q-2 9 -2 27v83q0 100 -59 100h-31q-61 0 -61 -88v-757q0 -66 66 -79h11q74 0 74 84v100q0 58 33 58h45q35 0 35 -46v-54q0 -168 -54 -215q-51 -66 -125 -66q0 -2 -12 -2q-88 12 -88 27
q-60 39 -81 107q-17 40 -17 117v717q0 118 64 200q66 39 122 39zM386 1457q131 0 211 -90q80 -44 80 -236v-853q0 -191 -133 -260q0 -18 -151 -39h-19q-81 0 -194 48q-57 45 -57 68q-53 89 -53 195v891q23 137 68 183q93 93 244 93h4zM383 1386q-115 0 -186 -84
q-35 -42 -52 -165v-803q0 -95 41 -175q0 -21 43 -62q86 -43 148 -43h15q115 19 115 35q101 62 101 234v769q0 173 -61 213q-61 81 -161 81h-3z" />
    <glyph glyph-name="registered" unicode="&#xae;" horiz-adv-x="803" 
d="M348 853q0 -63 40 -63h26q52 0 73 61v27q0 22 2 49l-2 10q0 7 2 7q-2 37 -2 54v92q-12 69 -66 69q-2 0 -31 2q-42 0 -42 -44v-264zM620 197q18 53 18 126v769q0 173 -61 213q-61 81 -161 81h-3q-115 0 -186 -84q-35 -42 -52 -165v-803q0 -95 41 -175q0 -21 43 -62
q86 -43 148 -43h15q115 19 115 35q29 18 49 44h-24q-54 0 -54 60q-16 60 -57 233q-52 208 -52 215l-14 12h-19q-18 -10 -18 -39v-426q0 -39 -19 -50q-22 -5 -31 -5h-12q-51 0 -51 58v1066q0 49 44 49h102q109 0 132 -32q86 -59 86 -225v-110q0 -167 -53 -195
q-50 -49 -50 -66v-25q37 -162 85 -313zM416 1457q131 0 211 -90q80 -44 80 -236v-853q0 -191 -133 -260q0 -18 -151 -39h-19q-81 0 -194 48q-57 45 -57 68q-53 89 -53 195v891q23 137 68 183q93 93 244 93h4z" />
    <glyph glyph-name="degree" unicode="&#xb0;" horiz-adv-x="674" 
 />
    <glyph glyph-name="plusminus" unicode="&#xb1;" horiz-adv-x="1014" 
 />
    <glyph glyph-name="acute" unicode="&#xb4;" horiz-adv-x="441" 
d="M318 1399q-9 -25 -9 -33q-115 -152 -154 -158q-21 11 -23 23q0 30 56 117q0 59 70 88q51 0 60 -37z" />
    <glyph glyph-name="mu" unicode="&#xb5;" horiz-adv-x="1180" 
 />
    <glyph glyph-name="paragraph" unicode="&#xb6;" horiz-adv-x="1024" 
 />
    <glyph glyph-name="periodcentered" unicode="&#xb7;" horiz-adv-x="508" 
 />
    <glyph glyph-name="periodcentered" unicode="&#x2219;" horiz-adv-x="508" 
 />
    <glyph glyph-name="cedilla" unicode="&#xb8;" horiz-adv-x="688" 
 />
    <glyph glyph-name="onequarter" unicode="&#xbc;" horiz-adv-x="871" 
d="M124 1406l126 23q27 0 27 -29v-651q0 -22 35 -26h34q23 0 23 -24v-46q0 -27 -35 -27h-195q-37 0 -37 28v35q0 34 22 34h35q39 0 39 35v28q0 25 -2 34q2 17 2 39v46q0 24 -2 36q2 14 2 37v42q0 26 -2 40q2 13 2 40v42q0 24 -2 35q2 15 2 37v34q0 80 -10 74q-12 -2 -20 -2
l-45 -11q-21 0 -21 38v31q0 28 22 28zM635 799h64q24 0 24 -30v-446q0 -13 33 -37q3 -10 3 -15v-50q0 -18 -30 -30q-6 -9 -6 -15v-144q0 -35 -27 -35h-16q-42 0 -42 30v125q0 47 -26 47h-149q-27 0 -27 41l1 9v29q47 152 173 513q8 8 25 8zM522 332v-17q0 -17 39 -17h40
q37 0 37 22v255q0 33 -13 33h-3q-13 0 -46 -116q-6 -11 -54 -160zM681 1434q25 0 27 -30l-299 -967q-81 -277 -132 -419q-13 -10 -30 -15q-24 0 -27 30l330 1066q71 236 101 317q7 11 30 18z" />
    <glyph glyph-name="onehalf" unicode="&#xbd;" horiz-adv-x="896" 
d="M681 1434q25 0 27 -30l-299 -967q-81 -277 -132 -419q-13 -10 -30 -15q-24 0 -27 30l330 1066q71 236 101 317q7 11 30 18zM650 815h36q69 -16 69 -27q28 -19 44 -86q5 -38 5 -60v-40q0 -114 -51 -162q-13 -31 -59 -59q-38 -29 -53 -69q-29 -25 -23 -144v-47
q0 -21 32 -24h127q27 0 27 -35v-28q0 -34 -32 -34h-201q-34 0 -34 21q-2 0 -2 6v132q-5 129 24 183q0 21 124 136q32 18 37 65q3 0 3 12v112q-5 51 -39 51h-28q-38 0 -38 -51v-60q0 -54 -17 -54q-9 -1 -15 -1h-9q-42 0 -42 27v80q0 56 41 124q50 32 74 32zM126 1409l126 23
q27 0 27 -29v-651q0 -22 35 -26h34q23 0 23 -24v-46q0 -27 -35 -27h-195q-37 0 -37 28v35q0 34 22 34h35q39 0 39 35v28q0 25 -2 34q2 17 2 39v46q0 24 -2 36q2 14 2 37v42q0 26 -2 40q2 13 2 40v42q0 24 -2 35q2 15 2 37v34q0 80 -10 74q-12 -2 -20 -2l-45 -11
q-21 0 -21 38v31q0 28 22 28z" />
    <glyph glyph-name="threequarters" unicode="&#xbe;" horiz-adv-x="862" 
d="M681 1434q25 0 27 -30l-299 -967q-81 -277 -132 -419q-13 -10 -30 -15q-24 0 -27 30l330 1066q71 236 101 317q7 11 30 18zM635 799h64q24 0 24 -30v-446q0 -13 33 -37q3 -10 3 -15v-50q0 -18 -30 -30q-6 -9 -6 -15v-144q0 -35 -27 -35h-16q-42 0 -42 30v125q0 47 -26 47
h-149q-27 0 -27 41l1 9v29q47 152 173 513q8 8 25 8zM522 332v-17q0 -17 39 -17h40q37 0 37 22v255q0 33 -13 33h-3q-13 0 -46 -116q-6 -11 -54 -160zM221 1439h19q48 0 74 -25q57 -44 57 -138v-131q0 -64 -46 -121v-20q46 -48 46 -108v-101q0 -126 -54 -159q0 -13 -54 -27
q-8 0 -28 -3q-49 7 -82 27q-13 0 -35 52q-17 47 -17 76v85q0 24 27 24h30q26 0 26 -23v-83q0 -60 46 -60h16q44 15 44 52v170q-5 44 -91 44q-35 0 -35 27v29q0 44 23 44q85 0 93 13q10 15 10 30v177q0 42 -32 49q-6 2 -18 2h-16q-35 0 -40 -54v-84q0 -29 -39 -29h-15
q-29 0 -29 24v94q0 23 24 90q45 52 76 52q0 4 20 5z" />
    <glyph glyph-name="questiondown" unicode="&#xbf;" horiz-adv-x="615" 
d="M307 4h-6q-105 0 -162 78q-75 47 -75 273v47q0 107 33 198q0 8 69 132q84 78 102 140q38 47 48 129q0 54 51 54q28 -3 54 -3h6q29 0 29 -36q0 -115 -50 -207q0 -21 -84 -113q-42 -75 -84 -129q-27 -82 -27 -120v-182q0 -60 72 -87h36q52 0 72 48q9 32 9 48v104
q0 51 59 51h21q63 0 63 -45v-98q0 -175 -125 -255q-24 -19 -111 -27zM370 1252q-69 0 -69 48v123q0 39 54 39h57q62 0 62 -54v-93q0 -63 -68 -63h-36z" />
    <glyph glyph-name="Agrave" unicode="&#xc0;" 
d="M265 1434h119q54 0 54 -105q39 -275 54 -410q54 -364 96 -769q6 -74 15 -116q0 -33 -57 -33h-21q-69 0 -69 56q-22 243 -39 243q-14 9 -39 9h-116q-57 0 -57 -81q-18 -86 -24 -188q-14 -39 -48 -39h-33q-63 0 -63 39q15 88 21 197q15 95 42 353q12 59 90 667q8 33 18 141
q21 36 57 36zM238 533q0 -48 65 -48h42q57 0 57 39q0 17 -60 551q-9 18 -15 18h-15q-21 0 -29 -153q-9 -40 -24 -200q-6 -31 -21 -207zM260 1708q50 -29 70 -88q56 -87 56 -117q-2 -12 -23 -23q-39 6 -154 158q0 8 -9 33q9 37 60 37z" />
    <glyph glyph-name="Aacute" unicode="&#xc1;" horiz-adv-x="637" 
d="M432 1398q10 -108 18 -141q78 -608 90 -667q27 -258 42 -353q6 -109 21 -197q0 -39 -63 -39h-33q-34 0 -48 39q-6 102 -24 188q0 81 -57 81h-116q-25 0 -39 -9q-17 0 -39 -243q0 -56 -69 -56h-21q-57 0 -57 33q9 42 15 116q42 405 96 769q15 135 54 410q0 105 54 105h119
q36 0 57 -36zM381 740q-15 160 -24 200q-8 153 -29 153h-15q-6 0 -15 -18q-60 -534 -60 -551q0 -39 57 -39h42q65 0 65 48q-15 176 -21 207zM440 1671q-9 -25 -9 -33q-115 -152 -154 -158q-21 11 -23 23q0 30 56 117q20 59 70 88q51 0 60 -37z" />
    <glyph glyph-name="Acircumflex" unicode="&#xc2;" horiz-adv-x="643" 
d="M265 1434h119q54 0 54 -105q39 -275 54 -410q54 -364 96 -769q6 -74 15 -116q0 -33 -57 -33h-21q-69 0 -69 56q-22 243 -39 243q-14 9 -39 9h-116q-57 0 -57 -81q-18 -86 -24 -188q-14 -39 -48 -39h-33q-63 0 -63 39q15 88 21 197q15 95 42 353q12 59 90 667q8 33 18 141
q21 36 57 36zM238 533q0 -48 65 -48h42q57 0 57 39q0 17 -60 551q-9 18 -15 18h-15q-21 0 -29 -153q-9 -40 -24 -200q-6 -31 -21 -207zM348 1700q45 -103 84 -205q-3 -10 -18 -10q-20 0 -26 7q-9 17 -45 105q-9 31 -21 31h-6l-7 -5l-42 -99q-9 -39 -36 -39q-22 0 -22 9
q35 96 71 176q8 36 31 36h24q6 0 13 -6z" />
    <glyph glyph-name="Atilde" unicode="&#xc3;" 
d="M265 1434h119q54 0 54 -105q39 -275 54 -410q54 -364 96 -769q6 -74 15 -116q0 -33 -57 -33h-21q-69 0 -69 56q-22 243 -39 243q-14 9 -39 9h-116q-57 0 -57 -81q-18 -86 -24 -188q-14 -39 -48 -39h-33q-63 0 -63 39q15 88 21 197q15 95 42 353q12 59 90 667q8 33 18 141
q21 36 57 36zM238 533q0 -48 65 -48h42q57 0 57 39q0 17 -60 551q-9 18 -15 18h-15q-21 0 -29 -153q-9 -40 -24 -200q-6 -31 -21 -207zM257 1657h11q19 0 64 -32q5 0 49 -37q17 -4 22 -4h6q22 0 51 29q38 -18 38 -39q0 -25 -57 -60q-6 -7 -28 -10l-4 2h-9q-55 21 -73 43
q-37 35 -58 35h-9q-17 0 -46 -43q-10 -6 -14 -6q-35 8 -35 32q0 19 62 82q19 8 30 8z" />
    <glyph glyph-name="Adieresis" unicode="&#xc4;" horiz-adv-x="641" 
d="M194 1673q60 0 60 -66v-18q0 -59 -48 -59h-33q-39 6 -39 38l3 6v57q0 42 57 42zM439 1673q66 0 66 -57v-33q0 -53 -42 -53h-42q-29 0 -36 38v57q0 48 54 48zM260 1434h131q45 0 45 -105q66 -468 81 -607l45 -329q0 -36 27 -252q0 -40 12 -107q0 -33 -66 -33h-9
q-72 0 -72 68q-24 188 -24 207q0 28 -69 33h-98q-60 0 -60 -78q-12 -44 -21 -182q-11 -45 -45 -45q-11 -3 -33 -3h-3q-66 0 -66 45q18 99 45 403l51 353l27 219l48 365q0 41 54 48zM236 533q0 -48 63 -48h56q45 0 45 39v6q-9 120 -30 278q0 26 -21 198q-4 96 -27 96h-11
q-20 0 -48 -317q-9 -57 -27 -252z" />
    <glyph glyph-name="Aring" unicode="&#xc5;" horiz-adv-x="637" 
d="M319 1682q105 -38 105 -138q-12 -51 -12 -65v-9l21 -93q0 -20 66 -500q0 -5 24 -203q36 -221 48 -392q14 -51 20 -195q5 -15 12 -50q0 -36 -59 -36h-21q-69 0 -69 62q0 31 -24 219q-13 27 -45 27h-126q-56 0 -56 -87q-12 -52 -24 -191q-9 -30 -72 -30h-9q-63 0 -63 39
q15 103 63 538q7 0 21 162q15 75 48 347q36 275 45 320q14 29 14 48q-9 73 -14 101q19 105 50 105q0 8 57 21zM250 1577v-44q0 -39 57 -57h36q42 10 42 45v38q0 69 -63 69h-18q-54 -14 -54 -51zM235 530q9 -45 63 -45h51q51 0 51 45l-57 542q0 15 -18 27h-15q-20 0 -27 -141
q-12 -61 -24 -212q-9 -34 -24 -216z" />
    <glyph glyph-name="AE" unicode="&#xc6;" horiz-adv-x="862" 
d="M226 531q0 -48 63 -48h56q45 0 45 39v6q-9 120 -30 278q0 26 -21 198q-4 96 -27 96h-11q-20 0 -48 -317q-9 -57 -27 -252zM575 173h136q66 0 66 -63v-39q0 -71 -42 -71q-15 -3 -39 -3l-171 2h-9q-72 0 -72 68q-24 188 -24 207q0 28 -69 33h-98q-60 0 -60 -78
q-12 -44 -21 -182q-11 -45 -45 -45q-11 -3 -33 -3h-3q-66 0 -66 45q18 99 45 403l51 353l27 219l48 365q0 41 54 48l462 1q65 -3 65 -60v-57q0 -63 -54 -63h-251q-23 -5 -33 -17q38 -275 56 -418q9 -14 34 -17h188q63 0 63 -47v-87q0 -39 -39 -39h-146q-58 0 -65 -51v-25
l22 -161q0 -33 23 -218z" />
    <glyph glyph-name="Ccedilla" unicode="&#xc7;" horiz-adv-x="685" 
d="M317 -19q-82 14 -82 29q-77 48 -104 131q-21 49 -21 144v877q0 145 81 245q84 48 155 48h27q38 0 126 -42q90 -80 90 -305v-63q0 -60 -54 -60h-30q-57 0 -57 39q-3 11 -3 33v102q0 122 -75 122h-39q-78 0 -78 -108v-927q0 -80 84 -96h15q93 0 93 102v123q0 71 42 71h57
q45 0 45 -56v-66q0 -206 -69 -264q-65 -80 -159 -80q0 -2 -4 -2v-10q-2 -43 -2 -50q0 -5 5 -8h6q2 0 15 8q7 2 10 2h8q11 -1 30 -15q12 -20 17 -44v-142q-6 -44 -12 -44q-22 -31 -51 -31q-1 -1 -6 -1q-21 3 -33 11q-13 6 -19 22q-13 9 -13 71q0 22 17 22h5q19 0 19 -19
q-1 -9 -1 -13v-6q0 -37 13 -37q4 -3 11 -3h5q14 0 22 16q3 8 3 15v120q0 30 -15 30q0 1 -11 2q-22 0 -25 -9l-4 -19q-4 -5 -20 -5q-18 0 -18 10q1 73 4 130z" />
    <glyph glyph-name="Egrave" unicode="&#xc8;" 
d="M175 1434h320q54 0 54 -57v-57q0 -63 -54 -63h-191q-42 -9 -42 -42v-374q0 -31 39 -36h188q63 0 63 -47v-87q0 -39 -39 -39h-186q-58 0 -65 -51v-368q0 -30 45 -36h176q66 0 66 -63v-39q0 -71 -42 -71q-15 -3 -39 -3h-290q-57 0 -57 38q-3 3 -3 24v1287q0 81 39 81
q0 3 18 3zM260 1708q50 -29 70 -88q56 -87 56 -117q-2 -12 -23 -23q-39 6 -154 158q0 8 -9 33q9 37 60 37z" />
    <glyph glyph-name="Eacute" unicode="&#xc9;" 
d="M175 1434h320q54 0 54 -57v-57q0 -63 -54 -63h-191q-42 -9 -42 -42v-374q0 -31 39 -36h188q63 0 63 -47v-87q0 -39 -39 -39h-186q-58 0 -65 -51v-368q0 -30 45 -36h176q66 0 66 -63v-39q0 -71 -42 -71q-15 -3 -39 -3h-290q-57 0 -57 38q-3 3 -3 24v1287q0 81 39 81
q0 3 18 3zM446 1671q-9 -25 -9 -33q-115 -152 -154 -158q-21 11 -23 23q0 30 56 117q20 59 70 88q51 0 60 -37z" />
    <glyph glyph-name="Ecircumflex" unicode="&#xca;" 
d="M307 1706h24q23 0 31 -36q36 -80 71 -176q0 -9 -22 -9q-27 0 -36 39l-42 99l-7 5h-6q-12 0 -21 -31q-36 -88 -45 -105q-6 -7 -26 -7q-15 0 -18 10q39 102 84 205q7 6 13 6zM175 1434h320q54 0 54 -57v-57q0 -63 -54 -63h-191q-42 -9 -42 -42v-374q0 -31 39 -36h188
q63 0 63 -47v-87q0 -39 -39 -39h-186q-58 0 -65 -51v-368q0 -30 45 -36h176q66 0 66 -63v-39q0 -71 -42 -71q-15 -3 -39 -3h-290q-57 0 -57 38q-3 3 -3 24v1287q0 81 39 81q0 3 18 3z" />
    <glyph glyph-name="Edieresis" unicode="&#xcb;" horiz-adv-x="637" 
d="M175 1434h320q54 0 54 -57v-57q0 -63 -54 -63h-191q-42 -9 -42 -42v-374q0 -31 39 -36h188q63 0 63 -47v-87q0 -39 -39 -39h-186q-58 0 -65 -51v-368q0 -30 45 -36h176q66 0 66 -63v-39q0 -71 -42 -71q-15 -3 -39 -3h-290q-57 0 -57 38q-3 3 -3 24v1287q0 81 39 81
q0 3 18 3zM201 1675q51 0 51 -42v-63q0 -42 -54 -42q-62 0 -62 54v39q0 54 65 54zM515 1621v-39q0 -54 -62 -54q-54 0 -54 42v63q0 42 51 42q65 0 65 -54z" />
    <glyph glyph-name="Igrave" unicode="&#xcc;" horiz-adv-x="390" 
d="M214 1436q65 0 65 -51v-1320q0 -65 -53 -65h-33q-63 0 -63 59v1317q0 60 57 60h27zM159 1703q50 -29 70 -88q56 -87 56 -117q-2 -12 -23 -23q-39 6 -154 158q0 8 -9 33q9 37 60 37z" />
    <glyph glyph-name="Iacute" unicode="&#xcd;" horiz-adv-x="390" 
d="M217 1436q57 0 57 -60v-1317q0 -59 -63 -59h-33q-53 0 -53 65v1320q0 51 65 51h27zM315 1666q-9 -25 -9 -33q-115 -152 -154 -158q-21 11 -23 23q0 30 56 117q20 59 70 88q51 0 60 -37z" />
    <glyph glyph-name="Icircumflex" unicode="&#xce;" horiz-adv-x="390" 
d="M187 1701h24q23 0 31 -36q36 -80 71 -176q0 -9 -22 -9q-27 0 -36 39l-42 99l-7 5h-6q-12 0 -21 -31q-36 -88 -45 -105q-6 -7 -26 -7q-15 0 -18 10q39 102 84 205q7 6 13 6zM217 1436q57 0 57 -60v-1317q0 -59 -63 -59h-33q-53 0 -53 65v1320q0 51 65 51h27z" />
    <glyph glyph-name="Idieresis" unicode="&#xcf;" horiz-adv-x="390" 
d="M91 1675q51 0 51 -42v-63q0 -42 -54 -42q-62 0 -62 54v39q0 54 65 54zM375 1621v-39q0 -54 -62 -54q-54 0 -54 42v63q0 42 51 42q65 0 65 -54zM217 1436q57 0 57 -60v-1317q0 -59 -63 -59h-33q-53 0 -53 65v1320q0 51 65 51h27z" />
    <glyph glyph-name="Eth" unicode="&#xd0;" horiz-adv-x="696" 
d="M270 793h51q82 0 82 -36q3 -16 3 -30v-21q0 -63 -56 -63h-80v-427q0 -39 42 -39h63q84 0 84 123v829q0 88 -27 107q-27 21 -42 21h-75q-45 -9 -45 -45v-419zM121 643h-20q-71 0 -71 63v18q0 69 45 69h46v102q0 13 -3 24q3 12 3 24v171q0 10 -3 15l3 17v171q0 11 -3 27
q0 90 33 90h185q134 0 171 -45q58 -46 71 -108q21 -45 21 -200v-715q0 -217 -50 -267q-71 -98 -195 -98h-162q-71 0 -71 47q0 18 -3 18l3 30v171q0 10 -3 15l3 18v170q0 13 -3 24q3 12 3 24v125z" />
    <glyph glyph-name="Ntilde" unicode="&#xd1;" horiz-adv-x="716" 
d="M222 1436q50 0 60 -72l27 -147q18 -72 53 -272q51 -254 66 -311q16 -24 21 -24h3q21 8 21 69v718q0 39 54 39h12q66 0 66 -51v-1320q0 -65 -63 -65h-30q-63 0 -63 53q-81 387 -128 650q-16 74 -39 74h-3q-18 0 -18 -104v-620q0 -53 -60 -53h-15q-66 0 -66 62v1314
q0 60 57 60h45zM297 1660h11q19 0 64 -32q5 0 49 -37q17 -4 22 -4h6q22 0 51 29q38 -18 38 -39q0 -25 -57 -60q-6 -7 -28 -10l-4 2h-9q-55 21 -73 43q-37 35 -58 35h-9q-17 0 -46 -43q-10 -6 -14 -6q-35 8 -35 32q0 19 62 82q19 8 30 8z" />
    <glyph glyph-name="Ograve" unicode="&#xd2;" horiz-adv-x="702" 
d="M359 1457q104 0 167 -90q63 -44 63 -236v-853q0 -191 -105 -260q0 -18 -119 -39h-15q-64 0 -153 48q-45 45 -45 68q-42 89 -42 195v891q18 137 54 183q73 93 192 93h3zM257 1140v-853q4 -117 30 -117q0 -10 42 -18h45q75 21 75 99v930q-14 93 -54 93q0 5 -57 6
q-78 -16 -78 -78q-3 -20 -3 -62zM302 1706q50 -29 70 -88q56 -87 56 -117q-2 -12 -23 -23q-39 6 -154 158q0 8 -9 33q9 37 60 37z" />
    <glyph glyph-name="Oacute" unicode="&#xd3;" horiz-adv-x="702" 
d="M343 1457q119 0 192 -93q36 -46 54 -183v-891q0 -106 -42 -195q0 -23 -45 -68q-89 -48 -153 -48h-15q-119 21 -119 39q-105 69 -105 260v853q0 192 63 236q63 90 167 90h3zM439 1202q0 62 -78 78q-57 -1 -57 -6q-40 0 -54 -93v-930q0 -78 75 -99h45q42 8 42 18
q26 0 30 117v853q0 42 -3 62zM467 1669q-9 -25 -9 -33q-115 -152 -154 -158q-21 11 -23 23q0 30 56 117q20 59 70 88q51 0 60 -37z" />
    <glyph glyph-name="Ocircumflex" unicode="&#xd4;" horiz-adv-x="699" 
d="M335 1706h24q23 0 31 -36q36 -80 71 -176q0 -9 -22 -9q-27 0 -36 39l-42 99l-7 5h-6q-12 0 -21 -31q-36 -88 -45 -105q-6 -7 -26 -7q-15 0 -18 10q39 102 84 205q7 6 13 6zM343 1457q119 0 192 -93q36 -46 54 -183v-891q0 -106 -42 -195q0 -23 -45 -68q-89 -48 -153 -48
h-15q-119 21 -119 39q-105 69 -105 260v853q0 192 63 236q63 90 167 90h3zM439 1202q0 62 -78 78q-57 -1 -57 -6q-40 0 -54 -93v-930q0 -78 75 -99h45q42 8 42 18q26 0 30 117v853q0 42 -3 62z" />
    <glyph glyph-name="Otilde" unicode="&#xd5;" horiz-adv-x="699" 
d="M264 1657h11q19 0 64 -32q5 0 49 -37q17 -4 22 -4h6q22 0 51 29q38 -18 38 -39q0 -25 -57 -60q-6 -7 -28 -10l-4 2h-9q-55 21 -73 43q-37 35 -58 35h-9q-17 0 -46 -43q-10 -6 -14 -6q-35 8 -35 32q0 19 62 82q19 8 30 8zM340 -21q-104 0 -167 90q-63 44 -63 236v853
q0 191 105 260q0 18 119 39h15q64 0 153 -48q45 -45 45 -68q42 -89 42 -195v-891q-18 -137 -54 -183q-73 -93 -192 -93h-3zM442 296v853q-4 117 -30 117q0 10 -42 18h-45q-75 -21 -75 -99v-930q14 -93 54 -93q0 -5 57 -6q78 16 78 78q3 20 3 62z" />
    <glyph glyph-name="Odieresis" unicode="&#xd6;" horiz-adv-x="705" 
d="M228 1673q57 0 57 -48v-45q0 -50 -42 -50h-33q-42 0 -42 53v24q0 66 60 66zM482 1673q54 0 54 -48v-9q0 -86 -30 -86h-44q-37 0 -42 47v33q0 63 53 63h9zM339 1455h36q63 0 137 -57q47 -47 60 -114q15 -47 21 -114v-909q-14 -129 -45 -171q-35 -77 -75 -77
q-33 -24 -122 -36q-126 17 -126 39q-93 73 -93 134q-24 70 -24 147v868q22 161 39 161q25 53 69 87q59 42 123 42zM258 255q0 -84 78 -105h24q87 0 87 102v924q0 90 -69 105h-36q-84 0 -84 -84v-942z" />
    <glyph glyph-name="multiply" unicode="&#xd7;" horiz-adv-x="1014" 
 />
    <glyph glyph-name="Oslash" unicode="&#xd8;" horiz-adv-x="705" 
d="M447 1188q-4 79 -69 93h-36q-84 0 -84 -84v-621l168 543zM447 976l-162 -519l-27 -91v-111q0 -84 78 -105h24q87 0 87 102v724zM513 1397l14 39q7 11 30 18q25 0 27 -30l-28 -90q11 -24 16 -50q15 -47 21 -114v-909q-14 -129 -45 -171q-35 -77 -75 -77q-33 -24 -122 -36
q-126 17 -126 39q-37 29 -60 57l-12 -35q-13 -10 -30 -15q-24 0 -27 30l33 106q-21 66 -21 138v868q22 161 39 161q25 53 69 87q59 42 123 42h36q63 0 137 -57z" />
    <glyph glyph-name="Ugrave" unicode="&#xd9;" horiz-adv-x="702" 
d="M167 1436h33q57 0 57 -45v-1101q0 -126 35 -126q0 -9 42 -12h33q78 18 78 96v1143q0 45 57 45h30q57 0 57 -51v-1074q0 -251 -132 -308q-63 -24 -111 -24q-70 0 -152 51q-46 34 -72 146q-12 40 -12 60v1155q0 45 57 45zM302 1706q50 -29 70 -88q56 -87 56 -117
q-2 -12 -23 -23q-39 6 -154 158q0 8 -9 33q9 37 60 37z" />
    <glyph glyph-name="Uacute" unicode="&#xda;" horiz-adv-x="702" 
d="M589 1391v-1155q0 -20 -12 -60q-26 -112 -72 -146q-82 -51 -152 -51q-48 0 -111 24q-132 57 -132 308v1074q0 51 57 51h30q57 0 57 -45v-1143q0 -78 78 -96h33q42 3 42 12q35 0 35 126v1101q0 45 57 45h33q57 0 57 -45zM457 1669q-9 -25 -9 -33q-115 -152 -154 -158
q-21 11 -23 23q0 30 56 117q20 59 70 88q51 0 60 -37z" />
    <glyph glyph-name="Ucircumflex" unicode="&#xdb;" horiz-adv-x="699" 
d="M589 1391v-1155q0 -20 -12 -60q-26 -112 -72 -146q-82 -51 -152 -51q-48 0 -111 24q-132 57 -132 308v1074q0 51 57 51h30q57 0 57 -45v-1143q0 -78 78 -96h33q42 3 42 12q35 0 35 126v1101q0 45 57 45h33q57 0 57 -45zM333 1701h24q23 0 31 -36q36 -80 71 -176
q0 -9 -22 -9q-27 0 -36 39l-42 99l-7 5h-6q-12 0 -21 -31q-36 -88 -45 -105q-6 -7 -26 -7q-15 0 -18 10q39 102 84 205q7 6 13 6z" />
    <glyph glyph-name="Udieresis" unicode="&#xdc;" horiz-adv-x="702" 
d="M221 1675q51 0 51 -42v-63q0 -42 -54 -42q-62 0 -62 54v39q0 54 65 54zM535 1621v-39q0 -54 -62 -54q-54 0 -54 42v63q0 42 51 42q65 0 65 -54zM589 1391v-1155q0 -20 -12 -60q-26 -112 -72 -146q-82 -51 -152 -51q-48 0 -111 24q-132 57 -132 308v1074q0 51 57 51h30
q57 0 57 -45v-1143q0 -78 78 -96h33q42 3 42 12q35 0 35 126v1101q0 45 57 45h33q57 0 57 -45z" />
    <glyph glyph-name="Ydieresis" unicode="&#x178;" horiz-adv-x="612" 
d="M181 1675q51 0 51 -42v-63q0 -42 -54 -42q-62 0 -62 54v39q0 54 65 54zM505 1621v-39q0 -54 -62 -54q-54 0 -54 42v63q0 42 51 42q65 0 65 -54zM582 1409q-75 -312 -173 -679q-27 -97 -27 -147v-536q0 -47 -57 -47h-33q-60 0 -60 38v557q0 48 -42 194q-155 598 -155 611
q0 33 45 33h44q13 0 24 -3q27 0 51 -138q39 -197 48 -227q31 -177 51 -177h21l12 9q66 291 108 494q14 42 62 42h39q42 0 42 -24z" />
    <glyph glyph-name="Yacute" unicode="&#xdd;" horiz-adv-x="612" 
d="M582 1409q-75 -312 -173 -679q-27 -97 -27 -147v-536q0 -47 -57 -47h-33q-60 0 -60 38v557q0 48 -42 194q-155 598 -155 611q0 33 45 33h44q13 0 24 -3q27 0 51 -138q39 -197 48 -227q31 -177 51 -177h21l12 9q66 291 108 494q14 42 62 42h39q42 0 42 -24zM455 1669
q-9 -25 -9 -33q-115 -152 -154 -158q-21 11 -23 23q0 30 56 117q20 59 70 88q51 0 60 -37z" />
    <glyph glyph-name="Thorn" unicode="&#xde;" horiz-adv-x="1120" 
 />
    <glyph glyph-name="germandbls" unicode="&#xdf;" horiz-adv-x="1251" 
 />
    <glyph glyph-name="agrave" unicode="&#xe0;" horiz-adv-x="637" 
d="M265 1434h119q54 0 54 -105q39 -275 54 -410q54 -364 96 -769q6 -74 15 -116q0 -33 -57 -33h-21q-69 0 -69 56q-22 243 -39 243q-14 9 -39 9h-116q-57 0 -57 -81q-18 -86 -24 -188q-14 -39 -48 -39h-33q-63 0 -63 39q15 88 21 197q15 95 42 353q12 59 90 667q8 33 18 141
q21 36 57 36zM238 533q0 -48 65 -48h42q57 0 57 39q0 17 -60 551q-9 18 -15 18h-15q-21 0 -29 -153q-9 -40 -24 -200q-6 -31 -21 -207zM260 1708q50 -29 70 -88q56 -87 56 -117q-2 -12 -23 -23q-39 6 -154 158q0 8 -9 33q9 37 60 37z" />
    <glyph glyph-name="aacute" unicode="&#xe1;" 
d="M432 1398q10 -108 18 -141q78 -608 90 -667q27 -258 42 -353q6 -109 21 -197q0 -39 -63 -39h-33q-34 0 -48 39q-6 102 -24 188q0 81 -57 81h-116q-25 0 -39 -9q-17 0 -39 -243q0 -56 -69 -56h-21q-57 0 -57 33q9 42 15 116q42 405 96 769q15 135 54 410q0 105 54 105h119
q36 0 57 -36zM381 740q-15 160 -24 200q-8 153 -29 153h-15q-6 0 -15 -18q-60 -534 -60 -551q0 -39 57 -39h42q65 0 65 48q-15 176 -21 207zM440 1671q-9 -25 -9 -33q-115 -152 -154 -158q-21 11 -23 23q0 30 56 117q30 59 70 88q51 0 60 -37z" />
    <glyph glyph-name="acircumflex" unicode="&#xe2;" 
d="M432 1398q10 -108 18 -141q78 -608 90 -667q27 -258 42 -353q6 -109 21 -197q0 -39 -63 -39h-33q-34 0 -48 39q-6 102 -24 188q0 81 -57 81h-116q-25 0 -39 -9q-17 0 -39 -243q0 -56 -69 -56h-21q-57 0 -57 33q9 42 15 116q42 405 96 769q15 135 54 410q0 105 54 105h119
q36 0 57 -36zM381 740q-15 160 -24 200q-8 153 -29 153h-15q-6 0 -15 -18q-60 -534 -60 -551q0 -39 57 -39h42q65 0 65 48q-15 176 -21 207zM305 1706h24q23 0 31 -36q36 -80 71 -176q0 -9 -22 -9q-27 0 -36 39l-42 99l-7 5h-6q-12 0 -21 -31q-36 -88 -45 -105q-6 -7 -26 -7
q-15 0 -18 10q39 102 84 205q7 6 13 6z" />
    <glyph glyph-name="atilde" unicode="&#xe3;" 
d="M432 1398q10 -108 18 -141q78 -608 90 -667q27 -258 42 -353q6 -109 21 -197q0 -39 -63 -39h-33q-34 0 -48 39q-6 102 -24 188q0 81 -57 81h-116q-25 0 -39 -9q-17 0 -39 -243q0 -56 -69 -56h-21q-57 0 -57 33q9 42 15 116q42 405 96 769q15 135 54 410q0 105 54 105h119
q36 0 57 -36zM381 740q-15 160 -24 200q-8 153 -29 153h-15q-6 0 -15 -18q-60 -534 -60 -551q0 -39 57 -39h42q65 0 65 48q-15 176 -21 207zM254 1657h11q19 0 64 -32q5 0 49 -37q17 -4 22 -4h6q22 0 51 29q38 -18 38 -39q0 -25 -57 -60q-6 -7 -28 -10l-4 2h-9
q-55 21 -73 43q-37 35 -58 35h-9q-17 0 -46 -43q-10 -6 -14 -6q-35 8 -35 32q0 19 62 82q19 8 30 8z" />
    <glyph glyph-name="adieresis" unicode="&#xe4;" horiz-adv-x="641" 
d="M201 1675q51 0 51 -42v-63q0 -42 -54 -42q-62 0 -62 54v39q0 54 65 54zM450 1675q54 0 54 -39v-72q0 -36 -57 -36q-60 4 -60 54v33q0 60 63 60zM264 1436h99q75 0 75 -78q0 -23 108 -823l50 -452q6 -28 6 -45q0 -28 -38 -35h-63q-45 0 -45 74q-23 219 -39 219
q-16 12 -27 12h-147q-42 0 -42 -108q-11 -51 -20 -168q-20 -29 -48 -29h-57q-39 0 -39 35q15 100 63 554q15 62 63 449q15 91 24 191q11 58 23 168q0 36 54 36zM234 532v-15q12 -33 51 -33h54q66 0 66 54q-12 71 -24 213q-9 49 -21 191q-8 28 -18 144l-18 15h-3
q-30 0 -30 -87q-18 -123 -48 -425q-9 -33 -9 -57z" />
    <glyph glyph-name="aring" unicode="&#xe5;" horiz-adv-x="637" 
d="M303 1681h15q96 -22 96 -96q3 0 9 -30q-12 -60 -12 -74v-15q15 -60 27 -171q59 -420 59 -464q11 -33 27 -191q27 -183 72 -593q-5 -44 -39 -44h-54q-50 6 -50 50q-6 11 -15 159q-17 93 -45 93q0 3 -3 3h-144q-48 0 -48 -72q-24 -219 -36 -219q-14 -14 -36 -14h-50
q-39 3 -39 29q0 53 27 273q20 194 89 709q45 363 69 461v6q0 13 -12 59v24q0 77 93 117zM246 1564v-27q0 -62 66 -62q69 0 69 77v6q-7 69 -51 69h-24q-60 -23 -60 -63zM231 529q0 -45 60 -45h42q66 0 66 60q-15 91 -27 245q-8 33 -24 207q-14 95 -24 105q-6 3 -9 3
q-33 0 -39 -180q-11 -55 -24 -209q-10 -33 -21 -186z" />
    <glyph glyph-name="ae" unicode="&#xe6;" horiz-adv-x="865" 
d="M226 531q0 -48 63 -48h56q45 0 45 39v6q-9 120 -30 278q0 26 -21 198q-4 96 -27 96h-11q-20 0 -48 -317q-9 -57 -27 -252zM575 173h136q66 0 66 -63v-39q0 -71 -42 -71q-15 -3 -39 -3l-171 2h-9q-72 0 -72 68q-24 188 -24 207q0 28 -69 33h-98q-60 0 -60 -78
q-12 -44 -21 -182q-11 -45 -45 -45q-11 -3 -33 -3h-3q-66 0 -66 45q18 99 45 403l51 353l27 219l48 365q0 41 54 48l462 1q65 -3 65 -60v-57q0 -63 -54 -63h-251q-23 -5 -33 -17q38 -275 56 -418q9 -14 34 -17h188q63 0 63 -47v-87q0 -39 -39 -39h-146q-58 0 -65 -51v-25
l22 -161q0 -33 23 -218z" />
    <glyph glyph-name="OE" unicode="&#x152;" horiz-adv-x="977" 
d="M258 255q0 -84 78 -105h24q87 0 87 102v924q0 90 -69 105h-36q-84 0 -84 -84v-942zM470 1426q7 5 17 5q0 3 18 3h320q54 0 54 -57v-57q0 -63 -54 -63h-191q-42 -9 -42 -42v-35q1 -5 1 -10v-338q5 -23 38 -27h188q63 0 63 -47v-87q0 -39 -39 -39h-186q-55 0 -64 -45v-326
q0 -5 -1 -9v-39q0 -30 45 -36h176q66 0 66 -63v-39q0 -71 -42 -71q-15 -3 -39 -3h-290q-27 0 -41 8q-34 -21 -116 -32q-126 17 -126 39q-93 73 -93 134q-24 70 -24 147v868q22 161 39 161q25 53 69 87q59 42 123 42h36q45 0 95 -29z" />
    <glyph glyph-name="oe" unicode="&#x153;" horiz-adv-x="977" 
d="M258 255q0 -84 78 -105h24q87 0 87 102v924q0 90 -69 105h-36q-84 0 -84 -84v-942zM470 1426q7 5 17 5q0 3 18 3h320q54 0 54 -57v-57q0 -63 -54 -63h-191q-42 -9 -42 -42v-35q1 -5 1 -10v-338q5 -23 38 -27h188q63 0 63 -47v-87q0 -39 -39 -39h-186q-55 0 -64 -45v-326
q0 -5 -1 -9v-39q0 -30 45 -36h176q66 0 66 -63v-39q0 -71 -42 -71q-15 -3 -39 -3h-290q-27 0 -41 8q-34 -21 -116 -32q-126 17 -126 39q-93 73 -93 134q-24 70 -24 147v868q22 161 39 161q25 53 69 87q59 42 123 42h36q45 0 95 -29z" />
    <glyph glyph-name="ccedilla" unicode="&#xe7;" horiz-adv-x="685" 
d="M317 -19q-82 14 -82 29q-77 48 -104 131q-21 49 -21 144v877q0 145 81 245q84 48 155 48h27q38 0 126 -42q90 -80 90 -305v-63q0 -60 -54 -60h-30q-57 0 -57 39q-3 11 -3 33v102q0 122 -75 122h-39q-78 0 -78 -108v-927q0 -80 84 -96h15q93 0 93 102v123q0 71 42 71h57
q45 0 45 -56v-66q0 -206 -69 -264q-65 -80 -159 -80q0 -2 -4 -2v-10q-2 -43 -2 -50q0 -5 5 -8h6q2 0 15 8q7 2 10 2h8q11 -1 30 -15q12 -20 17 -44v-142q-6 -44 -12 -44q-22 -31 -51 -31q-1 -1 -6 -1q-21 3 -33 11q-13 6 -19 22q-13 9 -13 71q0 22 17 22h5q19 0 19 -19
q-1 -9 -1 -13v-6q0 -37 13 -37q4 -3 11 -3h5q14 0 22 16q3 8 3 15v120q0 30 -15 30q0 1 -11 2q-22 0 -25 -9l-4 -19q-4 -5 -20 -5q-18 0 -18 10q1 73 4 130z" />
    <glyph glyph-name="egrave" unicode="&#xe8;" 
d="M175 1434h320q54 0 54 -57v-57q0 -63 -54 -63h-191q-42 -9 -42 -42v-374q0 -31 39 -36h188q63 0 63 -47v-87q0 -39 -39 -39h-186q-58 0 -65 -51v-368q0 -30 45 -36h176q66 0 66 -63v-39q0 -71 -42 -71q-15 -3 -39 -3h-290q-57 0 -57 38q-3 3 -3 24v1287q0 81 39 81
q0 3 18 3zM260 1708q50 -29 70 -88q56 -87 56 -117q-2 -12 -23 -23q-39 6 -154 158q0 8 -9 33q9 37 60 37z" />
    <glyph glyph-name="eacute" unicode="&#xe9;" 
d="M175 1434h320q54 0 54 -57v-57q0 -63 -54 -63h-191q-42 -9 -42 -42v-374q0 -31 39 -36h188q63 0 63 -47v-87q0 -39 -39 -39h-186q-58 0 -65 -51v-368q0 -30 45 -36h176q66 0 66 -63v-39q0 -71 -42 -71q-15 -3 -39 -3h-290q-57 0 -57 38q-3 3 -3 24v1287q0 81 39 81
q0 3 18 3zM446 1671q-9 -25 -9 -33q-115 -152 -154 -158q-21 11 -23 23q0 30 56 117q20 59 70 88q51 0 60 -37z" />
    <glyph glyph-name="ecircumflex" unicode="&#xea;" horiz-adv-x="643" 
d="M307 1706h24q23 0 31 -36q36 -80 71 -176q0 -9 -22 -9q-27 0 -36 39l-42 99l-7 5h-6q-12 0 -21 -31q-36 -88 -45 -105q-6 -7 -26 -7q-15 0 -18 10q39 102 84 205q7 6 13 6zM175 1434h320q54 0 54 -57v-57q0 -63 -54 -63h-191q-42 -9 -42 -42v-374q0 -31 39 -36h188
q63 0 63 -47v-87q0 -39 -39 -39h-186q-58 0 -65 -51v-368q0 -30 45 -36h176q66 0 66 -63v-39q0 -71 -42 -71q-15 -3 -39 -3h-290q-57 0 -57 38q-3 3 -3 24v1287q0 81 39 81q0 3 18 3z" />
    <glyph glyph-name="edieresis" unicode="&#xeb;" horiz-adv-x="637" 
d="M175 1434h320q54 0 54 -57v-57q0 -63 -54 -63h-191q-42 -9 -42 -42v-374q0 -31 39 -36h188q63 0 63 -47v-87q0 -39 -39 -39h-186q-58 0 -65 -51v-368q0 -30 45 -36h176q66 0 66 -63v-39q0 -71 -42 -71q-15 -3 -39 -3h-290q-57 0 -57 38q-3 3 -3 24v1287q0 81 39 81
q0 3 18 3zM201 1675q51 0 51 -42v-63q0 -42 -54 -42q-62 0 -62 54v39q0 54 65 54zM515 1621v-39q0 -54 -62 -54q-54 0 -54 42v63q0 42 51 42q65 0 65 -54z" />
    <glyph glyph-name="igrave" unicode="&#xec;" horiz-adv-x="390" 
d="M214 1436q65 0 65 -51v-1320q0 -65 -53 -65h-33q-63 0 -63 59v1317q0 60 57 60h27zM159 1703q50 -29 70 -88q56 -87 56 -117q-2 -12 -23 -23q-39 6 -154 158q0 8 -9 33q9 37 60 37z" />
    <glyph glyph-name="iacute" unicode="&#xed;" horiz-adv-x="388" 
d="M214 1436q65 0 65 -51v-1320q0 -65 -53 -65h-33q-63 0 -63 59v1317q0 60 57 60h27zM315 1666q-9 -25 -9 -33q-115 -152 -154 -158q-21 11 -23 23q0 30 56 117q20 59 70 88q51 0 60 -37z" />
    <glyph glyph-name="icircumflex" unicode="&#xee;" horiz-adv-x="390" 
d="M187 1701h24q23 0 31 -36q36 -80 71 -176q0 -9 -22 -9q-27 0 -36 39l-42 99l-7 5h-6q-12 0 -21 -31q-36 -88 -45 -105q-6 -7 -26 -7q-15 0 -18 10q39 102 84 205q7 6 13 6zM217 1436q57 0 57 -60v-1317q0 -59 -63 -59h-33q-53 0 -53 65v1320q0 51 65 51h27z" />
    <glyph glyph-name="idieresis" unicode="&#xef;" horiz-adv-x="390" 
d="M91 1675q51 0 51 -42v-63q0 -42 -54 -42q-62 0 -62 54v39q0 54 65 54zM375 1621v-39q0 -54 -62 -54q-54 0 -54 42v63q0 42 51 42q65 0 65 -54zM217 1436q57 0 57 -60v-1317q0 -59 -63 -59h-33q-53 0 -53 65v1320q0 51 65 51h27z" />
    <glyph glyph-name="eth" unicode="&#xf0;" horiz-adv-x="699" 
d="M270 793h51q82 0 82 -36q3 -16 3 -30v-21q0 -63 -56 -63h-80v-427q0 -39 42 -39h63q84 0 84 123v829q0 88 -27 107q-27 21 -42 21h-75q-45 -9 -45 -45v-419zM121 643h-20q-71 0 -71 63v18q0 69 45 69h46v102q0 13 -3 24q3 12 3 24v171q0 10 -3 15l3 17v171q0 11 -3 27
q0 90 33 90h185q134 0 171 -45q58 -46 71 -108q21 -45 21 -200v-715q0 -217 -50 -267q-71 -98 -195 -98h-162q-71 0 -71 47q0 18 -3 18l3 30v171q0 10 -3 15l3 18v170q0 13 -3 24q3 12 3 24v125z" />
    <glyph glyph-name="ntilde" unicode="&#xf1;" horiz-adv-x="716" 
d="M222 1436q50 0 60 -72l27 -147q18 -72 53 -272q51 -254 66 -311q16 -24 21 -24h3q21 8 21 69v718q0 39 54 39h12q66 0 66 -51v-1320q0 -65 -63 -65h-30q-63 0 -63 53q-81 387 -128 650q-16 74 -39 74h-3q-18 0 -18 -104v-620q0 -53 -60 -53h-15q-66 0 -66 62v1314
q0 60 57 60h45zM297 1660h11q19 0 64 -32q5 0 49 -37q17 -4 22 -4h6q22 0 51 29q38 -18 38 -39q0 -25 -57 -60q-6 -7 -28 -10l-4 2h-9q-55 21 -73 43q-37 35 -58 35h-9q-17 0 -46 -43q-10 -6 -14 -6q-35 8 -35 32q0 19 62 82q19 8 30 8z" />
    <glyph glyph-name="ograve" unicode="&#xf2;" horiz-adv-x="702" 
d="M359 1457q104 0 167 -90q63 -44 63 -236v-853q0 -191 -105 -260q0 -18 -119 -39h-15q-64 0 -153 48q-45 45 -45 68q-42 89 -42 195v891q18 137 54 183q73 93 192 93h3zM257 1140v-853q4 -117 30 -117q0 -10 42 -18h45q75 21 75 99v930q-14 93 -54 93q0 5 -57 6
q-78 -16 -78 -78q-3 -20 -3 -62zM302 1706q50 -29 70 -88q56 -87 56 -117q-2 -12 -23 -23q-39 6 -154 158q0 8 -9 33q9 37 60 37z" />
    <glyph glyph-name="oacute" unicode="&#xf3;" horiz-adv-x="699" 
d="M343 1457q119 0 192 -93q36 -46 54 -183v-891q0 -106 -42 -195q0 -23 -45 -68q-89 -48 -153 -48h-15q-119 21 -119 39q-105 69 -105 260v853q0 192 63 236q63 90 167 90h3zM439 1202q0 62 -78 78q-57 -1 -57 -6q-40 0 -54 -93v-930q0 -78 75 -99h45q42 8 42 18
q26 0 30 117v853q0 42 -3 62zM447 1669q-9 -25 -9 -33q-115 -152 -154 -158q-21 11 -23 23q0 30 56 117q20 59 70 88q51 0 60 -37z" />
    <glyph glyph-name="ocircumflex" unicode="&#xf4;" horiz-adv-x="699" 
d="M377 1700q45 -103 84 -205q-3 -10 -18 -10q-20 0 -26 7q-9 17 -45 105q-9 31 -21 31h-6l-7 -5l-42 -99q-9 -39 -36 -39q-22 0 -22 9q35 96 71 176q8 36 31 36h24q6 0 13 -6zM359 1457q104 0 167 -90q63 -44 63 -236v-853q0 -191 -105 -260q0 -18 -119 -39h-15
q-64 0 -153 48q-45 45 -45 68q-42 89 -42 195v891q18 137 54 183q73 93 192 93h3zM257 1140v-853q4 -117 30 -117q0 -10 42 -18h45q75 21 75 99v930q-14 93 -54 93q0 5 -57 6q-78 -16 -78 -78q-3 -20 -3 -62z" />
    <glyph glyph-name="otilde" unicode="&#xf5;" horiz-adv-x="699" 
d="M264 1657h11q19 0 64 -32q5 0 49 -37q17 -4 22 -4h6q22 0 51 29q38 -18 38 -39q0 -25 -57 -60q-6 -7 -28 -10l-4 2h-9q-55 21 -73 43q-37 35 -58 35h-9q-17 0 -46 -43q-10 -6 -14 -6q-35 8 -35 32q0 19 62 82q19 8 30 8zM340 -21q-104 0 -167 90q-63 44 -63 236v853
q0 191 105 260q0 18 119 39h15q64 0 153 -48q45 -45 45 -68q42 -89 42 -195v-891q-18 -137 -54 -183q-73 -93 -192 -93h-3zM442 296v853q-4 117 -30 117q0 10 -42 18h-45q-75 -21 -75 -99v-930q14 -93 54 -93q0 -5 57 -6q78 16 78 78q3 20 3 62z" />
    <glyph glyph-name="odieresis" unicode="&#xf6;" horiz-adv-x="694" 
d="M218 1675q63 0 63 -48v-51q0 -48 -63 -48q-54 0 -54 42v66q0 39 54 39zM472 1675q60 0 60 -66q0 -78 -45 -78q-4 -3 -21 -3q-51 0 -51 36v66q0 45 57 45zM355 1457q66 0 114 -33q41 0 84 -99q36 -62 36 -174v-885q0 -59 -33 -162q-89 -119 -168 -119q0 -5 -39 -6
q-60 0 -146 44q-24 7 -66 99q-15 0 -27 141v927q0 88 57 189q69 78 188 78zM254 1208v-975q0 -81 104 -81q81 20 81 81v930q0 102 -21 102q0 16 -81 18q-56 0 -77 -48q-6 -19 -6 -27z" />
    <glyph glyph-name="divide" unicode="&#xf7;" horiz-adv-x="545" 
d="M254 1181h36q69 0 69 -78v-51q0 -83 -48 -83l-27 -3q-93 0 -93 33q-3 19 -3 39v59q0 81 42 81q12 3 24 3zM230 424h75q54 0 54 -75v-65q0 -66 -48 -66h-81q-42 0 -42 75v74q0 57 42 57zM386 793q97 0 97 -36q3 -16 3 -30v-21q0 -63 -66 -63h-292q-83 0 -83 63v18
q0 69 53 69h288z" />
    <glyph glyph-name="oslash" unicode="&#xf8;" horiz-adv-x="705" 
d="M447 1188q-4 79 -69 93h-36q-84 0 -84 -84v-621l168 543zM447 976l-162 -519l-27 -91v-111q0 -84 78 -105h24q87 0 87 102v724zM513 1397l14 39q7 11 30 18q25 0 27 -30l-28 -90q11 -24 16 -50q15 -47 21 -114v-909q-14 -129 -45 -171q-35 -77 -75 -77q-33 -24 -122 -36
q-126 17 -126 39q-37 29 -60 57l-12 -35q-13 -10 -30 -15q-24 0 -27 30l33 106q-21 66 -21 138v868q22 161 39 161q25 53 69 87q59 42 123 42h36q63 0 137 -57z" />
    <glyph glyph-name="ugrave" unicode="&#xf9;" horiz-adv-x="702" 
d="M167 1436h33q57 0 57 -45v-1101q0 -126 35 -126q0 -9 42 -12h33q78 18 78 96v1143q0 45 57 45h30q57 0 57 -51v-1074q0 -251 -132 -308q-63 -24 -111 -24q-70 0 -152 51q-46 34 -72 146q-12 40 -12 60v1155q0 45 57 45zM302 1706q50 -29 70 -88q56 -87 56 -117
q-2 -12 -23 -23q-39 6 -154 158q0 8 -9 33q9 37 60 37z" />
    <glyph glyph-name="uacute" unicode="&#xfa;" horiz-adv-x="702" 
d="M589 1391v-1155q0 -20 -12 -60q-26 -112 -72 -146q-82 -51 -152 -51q-48 0 -111 24q-132 57 -132 308v1074q0 51 57 51h30q57 0 57 -45v-1143q0 -78 78 -96h33q42 3 42 12q35 0 35 126v1101q0 45 57 45h33q57 0 57 -45zM457 1669q-9 -25 -9 -33q-115 -152 -154 -158
q-21 11 -23 23q0 30 56 117q20 59 70 88q51 0 60 -37z" />
    <glyph glyph-name="ucircumflex" unicode="&#xfb;" horiz-adv-x="699" 
d="M167 1436h33q57 0 57 -45v-1101q0 -126 35 -126q0 -9 42 -12h33q78 18 78 96v1143q0 45 57 45h30q57 0 57 -51v-1074q0 -251 -132 -308q-63 -24 -111 -24q-70 0 -152 51q-46 34 -72 146q-12 40 -12 60v1155q0 45 57 45zM379 1695q45 -103 84 -205q-3 -10 -18 -10
q-20 0 -26 7q-9 17 -45 105q-9 31 -21 31h-6l-7 -5l-42 -99q-9 -39 -36 -39q-22 0 -22 9q35 96 71 176q8 36 31 36h24q6 0 13 -6z" />
    <glyph glyph-name="udieresis" unicode="&#xfc;" horiz-adv-x="699" 
d="M221 1675q51 0 51 -42v-63q0 -42 -54 -42q-62 0 -62 54v39q0 54 65 54zM535 1621v-39q0 -54 -62 -54q-54 0 -54 42v63q0 42 51 42q65 0 65 -54zM589 1391v-1155q0 -20 -12 -60q-26 -112 -72 -146q-82 -51 -152 -51q-48 0 -111 24q-132 57 -132 308v1074q0 51 57 51h30
q57 0 57 -45v-1143q0 -78 78 -96h33q42 3 42 12q35 0 35 126v1101q0 45 57 45h33q57 0 57 -45z" />
    <glyph glyph-name="yacute" unicode="&#xfd;" horiz-adv-x="612" 
d="M582 1409q-75 -312 -173 -679q-27 -97 -27 -147v-536q0 -47 -57 -47h-33q-60 0 -60 38v557q0 48 -42 194q-155 598 -155 611q0 33 45 33h44q13 0 24 -3q27 0 51 -138q39 -197 48 -227q31 -177 51 -177h21l12 9q66 291 108 494q14 42 62 42h39q42 0 42 -24zM445 1669
q-9 -25 -9 -33q-115 -152 -154 -158q-21 11 -23 23q0 30 56 117q20 59 70 88q51 0 60 -37z" />
    <glyph glyph-name="thorn" unicode="&#xfe;" horiz-adv-x="1010" 
 />
    <glyph glyph-name="ydieresis" unicode="&#xff;" horiz-adv-x="612" 
d="M181 1675q51 0 51 -42v-63q0 -42 -54 -42q-62 0 -62 54v39q0 54 65 54zM505 1621v-39q0 -54 -62 -54q-54 0 -54 42v63q0 42 51 42q65 0 65 -54zM582 1409q-75 -312 -173 -679q-27 -97 -27 -147v-536q0 -47 -57 -47h-33q-60 0 -60 38v557q0 48 -42 194q-155 598 -155 611
q0 33 45 33h44q13 0 24 -3q27 0 51 -138q39 -197 48 -227q31 -177 51 -177h21l12 9q66 291 108 494q14 42 62 42h39q42 0 42 -24z" />
    <glyph glyph-name="dagger" unicode="&#x2020;" horiz-adv-x="1014" 
 />
    <glyph glyph-name="lira" unicode="&#x20a4;" horiz-adv-x="1014" 
 />
    <glyph glyph-name="Euro" unicode="&#x20ac;" horiz-adv-x="698" 
d="M357 1453q59 0 132 -33q107 -85 107 -249v-143q0 -37 -48 -42h-44q-51 0 -51 66v140q0 65 -66 84q-4 3 -21 3h-21q-81 0 -81 -102v-272q13 -30 45 -30h203q51 -6 51 -39q0 -48 -83 -48h-162q-43 0 -54 -33v-71q0 -38 51 -45h203q48 0 48 -48q0 -39 -54 -39h-185
q-48 0 -63 -39v-254q0 -77 57 -105q16 -3 27 -3h18q68 0 75 36q6 0 12 54v146q0 60 59 60h18q66 0 66 -48v-125q0 -168 -89 -243q-59 -56 -144 -56h-18q-108 0 -189 116q-38 71 -38 207q0 28 3 57q-3 46 -3 107v54q0 33 -72 42q-15 17 -15 36q0 48 63 48q9 0 24 24v77
q0 35 -75 57q-12 20 -12 30v3q0 34 72 51q15 20 15 30q0 57 3 75q-3 51 -3 105q0 175 35 227q14 54 60 90q86 42 144 42z" />
    <glyph glyph-name="uni2116" unicode="&#x2116;" horiz-adv-x="2271" 
 />
    <glyph glyph-name="trademark" unicode="&#x2122;" horiz-adv-x="1300" 
d="M652 1431q59 0 59 -40q7 -28 141 -671q17 -102 34 -102h10q20 0 42 149q69 313 99 471q27 138 39 173q18 20 47 20h25q46 0 46 -40v-1111q0 -31 -48 -31h-5q-60 0 -60 39v538q-3 69 -19 69q-33 -59 -33 -113q-47 -229 -76 -405q-18 -123 -45 -123q-17 -3 -17 -5
q-41 0 -49 81q-77 410 -106 546q-15 21 -22 21q-15 -17 -15 -61q2 -37 2 -62v-5q0 -69 -2 -113q2 -38 2 -89q0 -43 -2 -84q2 -46 2 -89q0 -138 -12 -138q-18 -7 -47 -7h-8q-49 0 -49 36v1084q0 62 44 62h23zM132 1435h311q42 0 42 -32v-74q0 -38 -44 -38h-52q-40 -4 -40 -39
v-921q0 -73 -25 -73q0 -5 -29 -5h-20q-45 0 -45 36v948q0 54 -36 54h-62q-42 0 -42 55v42q0 47 42 47z" />
    <glyph glyph-name="minus" unicode="&#x2212;" horiz-adv-x="500" 
d="M366 793q97 0 97 -36q3 -16 3 -30v-21q0 -63 -66 -63h-292q-83 0 -83 63v18q0 69 53 69h288z" />
    <glyph glyph-name="infinity" unicode="&#x221e;" horiz-adv-x="1480" 
d="M26 1438h1423v-267q0 -5 -6 -5l6 -11v-34q0 -5 -6 -5l6 -12v-16q0 -6 -6 -6l6 -11q0 -11 -22 -11v-6h16q0 6 6 6v-11q0 -6 -6 -6l6 -11v-16q0 -6 -6 -6l6 -11v-28l-11 6h-11v-6q22 0 22 -11q0 -6 -6 -6l6 -11v-5q0 -6 -6 -6l6 -11v-33q0 -6 -6 -6l6 -11v-6q0 -5 -6 -5
l6 -11v-34q0 -5 -6 -5l6 -11v-22q0 -6 -6 -6l6 -11v-56q0 -5 -6 -5l6 -11v-6q0 -12 -6 -22q6 -10 6 -22v-6q0 -6 -6 -6l6 -11v-5l-6 -28q6 0 6 -6q-10 -5 -22 -5v-6h11v-5h-17v16h17v6h-17l-5 -11v-6l5 -11q-5 0 -5 -5q5 0 5 -6q-5 0 -5 -5q9 5 22 5v6h-11v5h16q0 -6 6 -16
l-22 -6v-6h11v-5q-10 0 -28 -11l6 -11v-12h-28v6h22v6h-22q-6 -9 -6 -34h-5q0 13 -6 22q6 0 6 6h-6q6 10 6 22h5v-11h23v6h-17v5q6 0 17 6q0 -6 5 -6v6q-5 0 -5 5q5 0 5 6h-5v-6l-12 6l-11 -6l-5 12q11 0 11 27h17v-5h-12v-6h12l5 11v6h-17l-11 -6l-5 11v6q1 11 11 11
q5 -11 5 -17h12q-6 9 -6 34l-17 -11q0 5 -5 5v-5q5 0 5 -6q-11 0 -11 -22h-16v5q14 0 16 28h-5q0 -5 -6 -5q0 5 -5 5q5 -11 5 -16v-6h-5v11h-6v-22l-11 5v-5q5 0 5 -6q-5 0 -5 -5h5l6 11q23 -11 33 -11v-17h-5v11h-6v-22l-11 6q0 -6 -5 -6l-6 11h17v17h-17q0 -17 -22 -34v-5
h-6v17h-5v-23h11v-5q-13 0 -23 -6q0 6 -5 6q5 -11 5 -17h6q0 13 22 17v5l11 -5v5q-11 0 -11 11q13 0 23 6q0 -6 5 -6q0 6 6 6q0 -6 5 -6q0 6 6 6l5 -11q-11 0 -11 -22h-5v22h-17v-22q-6 0 -6 5q-31 -7 -44 -33h5q0 5 6 5q6 -10 6 -16v-6h-6q0 11 -6 11l-27 -5l5 -11
q-5 0 -5 -6h11v-6h-11v-5h11v-6h-11q5 -10 5 -16h6v16h5v-22l-11 -5q-11 0 -11 11h6q-6 9 -6 22h-17v-6h12v-16h-6v11h-6v-6q6 -11 6 -16l11 5q6 -17 33 -17v-5h-11v-6h11v-5h-11l6 -11q-20 -6 -22 -6q0 6 -6 6v-6l-11 6h-6l-11 -6q0 6 -5 6q2 -28 16 -28v-6q-12 0 -22 -5
l-5 11h11v17h-6v-12l-11 6q0 -17 -17 -17h-5v-11l11 6h6l11 -6q0 6 5 6v-6q11 6 17 6q11 -6 17 -6v-5q-12 0 -12 -12h-5v17h-6v-11l-11 6v-12h-11l6 12l-11 -6l-28 6q-6 -11 -6 -17h-5v11h-11q-8 0 -17 -17v-5h11l-6 11l12 5h5l-11 -27h11v-6h-17q0 8 -16 17q0 -6 -6 -6v17
h-5v-17h-6v17h-6v-17q6 0 6 -5q-6 0 -6 -6l28 11l11 -16q-5 0 -5 -6q11 6 17 6h11v-6h-17l6 -11v-6l-17 11v-5q5 0 5 -6q-5 0 -5 -5h5q0 5 6 5q0 -6 6 -16h-23v11h-11q2 -11 11 -11q-5 -10 -5 -23h-6q0 23 -11 23h-17v-11l-11 5v-17q11 6 17 6h5v-6h-11v-5h23v-6h-28
q0 6 -6 6v-6h6l-6 -11v-11h11l-11 -17q6 0 6 -5h-11l-6 28h-11l-11 -6v6q2 11 11 11l11 -6l6 11v11h-23l6 12h-6q0 -6 -5 -6q0 6 -6 6l6 -12v-16q-6 0 -17 5h-11v-5q22 0 22 -11v-6l-11 6v-6l-11 6q-11 -2 -11 -11q6 0 6 -6q-6 0 -6 -6q6 0 6 -5h-12v17h-5v-12h-6v17
q6 0 6 6h-6q0 -6 -5 -6q0 6 -6 6q6 -11 6 -17v-6h-6v12h-5v-12q5 -10 5 -16q-20 16 -39 16v-22h-5q0 13 -6 22h6l-6 12v5l11 -5q0 5 6 5v-11l11 6q2 -12 11 -12v6q-11 0 -11 11q6 0 6 6h-6q0 -6 -6 -6q0 11 -11 11v-11h-5q0 13 -6 22q6 0 6 6h-6l6 11v11h-6q0 -12 -5 -22h5
l-5 -11q5 -11 5 -17l-11 6q0 -6 -6 -6v11l6 11h-11l-22 -11q0 11 -11 11h-6q-11 0 -11 -16q5 -11 5 -17l12 6q0 -6 5 -6q0 6 6 6v-12q-28 0 -28 -11v-5l5 -11l-11 -6q0 6 -5 6l5 11v5q0 11 -22 11v6q22 0 22 17v5h-5v-11h-6v11l-16 -11q0 6 -6 6v-6l11 -5q-5 -11 -5 -17h-17
v17l5 11h-5q0 -6 -6 -6v11h-5v-11l-11 6q0 -9 -11 -23h11v12h5q0 -17 17 -17v-6h-11v-5h16v-6h-27l5 11l-11 6l-11 -6q0 11 -11 11v17q28 0 28 17h-11q0 -14 -23 -17q0 6 -5 6q0 -6 -6 -6q0 6 -5 6q0 -6 -6 -6q0 6 -5 6v-6q5 0 5 -5q-11 0 -11 -12q-13 0 -22 39h-17v-5h17
v-22h-6v16h-5q0 -7 -23 -28h6l-11 -27l16 -12v6q-5 0 -5 6h22v5h-22v17h17v-6h-12v-5h17v11h6v-17h5v17q-8 5 -33 5q2 12 11 12q0 -6 6 -6q0 6 5 6q0 -6 6 -6q0 6 5 6l11 -17q-5 0 -5 -6q5 0 5 -5q-5 0 -5 -6q5 0 5 -5l-11 -6v6q-9 -6 -22 -6l6 -11h-6l6 -11v-6l-6 -11
q-11 6 -17 6l-27 -6l22 28l-11 -6l-11 6v-11h-6v16q6 0 6 6q-6 0 -6 6q6 0 6 5l11 -5h5v5h-11v6h17v16h-11l-11 -5l-6 11q6 0 6 6h-6q0 -6 -6 -6q0 6 -5 6v-6q5 0 5 -6h-27q1 12 11 12q0 -6 5 -6v6l-11 5l-11 -17q6 0 6 -5q-11 -2 -11 -11l11 -6v17h16v-6h-11v-5h11v-6h-11
v-5h17v22h5q0 -13 6 -22l-11 -6h-17l-11 6v-6q6 0 6 -6q-6 0 -6 -5q6 0 6 -6q-8 0 -17 -16v-17h11v-6q-19 -5 -22 -5l5 11h-5l5 11v11h-5v-16h-6q0 11 -27 11l5 11q-11 0 -11 11q11 0 11 11q-12 0 -22 6v-6q5 0 5 -6l-11 -5q0 12 -5 22q11 0 11 11h-6v-5l-11 5h-11v-5h17v-6
q-23 0 -23 -11v-6h12l-6 -11q6 0 6 -5q-6 0 -6 -6l-11 6h-6v-6h11v-5q-12 0 -22 -6l-11 17l11 5v-11h6q0 9 11 22q-6 0 -6 6q6 0 6 6h-6l-5 -12q-10 6 -22 6q0 6 5 6q-5 10 -5 16v6h5q0 -11 11 -11l-5 -11h11v11l11 -6v6q-6 0 -6 5q6 0 6 6q-11 -6 -17 -6h-5v6h11v5
q-19 0 -28 6h-6v-6h12l-6 -11v-5l6 -11q-22 -6 -39 -6v-6h33v-16h-6v11h-5q0 -6 -6 -17h6v6q10 -6 22 -6v-5q-25 0 -33 -6q0 6 -6 17q11 0 11 11h-11q0 -11 -11 -11v-6h11v-5q-22 0 -22 -28h-6v22h6q-6 9 -6 28h-5v-22h-17v5q11 0 11 22h11l12 -5l-6 -11v-6h6q0 11 11 11v6
l-34 11v6q23 0 28 16l11 6v-11h22v5q0 7 -38 23q0 27 -12 27h-5q-11 -1 -11 -11v-11q1 -11 11 -11h5l12 6l11 -17l-28 5q-11 -1 -11 -11v-5l5 -11q-5 0 -5 -6q5 0 5 -6q-10 -5 -16 -5v-6h11q0 -11 -11 -11q0 17 -17 17v5q22 0 22 12q-5 0 -5 5q5 0 5 6q-28 0 -28 -28h-5v17
h-6q0 -23 -11 -23l-5 11h11v17h-6l-28 -5q2 11 11 11h23l11 -6l5 11q-21 5 -50 45h-5v5h11v6h-11v5q16 0 16 12q-18 -12 -33 -12v-16q22 0 22 -11t-11 -11v11l-11 -6l-5 28v5l5 12h-5q0 -6 -6 -6q0 6 -6 6v-6l-11 6h-5v-6h11v-6h-17v17q14 0 17 28l-11 5v-5h5
q-16 -32 -16 -45q-6 0 -6 6q-11 -6 -17 -6h-5v6h11v17h-17v-23h-5q0 17 -17 17l6 11h-6q6 11 6 17l11 -6h11v17h5v-22q-5 0 -5 -6h5q0 6 6 6q0 -6 6 -6l-12 39q6 0 6 6h-6q-38 -35 -38 -39h-6v-6h11v-5q-17 0 -17 -17v-6h-5v12h-6v-12h-5v17h11v6h-11v5h16v6h-16v16h16v-5
h-11v-6h17q0 23 28 34v5h-11v6q11 0 11 11h5v-17h6v17h5v-17h6v22h11l11 -5v5l-28 12q-5 -11 -5 -17h-6q0 11 -16 11v6h11v5h-11v6h16q0 -6 6 -6v17h5v-17h6v17h6q11 -19 11 -22h5v16q-8 0 -22 11q0 -5 -6 -5q0 5 -5 5q0 -5 -6 -5q0 5 -5 5v-5q5 0 5 -6h-5l-17 11v-5h6
l-6 -11v-11l6 -12h-6l-11 6v-11h17l-6 -11q0 -6 6 -6q-6 -22 -39 -22v17h11l11 -6q0 6 6 6q-6 10 -6 16h-6v-11h-5v28q-11 0 -11 22h-6v-22q6 0 6 -6q-6 0 -17 -5v5l6 12l-12 -6h-11v17h11l12 -6v11l-17 34l11 5q0 -11 11 -11l-5 -11h5v6l11 -6h6q5 0 5 6l12 -6l11 6
q0 -6 5 -6l6 11q-6 0 -6 6q6 0 6 5h-11v6q6 0 16 5q0 -33 11 -33v6q-5 0 -5 5q11 0 11 11h6v-11h5v11q-5 0 -5 6l11 5v-27h-11v-6h11q0 6 5 6q0 -17 17 -17l-11 -17h5l6 11l28 -11q0 6 5 6v-6l11 6h11l12 -6l5 11h-5v-5q-10 5 -23 5v6h11l-11 28l11 5q0 -6 6 -16h-6
q6 -11 6 -17h6q11 0 11 11v6h-11v5h16v-22h6q5 0 5 5l12 -5h5v11h6q0 -11 11 -11v-6h-11v-5q6 0 16 -6v17h6v-17h5v17h6q0 -22 11 -22h6v5h-11v6h11v5h-11v6q11 0 11 11h5q0 -11 6 -11l-6 -11v-6h11v17h11q-5 -11 -5 -17q5 -11 5 -17l-16 12q-10 -6 -22 -6v-6l27 -5q0 5 6 5
v-5q11 5 17 5q16 0 16 -16h6v5q-6 11 -6 17l28 -11v28q6 0 6 -6l11 6h16l-5 -11q5 0 5 -6h-11v11h-5v-17h16l-5 -11l22 11v-5l11 5l11 -5v22h-16v6h22q0 -6 5 -6v6h-5q5 9 5 22h6v-11h6v11h16q0 -17 -22 -17v-5h17v11l11 -6q0 6 5 6v-17h6v17h5v-22h6v11h6v-11q10 5 16 5v6
h-11v16l11 -5l17 11h17q0 -6 -6 -6q6 -9 6 -22h5v17h6v-22h5q0 11 11 11v5h-11v6h11v5h-11q0 -5 -5 -5l-6 11q13 0 22 6q6 -11 6 -17h6q11 0 11 11v6h-6v-12h-5v17h16v-22h6v22h28q0 -22 11 -22v22h27v-22h6q6 0 6 5l11 -5h5q0 17 11 17q0 -6 6 -6q0 6 5 6q2 -12 12 -12
l-6 -11v-11h6v17h5q0 -22 11 -22h6v5h-11v6h5l22 -6h17v-5h6v16q-17 14 -17 23l-11 -6h-6q0 11 23 11l-6 11q6 0 6 6h-23l6 -11h-6q-9 5 -22 5v6l39 5v6h-11v5q12 0 22 6v-6l-5 -11l11 -5q0 5 5 5q-5 11 -5 17v6h5q0 -15 28 -17v5q-5 0 -5 6l16 11q0 -5 6 -5q0 5 5 5
q0 -5 6 -5q0 5 5 5l12 -17q-6 0 -6 -5q28 0 28 28h11l17 -11q11 0 11 11q-11 0 -11 11h-6v-11h-6v16h12l11 -5v5q0 6 -6 6q6 11 6 17l11 -6v6q-6 0 -6 5q11 0 11 11l11 -5h6v22h6v-17h5v17h6q0 -11 5 -11q-5 -11 -5 -17l-11 6q0 -6 -6 -6q6 -10 6 -22h5v17q11 -2 11 -12
q-5 0 -5 -5q5 0 5 -6q-5 0 -5 -5q9 5 22 5l-6 11q6 0 6 6h-17v6h11v5h-11v11h6q17 -5 17 -33h5v11h6v-17q-17 0 -17 -16h-11l5 11h-5l-11 -17l11 -5q24 27 44 27v17l-27 6v5h11v6q-23 0 -23 11q6 0 6 5q-11 0 -11 11q5 0 5 6h-11v11q23 -5 23 -39q10 6 16 6v5h-11l6 28h5
q0 -6 6 -17h-6l6 -11l-6 -27h11q11 0 11 11q-9 0 -16 27q9 6 28 6v6h-17v5h22q0 -5 6 -5q0 5 5 5v-22h6v11h5v-11h6v11h5v-11h6v11q-10 6 -22 6v5h16v6h-16q0 -6 -6 -6l-5 11q5 0 5 6l11 -6h6l11 6q0 -6 6 -6q-6 11 -6 17h-6v-11h-5q0 12 -6 22h6q17 0 17 -17h5v12
q-11 5 -17 5q6 11 6 17h11l-5 -11q9 5 27 5l-5 11v6l5 11h-11v6h11l-5 11v11h16v-11h6v16h-22v6h16v5h-16q0 -5 -6 -5q0 6 -5 17q11 0 11 11h-11v-11h-6q0 11 -11 11l6 11v5h-6v-11l-11 6q0 -28 28 -28l-6 -11q6 0 6 -6q-23 0 -23 -11v-11h-5v28q5 0 5 5l-11 6q0 -6 -5 -6
v23h-6v-11h-5v11h-6v-11h-5v11h-6v-11q6 0 6 -6l-12 -6q0 12 -11 12h-11v-6h17v-17h-17q0 23 -22 23l6 -12v-11q-23 0 -39 -16q0 5 -6 5q0 -5 -6 -5q0 5 -5 5q0 -5 -6 -5q0 11 -11 11v-6h6q-7 -28 -17 -28l-5 12h11v5h-11q0 -5 -6 -5q-6 9 -6 22h-5q0 -13 -6 -22h6q0 5 5 5
l17 -22v-6l-11 6v-6l6 -11l-12 -5h-5l5 11v22h-22v-6h17v-5h-11v-6h11v-5h-11l5 -11h-5l-11 5h-6v-5h11v-6h-11l6 -11q0 -11 -11 -11q0 17 -17 17v-17h-6v22h-5q0 -19 -6 -28q6 0 6 -5q-6 0 -6 -6q-10 6 -22 6q0 14 22 16v12q-16 0 -16 -17l-23 17v-6q8 0 17 -17q-6 0 -6 -5
h6q-6 -10 -6 -23l-11 6l6 11v17h-6v-11h-5l-17 22h-6v-11q11 -6 17 -6v-5q-6 0 -17 -6v11h-5q0 -16 -22 -16v-6h16q0 -11 -11 -11l-22 11q0 -11 -11 -11q0 5 -6 5v-5q6 0 6 -6h-11v-5q6 0 16 -6v17h6v-22q-6 0 -17 -6v11h-5v-11h-17v6h11v5h-11l-5 -11v-5h22v-6h-28
q0 6 -6 6q0 -6 -5 -6v11h-6v-11q-12 0 -22 6h-5v-6h11v-6l-23 -5l6 11h-6q0 -11 -11 -11l-11 5q-10 -5 -22 -5l6 11l-12 -6h-5l-11 6v-11h-6q0 11 -5 11l-23 -6h-5v6q16 0 16 11h-5q0 -5 -6 -5q0 5 -5 5v-11h-17v6h11v5h-11q0 -5 -5 -5q0 11 -12 11q0 -6 -5 -6q5 -11 5 -17
v-5h-5q0 11 -22 11v6h16v5h-16l11 17h-6q0 -6 -5 -6v11h-11l11 -16q-6 0 -6 -6q6 0 6 -5q-6 0 -6 -6q6 0 6 -6h-11v28h-6q0 -11 -11 -11v-5h11v-6h-17v17h11v5h-11q-10 -5 -16 -5q0 5 -6 5l6 -11v-5q-11 0 -11 22l-12 -6v11q17 0 17 11l-11 6v-6q6 0 6 -5h-6q-11 5 -17 5v6
l23 6v5q-11 0 -39 11l-6 -11q-10 6 -22 6q0 14 22 16v12q-17 0 -17 -17q-8 0 -16 17h11v16h-6v-11h-5q0 6 -6 17l11 5q0 -5 6 -5v5l-17 11l6 12v5h-6v-11h-5v17q5 0 5 5l-11 6q0 -6 -6 -6l6 -11v-11q-11 0 -11 -11h-6v22h-11v-11h-11q0 17 28 17v5h-11v6h11v5h-22l5 -11h-5
q-11 0 -11 11q11 0 11 11q-11 0 -11 12h5l11 -6v6l11 -6h6l-6 11q6 0 6 6h-6v-6q-9 6 -22 6l6 11h-11v5h11l-6 11l11 6v-11h11l-5 11h11v6h-17l-11 -6v6l11 22l11 -6h6v6l-33 11v6h11v5h-11v6h11v5h-11v6h16q6 0 6 -6q8 6 33 6v5h-28q2 11 11 11q0 -5 6 -5q0 5 6 5
q0 -5 5 -5q-5 10 -5 22h-6l-22 -22h-6l11 17h-11v5l28 6h6l11 -6q-11 18 -11 33v6h11v6h-17v11l11 -6q0 6 6 6q0 -6 5 -6v6q-5 0 -5 5h11v17h-11v5h16q0 -5 6 -5q0 5 5 5q2 -11 12 -11h5q11 0 11 11v12q-10 -6 -16 -6h-6v6q7 0 39 27h6q0 -5 5 -5v11q-12 0 -22 5v-5
q5 0 5 -6h-11q0 6 -5 17h16l12 -6v6q-6 0 -6 6h6q9 -6 22 -6v11l-11 -5q-11 5 -17 5v6q11 0 11 11h6v-11h5v16h-11v6h28v-6h-11v-16h5v11h6v-11h5v11q-5 0 -5 5q5 0 5 6q-5 0 -5 6q5 0 5 5l-11 -5h-5q5 9 5 27h6v-16l11 5q0 -22 11 -22h6v6h-11v5q13 0 27 11q0 -5 6 -5
l-6 -11v-12h6v17h5v-11h6v11h6v-11h5v11q-10 6 -22 6v5q14 0 28 11q-6 11 -6 17h-5v-11h-6v11h-6v-17h12v-5h-17v28h17q0 11 -12 11l-5 -11l-28 11q0 -6 -5 -6q0 11 -17 11l5 11h-5q0 -9 -22 -22v-11h-6q0 11 -11 11v6l28 5v6h-11l5 11h-5q-4 -17 -34 -28l-5 11h16v6
q-12 0 -22 5h-5v-5h11v-6q-11 0 -11 -22h-6v17h-6v-23h12l-6 -11q-10 6 -22 6l11 17v11h-6v-17l-16 11v-5q5 0 5 -6q-11 0 -11 -11h-5v11h-6q0 -11 -11 -11v-6h11v-5h-11l-22 11h-6v-6h11v-5h-16v11h-6q0 -17 -11 -17q0 6 -6 6v-6q6 0 6 -5h-22v-17h11v-6q-11 0 -11 -11h-17
v6h11v22q-11 -2 -11 -11l-11 6h-11v-6h16v-6q-11 0 -11 -22h-16v17h5v-11h6v11l-11 5h-6q0 -27 -11 -27h-6l6 11h-6q-5 -9 -5 -28h-6l-11 5v-22h-5v22h-6q0 -31 -6 -38l-11 5h-5v-5h11v-6q-13 0 -22 -6l-6 12q-10 -6 -22 -6v-6h17q0 6 5 6l6 -11v-17l-6 -11h6q0 6 5 6
q0 -17 17 -17l-6 -11q-9 5 -22 5v6h11v6h-11q0 -6 -5 -6q0 6 -6 6l-6 -12v-11h6v17h6q0 -11 11 -11v-11q-6 0 -6 5q-22 -2 -22 -16l-11 5h-6l-11 -5l6 -11v-6l-11 6v-6q11 -2 11 -11q22 0 22 28h5q0 -28 23 -28q0 5 5 5l6 -11q-25 0 -34 -5q0 5 -5 5q2 -27 17 -27
q0 -12 -12 -12q0 6 -5 6v-6q5 0 5 -5q-11 -2 -11 -11v-6h6v11h5v-11h6v22h17v-5q-13 0 -17 -22h-11v-6q12 0 22 -6l-5 -11v-11q1 -11 11 -11q-6 11 -6 17v11h6v-17l11 6v-17l-6 -11l-11 6h-5v-23h-6v23h-6q-11 -2 -11 -12v-5q0 -11 23 -11l-6 -11l11 -6q0 6 6 6v-17l-11 6
v-12h11v-5q-13 0 -23 -6q0 6 -5 6v-11h-22v5h16v6h-16l-6 -11h6q-6 -11 -6 -17h-11v11q-11 -5 -17 -5v-6l28 -5v-6q-17 0 -17 -22h-16v11h-6v-17l6 -11l-11 -6q0 12 -23 12v5h11v6q-18 0 -27 5l-6 -11q0 6 -61 6v5q13 0 22 6q0 -6 6 -6l-6 11q6 17 34 17v6h-28q-6 9 -6 22
h-11l-11 -6v6l6 11q-6 0 -6 6h6l-6 11v205q0 6 6 6l-6 11v17q0 5 6 5l-6 11v100q0 6 6 6l-6 11v133q0 6 6 6l-6 11v67q0 5 6 5l-6 12v16q0 6 6 6l-6 11v17q0 5 6 5l-6 11v22q0 6 6 6l-6 11v17l6 11q-6 0 -6 6h6l-6 11v16q0 6 6 6l-6 11v50zM54 1338l-11 -17h5v6l11 -6h6v6
h-11v5h11v6h-11zM87 1338v-6q13 0 22 -5v5l-11 6h-11zM93 1310l-6 -11h6q0 6 5 6q0 -6 6 -6v6zM259 1232v-5h17l6 11q-10 -6 -23 -6zM198 1232q0 -11 -11 -11v-5h11l6 11v5h-6zM221 1232v-5h11l-6 -11h11v5q0 11 -11 11h-5zM254 1210h5q0 6 6 6v-11h6v11h5v-17h6v17l-11 5
h-6q-11 -2 -11 -11zM337 1221v-5q11 0 11 -11h6v11l-11 5h-6zM243 1216q0 -13 -6 -23l-11 6h-5v-6q11 0 11 -11h5q0 9 11 23v11h-5zM271 1188l-6 -11v-11h6q0 12 5 22h-5zM221 1182l-6 -11l11 -5l6 11zM176 1160h6l-6 -11v-6h6q0 12 11 12v5h-11v6q16 0 16 11
q-22 -9 -22 -17zM315 1177q0 -13 -6 -22h6l6 11v11h-6zM221 1160v-5q11 0 11 -12h5v12l-11 5h-5zM221 1143l-6 -11h6q0 6 5 6q0 -6 6 -6v6zM243 1138q0 -9 -11 -22v-6h22v6h-17l11 16v6h-5zM132 1127v-6q5 0 5 -5h-11v-6h17v6q0 11 -11 11zM165 1127l-6 -11v-6h23q0 6 5 17
h-5q0 -11 -11 -11h-6l6 11h-6zM204 1127l-6 -11v-6h17v6q0 11 -11 11zM1343 1127q6 -11 6 -17h6v11zM221 1116q0 -12 -17 -12v-5h17l5 11v6h-5zM243 1104v-5q6 0 16 -6v6l-11 5h-5zM498 1104v-16h6q0 11 11 11v5h-17zM1260 1104v-5q6 0 6 -6q-8 0 -17 -16h5q0 5 6 5
q0 -5 6 -5v5q-6 0 -6 6h11v5q0 11 -11 11zM215 1093v-5l11 -6l6 11h-6q0 -5 -5 -5q0 5 -6 5zM471 1093v-5q5 0 5 -6h-11v-5h11q0 5 6 5q0 -5 5 -5v5zM1416 1093q0 -6 -6 -16h6q0 5 5 5q0 -5 6 -5q-6 10 -6 16h-5zM348 1088v-6l12 -5h5v5q-6 0 -17 6zM126 1082v-5q6 0 17 -6
v11h-17zM171 1082l11 -16q-6 0 -6 -6h6q0 6 5 6q-5 10 -5 16h-11zM198 1082v-11q11 6 17 6v5h-17zM637 1049v-17q13 0 23 -5h5v5q-11 0 -11 11l-11 -5v11h-6zM93 1043l-6 -11l11 -5v5q-5 0 -5 6q5 0 5 5h-5zM599 1038v-6q29 -5 33 -5v16h-6v-11h-11l6 11q-10 -5 -22 -5z
M1421 1043q0 -6 -5 -16h5l6 11v5h-6zM671 1038v-6q12 0 22 -5v5l-11 6h-11zM1238 1038v-6q12 0 22 -5v5l-11 6h-11zM654 1021v-5h22q0 5 6 5q0 -5 5 -5v5q-5 0 -5 6q-9 -6 -28 -6zM693 1021v-5l11 -6l6 11h-6q0 -5 -5 -5q0 5 -6 5zM587 1016h17v-12q0 -8 -17 -16q0 5 -5 5
q5 10 5 23zM1349 1010v-17h17v17h-6v-11h-5v11h-6zM1371 1010v-22h6v22h-6zM515 1010h6q11 -2 11 -11h-6q-11 0 -11 11zM87 999q6 -10 6 -22h5v16zM476 1004v-16q-11 0 -11 11zM610 1004h5v-16h-16v5q11 0 11 11zM671 999v-6h22v6h-22zM726 999q6 -10 6 -22h6v16zM749 999
v-6q16 0 16 -16h6v16l-11 6h-11zM1310 999v-6h22v6h-22zM360 993v-5q5 0 5 -6q-5 0 -5 -5h5l6 11zM699 993l-6 -11l11 -5v5q-5 0 -5 6q5 0 5 5h-5zM882 993l-6 -11l12 -5v5q-6 0 -6 6q6 0 6 5h-6zM743 988v-11l11 -6h6v6q-11 0 -11 11h-6zM1355 977l-6 -11v-6h17v6h-11l5 11
h-5zM1321 966v-6l17 -11v5zM615 960l-11 -17h6l11 17h-6zM287 954v-5l11 -6h6v6q-6 0 -17 5zM343 949h5q0 -11 12 -11v-6h-17v17zM593 943q0 -11 -17 -11v-5h17l6 11v5h-6zM615 932v-5q11 0 11 -12h6v17h-17zM654 932l-5 -11q10 6 16 6v5h-11zM921 932v-17h5q12 0 12 12
l-12 5h-5zM560 915v-16h16v11l-11 -6v11h-5zM599 904l-6 -11q11 6 17 6v5h-11zM643 904q-6 -8 -6 -33h-27l11 17v5h-6v-11h-5v11h-6v-11q6 0 6 -5q-6 0 -6 -6q6 0 6 -6q-6 0 -6 -5q11 5 17 5h16v-5h-22v-17h11v-5h-16v16q-11 -1 -11 -11l-12 6h-11v-6h17v-5h-11v-11l22 16
l11 -16q-11 0 -28 -28h-5v-17h5v11h6v-11l11 6h11v-11h6v11q-6 0 -6 5h11v6q-12 0 -22 5v-5q6 0 6 -6h-17q17 22 17 28h5v-17h6v17q-6 0 -6 6l17 11q0 -6 5 -6q0 6 6 6q0 -6 6 -6q0 6 5 6v-11q-28 0 -28 -12v-11h6v17h5v-17l-11 -22v-11h6q0 14 17 28l11 -6h5v6h-11v11h11v5
h-16v-16h-6v22q3 0 22 6q0 -6 6 -6v6l11 -6h5v6h-11v11l11 -6q-2 22 -16 22v6q3 0 22 5h17v-5h-23v-6q12 0 12 -11h5v11h6v-11h5v11q-5 0 -5 6l11 5l5 -11q-5 0 -5 -5q5 0 5 -6q-11 -2 -11 -11h6l11 17q-6 0 -6 5h17v6h-17v5h23v6q0 11 -11 11h-6v-5h11v-6q-12 0 -22 -6
q0 12 -11 12l5 11v5h-5v-11h-6v11h-5q0 -6 -6 -16h17v-6q-28 0 -28 -6l-11 6h-28v28h6v-22h5v22zM487 904v-16q-11 0 -11 11zM504 904h6v-22q-12 0 -12 -11l-11 6q6 9 6 22l11 -6v11zM554 882l6 -11v-11h-17v-6h17l5 11v6q0 11 -11 11zM593 882q0 -11 -11 -11v-6h11v-5h-17
v-6h17l6 11v17h-6zM993 882l-5 -11v-6q1 -11 11 -11h5q11 0 11 11v12h-5v-17h-17v5h11v6h-11l6 11h-6zM765 877v-12h17v6q-6 0 -17 6zM1432 877l-5 -12l11 -5l5 11zM198 849v-6h6v11h5v-11h6v11h6v-11h5v11l-11 6h-6q-11 -2 -11 -11zM1027 860v-6h22v6h-22zM1371 860v-17h6
q0 6 5 17h-11zM487 854v-5h6l-17 -34v-5h6q11 22 11 33h5v-22h6q0 19 6 28h-6q0 -6 -6 -6q0 11 -11 11zM754 854q0 -5 -5 -5q5 -9 5 -28h6q0 19 5 28zM788 854l-6 -11l11 -5v5q-5 0 -5 6q5 0 5 5h-5zM977 854v-5q11 0 11 -28h5q0 19 6 28h-6q0 -6 -5 -6q0 11 -11 11z
M515 849q6 -9 6 -28h11l-6 11v6l6 11h-6q0 -6 -5 -6q0 6 -6 6zM565 849l-5 -11v-17h16v6h-11v11l6 11h-6zM665 854h6v-16h-17v5q11 0 11 11zM1004 849v-6q6 0 6 -5q11 5 17 5v6h-12q0 -6 -5 -6q0 6 -6 6zM1349 843l-6 -11h6q0 6 6 6q0 -6 5 -6v6zM237 843h28v-16h-6
q0 11 -22 11v5zM543 838q0 -6 -6 -17h6l11 17h-11zM1060 838q0 -6 -6 -17h11v17h-5zM693 827q6 -10 6 -23h5v17h6v-11h5q0 11 11 11v6h-11q0 -6 -5 -6q0 6 -6 6q0 -6 -5 -6q0 6 -6 6zM582 821l-6 -11l11 -6v6q-5 0 -5 5q5 0 5 6h-5zM1071 821l-6 -11l12 -6l5 11zM437 821h17
v-6q-11 0 -11 -11h-6v17zM504 815v-5l11 -6l6 11h-6q0 -5 -5 -5q0 5 -6 5zM993 815v-5l11 -6l6 11h-6q0 -5 -5 -5q0 5 -6 5zM1032 815v-11h6q11 0 11 11h-6q0 -5 -5 -5q0 5 -6 5zM510 799v-6q6 0 16 -5v16q-10 -5 -16 -5zM543 799v-6h11q0 6 6 6v-11h16v16h-5zM1432 804v-5
q6 0 6 -6q-6 0 -6 -5h11v5q0 11 -11 11zM532 799v-11q5 0 5 -6q-11 -2 -11 -11h6q0 11 17 11v6q-12 0 -12 11h-5zM804 799v-11l11 -6h6v17h-6v-11h-5v11h-6zM1049 799v-11h16v11l-11 -6q0 6 -5 6zM1010 793v-11q11 6 17 6v5h-17zM182 788h16v-17h-5q0 11 -11 11v6zM215 788
h17v-6q-11 0 -11 -11h-6v17zM565 782v-11l-11 6q0 -23 -17 -23h-5l-11 6v-11q18 0 28 -6v6q-6 0 -6 5l17 11v-16h16l-5 33h-6zM593 771q0 6 -6 6v-6l12 -6l-6 -11v-5q19 0 28 -6v6q-10 5 -22 5l11 17v11zM871 782v-17l-11 6l-11 -17h5q2 11 11 11q0 -5 6 -5q0 5 5 5
q0 -5 6 -5q-6 10 -6 22h-5zM1010 771q0 6 -6 6v-6l11 -6l-5 -11v-5h17v5h-12v6h12v5h-12v6h12v11zM159 777v-12l12 -5q-6 11 -6 17h-6zM504 777l-28 -34q6 0 6 -5q-6 0 -6 -6q6 0 6 -5q-6 0 -6 -6h6q0 6 5 6q0 -12 11 -12l-5 -11h5q0 6 6 6q0 -6 6 -6l-28 34h16v5h-16v6h22
v5l-6 11q12 0 12 12h-6zM576 777v-6q6 -11 6 -17h5v6q-5 11 -5 17h-6zM788 771v-6h11l5 12q-11 -6 -16 -6zM821 777v-6l11 -6l6 12h-6q0 -6 -6 -6q0 6 -5 6zM1054 777q0 -6 -5 -17h11v-6h-11v-5h16l-5 28h-6zM1077 777v-6l11 -6l-6 -11v-5h22v-6h-16q0 -16 16 -16v-6
l-33 -11v-6h11q0 10 28 17q0 -6 5 -6v6q-11 0 -11 11q6 0 6 6q-6 0 -6 5l11 6v-17h6q0 17 17 17v5h-17q0 -5 -6 -5q0 5 -5 5v-5q-10 5 -22 5l5 11zM804 765q0 -22 -11 -22h-5v-5h11q22 8 22 16v11h-6v-16h-5v16h-6zM838 765v-11l-12 6v-11h12v-6h-17v-5h17l5 11v16h-5z
M109 754v-5q13 0 23 -6v6l-12 5h-11zM876 754q6 -9 6 -22h6v17q11 -2 11 -11q-6 0 -6 -6q6 0 6 -5q-11 -2 -11 -12h5q0 12 17 12v5h-11v6h11v5q-9 0 -22 11q0 -5 -6 -5q0 5 -6 5zM93 749l-6 -11l11 -6v6q-5 0 -5 5q5 0 5 6h-5zM582 749l-6 -11q6 0 6 -6q-13 0 -22 -5
q0 5 -6 5q7 -28 17 -28v6q-6 0 -6 5h11v6h-11v6h17v-23h5q14 11 23 11v6h-17v-11h-6q0 12 -5 22q5 0 5 6q-5 0 -5 5q5 0 5 6h-5zM1015 743v-5h17l6 11q-10 -6 -23 -6zM1071 749l-6 -11q6 0 6 -6l-11 -5q0 5 -6 5v-5q6 0 6 -6h-11v-6h16q0 10 17 28zM159 743q0 -11 -11 -11
v-5h17v16h-6zM176 743v-5h22v-6h-11v-5h17v16h-28zM226 749h17l5 -11q-5 0 -5 -6q5 0 5 -5q-10 -6 -16 -6h-6v6h11v16h-11v6zM443 743v-5h11v-6h-11v-5h17v16h-17zM515 743v-5h22v5h-22zM860 743v-16h16v16h-16zM1127 743v-16h5q0 5 6 16h-11zM1349 743v-16h17v5h-11v6h11v5
h-17zM543 738q0 -6 -6 -6q6 -9 6 -28h11l-5 11q5 0 5 6q-11 0 -11 11q6 0 6 6h-6zM826 732v-5q12 0 12 -12h5v12l-11 5h-6zM109 721l-5 -11q10 5 22 5v6h-17zM248 727h6q0 -12 11 -12v-5h-17v17zM448 721v-6q13 0 23 -5v5l-11 6h-12zM521 721q0 -6 -6 -17h6q0 11 16 11v6
h-16zM1010 721v-11q11 5 17 5v6h-17zM849 715v-5q11 0 11 -17h5v11zM165 710l-6 -11v-6h6q0 6 6 17h-6zM182 710l5 -11v-6l-11 6v-6q6 0 6 -5h-17v-6h17l-6 -11h6l-6 -11q0 -8 17 -17v6q-6 0 -6 5q6 0 6 6h-6q0 -6 -5 -6v11h11v6h-11v5q16 0 16 12l-11 -6h-5l11 17
q0 11 -11 11zM421 715h5q0 -11 -11 -11h-5q1 11 11 11zM1143 710l-5 -11v-6h5q0 11 11 11v6h-11zM826 704l-5 -11h5q0 6 6 6l6 -11q10 5 16 5v6h-11q0 -6 -5 -6q0 11 -12 11zM1054 704v-11l11 -5l6 11h-6q0 -6 -5 -6v11h-6zM226 704h6v-11h5v11h11q-5 -11 -5 -16h-17v16z
M365 704h6v-16h-17v5q11 0 11 11zM554 699l6 -11v-6l-6 -11q6 0 6 -6h-17v-5q17 0 17 -11v-17l-6 -11l11 -6q0 6 6 6l-6 11v6q0 12 6 22q-8 39 -17 39zM521 688q0 -19 -17 -34q22 9 22 17v17h-5zM537 688l-5 -12q5 0 5 -5q-5 0 -5 -6q11 6 17 6v5h-12v6h17v6h-17zM571 688
v-17h5v11h6v-11h5v17h-16zM804 688v-17h17v17h-17zM1071 688v-6q11 0 11 -11h6v11l-11 6h-6zM1254 676h6q0 6 6 6v-11h5v17h-5q-12 -2 -12 -12zM209 676v-11l-11 6v-17l11 6q0 -6 6 -6v22h-6zM237 682h6q0 -6 5 -17h-11v17zM1060 671l-6 -11v-6h6q0 6 5 17h-5zM1093 671v-22
l11 5q0 -5 6 -5v5q-6 0 -6 6q6 0 6 5h-6q0 -5 -5 -5v11h-6zM1127 671v-22h5v22h-5zM1027 654l11 6l11 -6v6l-11 5q-11 -1 -11 -11zM1065 654h6q0 6 6 6q0 -6 5 -6v11h-5q-12 -1 -12 -11zM1221 665l-5 -11h5q0 6 6 6q0 -6 5 -6v6zM82 649v-11l11 -6h5q11 0 11 11v6h-5v-11h-6
v11h-5v-11h-6v11h-5zM271 654h5v-22h-5v22zM498 649v-11l28 -12v6h-5l5 11v6h-5v-11h-6v11h-5v-11h-6v11h-6zM582 649v-17h5q12 0 12 11v6h-6v-11h-6v11h-5zM804 649v-17h17v17h-6v-11h-5v11h-6zM1082 649q0 -11 -11 -11v-6h11l6 11v6h-6zM126 638v-28h11l-5 11v5l5 12h-11z
M165 638l-6 -12v-5h6q0 11 11 11v6h-11zM460 638l-6 -12v-11h6q0 13 5 23h-5zM615 638v-6h11v-17h-11v-5h22q0 -6 -5 -6q5 -9 5 -28h6q0 19 6 28l-12 6q6 9 6 22h6q0 -22 11 -22h11v5h-17v6h11v5h-11v6h11v6h-11q0 -6 -5 -6q0 6 -6 6q-6 -10 -6 -23h-5q0 23 -11 23h-6z
M849 638v-6q6 0 16 -6v6l-11 6h-5zM876 638l-5 -12v-11h5q0 17 12 17v6h-12zM1104 638v-6h11v-17h-11v-5h17q11 0 11 11v5q0 12 -11 12h-17zM1343 638l6 -12v-11h-17v-5h17l6 11v5q0 12 -12 12zM1366 638l-6 -12v-5q2 -11 11 -11h17v5h-11l5 11h-11v-11h-5v17h22v6h-22z
M171 626v-5h11v-6h-17v-5h11q11 5 17 5v6l-6 11q-11 -6 -16 -6zM1060 632l-6 -11l11 -6v6q-5 0 -5 5q5 0 5 6h-5zM226 632h6q0 -13 5 -22l-11 -6q0 6 -5 6q5 9 5 22zM276 632h11q-5 -11 -5 -17h-6v17zM710 626q0 -11 -17 -11v-5h17l5 11v5h-5zM87 615q6 -10 6 -16h5v11
l11 -6v6l-11 5h-11zM504 615l-6 -11v-5h6q0 11 11 11v5h-11zM571 615v-5q11 0 11 -11h5v11h6v-11h6v11l-12 5h-16zM732 615v-16h6v11h5v-17q-5 0 -5 -5h5q0 5 6 5q0 -5 5 -5q0 5 6 5q0 -5 5 -5q-5 9 -5 22h-6v-17h-5v22h-17zM765 615v-16h6q0 11 11 11v5h-17zM804 615v-16h6
v11h5v-11h6v16h-17zM999 615v-5q11 0 11 -11h5v11l-11 5h-5zM1071 615v-5q11 0 11 -11h6v11l-11 5h-6zM1210 621l6 -11l-12 -6l-5 11zM115 610v-6q5 0 5 -5q-5 0 -5 -6h5l6 11zM187 610v-6q6 0 6 -5q-17 0 -17 -11q2 -12 11 -12h6q0 19 5 28zM487 610q0 -14 -11 -28v-6h6
q0 9 11 23v11h-6zM604 610v-6q6 0 6 -5q-6 0 -6 -6h6l5 11zM788 610v-22h5q0 5 6 16zM243 610v-11h5v11h6v-17q-11 0 -11 -11h-6q0 12 -5 22zM309 610h6q0 -11 11 -11v-6h-17v17zM387 610h23v-11q-10 5 -23 5v6zM1143 610h17v-17h-11l5 11h-5q0 -5 -6 -5v11zM1216 610h5
q0 -11 11 -11v-6h-16v17zM1271 610h6v-22q0 -8 -17 -17v5q6 11 6 17q-6 0 -6 6q11 0 11 11zM1332 604l-11 -16h6q0 5 5 5q2 -11 11 -11v11h-11v6h11v5h-11zM1427 604v-5l11 -6l5 11h-5q0 -5 -6 -5q0 5 -5 5zM354 599h17v-17h-6q0 11 -11 11v6zM1115 599v-23l-5 -11
q-10 6 -22 6v5q11 0 11 12h5v-12h6v12q-6 0 -6 5zM1132 599h11q-5 -11 -5 -17h-6v17zM259 593q0 -5 6 -5v5q9 -5 28 -5v-12l-11 6v-6q-9 6 -34 6q2 11 11 11zM332 593l5 -11h-16q1 11 11 11zM354 593l6 -11h-17q2 11 11 11zM1232 593l11 -5h6l11 5v-11h-33zM87 582
q6 -10 6 -22h5v16zM1015 582l-5 -11v-6q2 -11 11 -11h6v6h-12v5h12v6h-12v5h12v6h-12zM1299 582l5 -11v-6l-11 6v-6l11 -5h6v16h6q0 -22 11 -22v-5h-11v-6q5 0 16 -5v5h-5l5 11v6h-11l6 11q-6 0 -6 5h11v6h-16l-12 -6q0 6 -5 6zM104 576v-5l28 -11v5zM593 576v-11
q19 0 28 -5v5zM977 571v-6q5 0 16 -5v16q-11 -5 -16 -5zM248 576h17v-5q-6 0 -17 -6v11zM521 571v-17h5q0 11 11 11v6h-16zM560 571v-17h11l-6 11h11v6h-16zM632 571l-6 -11q10 5 23 5v6h-17zM804 571v-11h17v11l-11 -6q0 6 -6 6zM237 571q0 -11 17 -11v-6h-11l5 -11h-11v17
h-16v-22l11 5h5q0 -11 -22 -11l6 -11h-12q0 50 28 50zM143 560l-6 -11v-6h6q0 11 11 11v6h-11zM115 549v-6q6 0 17 -5v16q-11 -5 -17 -5zM649 554v-11l11 -5q-6 10 -6 16h-5zM26 554h22v-5h-22v5zM1277 549v-6q6 0 16 -5v11h-16zM510 543v-22h5v22h-5zM32 543h5
q11 -2 11 -11l-11 -6q0 6 -5 17zM137 538l-5 -12h5q0 6 6 6q0 -6 5 -6v6zM176 543h17q11 -2 11 -11v-11h-11l5 11l-11 6q0 -6 -5 -6zM371 543h5q11 -2 11 -11v-6q-8 0 -16 17zM1099 543q11 -5 16 -5v-6h-16v11zM1210 543h6q0 -11 -12 -11h-5q2 11 11 11zM70 532v-11l-11 5
v-5l11 -6v6l12 -6h5v6q-11 0 -11 11h-6zM354 538h6q0 -6 5 -17h-11v17zM604 532v-6q6 0 17 -5l5 11h-5v-6l-11 6h-6zM1043 538h17v-6q-11 0 -11 -11h-6v17zM182 532v-6q-6 -9 -6 -22h-11v11q0 8 17 17zM232 532q11 0 11 -17v-5h-6zM637 521v-17h17v17h-5v-11h-6v11h-6z
M365 521q11 -6 17 -6v-5h-17v11zM426 521v-11h-16v5q5 0 16 6zM1221 521v-11h-17v5q6 0 17 6zM1443 521v-17q-10 6 -16 6v5q6 0 16 6zM1271 510l-5 -11v-6l5 -11q-5 0 -5 -6h5q0 6 6 6l-6 11v11h22v6h-22zM26 504h6q0 -33 38 -33q0 -6 -5 -6l5 -11v-11q-18 0 -27 -6
q0 12 -11 12q0 -6 -6 -6v22q0 6 6 6q-6 11 -6 16v17zM59 504h23v-5h-12v-17h12v-6h-28v6h11v5q-17 0 -17 12zM87 504h6v-28l-11 6q5 10 5 22zM98 504q11 -2 11 -11l-11 -6v17zM476 504h22v-5q-12 0 -22 -6v11zM515 504h22v-5h-16v-17h16v-6h-11l6 -11q-11 0 -11 -5
q-11 5 -17 5q-11 -5 -17 -5q0 8 17 16q0 -5 6 -5q0 5 5 5q0 -5 6 -5l-6 11v22zM560 499v-17h11l-6 11h11v6h-16zM599 499v-6q12 0 22 -6v6l-11 6h-11zM1421 504h17v-5h-11v-6h11v-6q-6 0 -17 -5v22zM354 499h11l-5 -12q5 0 5 -5l-11 -6v23zM993 499h6v-23h-6v23zM1221 493
l-5 -11q5 0 5 -6h-22v-5h22q0 5 6 5q0 -5 5 -5v5q-11 0 -11 11q6 0 6 6h-6zM120 493h6v-28h-6q0 11 -11 11v6q11 0 11 11zM482 493h5q0 -11 11 -11v-6h-16v17zM932 493h22v-6h-16l5 -11h-11v17zM971 493h6q0 -11 11 -11v-6h-17v17zM1027 493h5v-17h-17v6q12 0 12 11z
M1043 493h6q0 -6 5 -17h-11v17zM1065 493h6v-17h-11q5 11 5 17zM1088 493h16v-17h-5q0 11 -11 11v6zM1321 493h6v-11h5v11l11 -6l-5 -11v-5h5v11h6v-22q-21 16 -39 16v6q11 0 11 11zM1343 493h28q0 -11 -11 -11q0 5 -5 5q0 -5 -6 -5zM365 482h6v-22h-6v22zM888 482h11
q-6 -11 -6 -17h-5v17zM1388 482h28l-6 -11q6 0 6 -6h-11q0 11 -17 11v6zM1427 482h16v-17h-5v11h-6v-11h-5v17zM87 476q6 -10 6 -16v-17h-6q0 22 -11 22q2 11 11 11zM921 476v-5q0 -11 -11 -11h-6q0 8 17 16zM993 476l6 -11l-22 -5q0 8 16 16zM48 465l-5 -11v-5h5q0 5 6 16
h-6zM98 471h11q11 -2 11 -11l-11 -6v11h-5v-11h-6v17zM1004 471h17l6 -11h-6q-11 5 -17 5v6zM1082 471h6q11 -2 11 -11l-11 -6q0 6 -6 17zM1221 465v-5q11 0 11 -11h6v11l-11 5h-6zM1243 465v-22h6v22h-6zM1260 465l-6 -11v-5h12l-6 -12h11v17h-11v6h11v5h-11zM1004 460h6
v-17h-11q5 11 5 17zM1027 460h11l-6 -11h11v-6h-16v17zM1065 460h6q0 -11 11 -11v-6h-17v17zM977 454v-11h-17v6q6 0 17 5zM1288 454q11 -5 16 -5v-6h-16v11zM1321 454q9 -5 28 -5v-6q-13 0 -22 -6l-6 12v5zM876 449h23v-6h-23v6zM1104 443v-17h17v17h-6v-11h-5v11h-6z
M1377 449h11q11 -6 17 -6v-6h-12q-10 6 -16 6v6zM1060 443h5v-17h-16v6q11 0 11 11zM1210 437v-5q6 0 6 -6q-6 0 -6 -5l11 5h11v-16h6v22q-19 0 -28 5zM109 432h11q-5 -11 -5 -17h-6v17zM1399 432q0 -11 -17 -11h-16v5zM771 426h17v-11q-11 6 -17 6v5zM1027 426h22v-16h-6
v11h-11v-11h-5v16zM1188 421l-11 -22h5q0 5 6 5v-5l-6 -12h11q11 0 11 12v5h-5v-11h-6v17q6 0 6 5zM1110 415l-6 -28h17v17q0 11 -11 11zM1238 404v-5l11 -6l-6 -11v-6q2 -11 11 -11v6l12 -6h5v11l11 -5h6v5q0 11 -11 11q0 -5 -6 -5v11h-11l6 -11q-12 0 -12 -11h-5v16
q5 0 5 6zM109 399l11 -6l-5 -11v-6l5 -11q-11 -2 -11 -11l-11 6h-5l-11 -6l-6 11h33v34zM988 393v-28h16q11 0 11 11v6q0 11 -11 11h-16zM1065 393l-5 -11v-6q2 -11 11 -11h11v6h-17v16h23v6h-23zM1221 393v-6h11v-5h-11v-6h11v-5h-11v-6h11l6 11v17h-17zM1127 387l-6 -11
l11 -5l6 11zM1166 387l-6 -11l11 -5v5q-5 0 -5 6q5 0 5 5h-5zM37 387h6q0 -11 22 -11v-5h-17v-6h22v-5q-27 0 -27 -23h-6v17q6 0 6 6h-6q0 -6 -5 -6l-6 11l11 6q0 -6 6 -6q-6 11 -6 17v5zM48 387h22v-11q-9 6 -22 6v5zM120 387h28v-5h-28v5zM259 387h6q0 -12 6 -22l-12 -5
q0 5 -5 5q5 10 5 22zM771 387h17v-16h-17v5h11v6h-11v5zM993 387h17v-16h-17v16zM954 349h-5v16h-6q0 -12 -5 -22h5q0 6 6 6q0 -6 5 -6q17 14 17 22l17 -11v6q-11 0 -11 11q5 0 5 5q-28 0 -28 -27zM1021 376v-5q6 0 6 -6q-6 0 -6 -5q9 5 28 5v6q-19 0 -28 5zM120 376h28v-5
h-28v5zM376 376h6v-27l-11 5q5 10 5 22zM498 376q0 -11 12 -11v-5h-17l-6 11zM599 376q11 -1 11 -11l-17 -11l-6 11q12 0 12 11zM865 376h6v-27l-11 5q5 10 5 22zM1104 360v-6h17v17h-6q-11 -2 -11 -11zM1149 371q0 -6 -6 -17h11q0 6 6 17h-11zM1182 371q6 -11 6 -17h5v17
h-11zM1310 376q11 -1 11 -11l-17 -11v6q6 10 6 16zM832 371l6 -11q-6 0 -6 -6q-11 6 -17 6v5q6 0 17 6zM271 365h22v-5h-22v5zM610 365h5q0 -11 11 -11v-5h-16v16zM682 365h5q0 -11 12 -11v-5h-17v16zM876 365h6q0 -11 17 -11v-5q-6 0 -17 -6q-6 11 -6 17v5zM993 360v-6
q17 0 17 -17v-5h5q0 11 12 11v6q-9 0 -23 11h-11zM1065 360v-6q14 0 28 -11l6 11h-6q0 -5 -5 -5q0 11 -11 11h-12zM1216 360l-12 -17h6q0 11 22 11v6h-16zM1388 365q11 -2 11 -11q-11 -5 -17 -5h-5v5q11 0 11 11zM26 354h6q0 -22 11 -22v-6h-17v28zM54 354h16v-11l-5 -11h5
q2 11 12 11v-11h5v22h6v-28q-6 0 -6 -5l11 -6q0 6 6 6q0 -13 5 -23q-5 0 -5 -5l11 5h5l-5 -11h5q0 6 6 6v-11h6v11h16v-17h-5v11h-6v-11h6q-6 -5 -6 -44h-5v28l-12 -6h-22v17h6v-11h5q0 11 11 11v5q-5 0 -16 6q0 -6 -6 -6v34h-5q0 -34 -23 -34v6q0 11 17 11v22h-5v-11h-6
q0 6 -6 17h12v5h-34q0 6 6 6l-6 11v6l11 -6h6v6h-11v5zM237 354h28v-17h-6v12h-5v-12q-8 0 -17 17zM271 354h5q0 -22 11 -22h6v-11l-11 5v-5q-10 5 -23 5v6q12 0 12 22zM282 354q11 -2 11 -11l-11 -6v17zM343 354h11q11 -2 11 -11l-11 -6v12h-6v-12h-5v17zM471 354h16v-17
h-5q0 12 -11 12v5zM576 354h17v-5q-11 0 -11 -12h-6v17zM654 354h22q-5 -11 -5 -17h-6q0 12 -11 12v5zM765 349v-12l11 -5h6v5q-11 0 -11 12h-6zM804 349v-6q6 -10 6 -22l-11 5h-17v-5l33 -6q0 4 6 34l-11 -6q0 6 -6 6zM832 354h28q0 -8 -17 -17v12h-5v-12h-6v17zM965 349
q0 -12 -11 -12v-5q17 0 17 -11q-6 0 -6 -6q10 6 23 6v5h-17q0 6 6 6q-6 11 -6 17h-6zM977 349v-6q11 0 11 -11h5v17h-16zM1049 349v-6q6 0 16 -6v12h-16zM1143 349v-6q11 -2 11 -11q-5 0 -5 -6q5 0 5 -5q-5 0 -5 -6h5l6 11q-6 0 -6 6q6 0 6 5zM1182 349v-6q6 0 6 -6
q-6 0 -6 -5l11 -6l6 11q-6 0 -6 6q6 0 6 6h-6q0 -6 -5 -6q0 6 -6 6zM1249 354h11q11 -2 11 -11h-5l-12 6v-12h-5v17zM1288 354h16v-5h-11v-17h11l-5 -11q-11 5 -17 5l-28 -5q17 14 17 22h6v-11h11v22zM1321 354h17v-17h-6v12h-5v-12h-6v17zM626 349l11 -6h6l11 6v-12
q-18 0 -28 -5l-5 11q5 0 5 6zM910 349q11 -19 11 -28q-10 5 -22 5v6h11v5h-11q0 -5 -6 -5l-5 11q2 0 22 6zM1349 349q10 -6 22 -6v-6q-22 0 -22 -11h-6v17q6 0 6 6zM98 343h6v-11h5v11q11 -2 11 -11l-11 -6h-11v17zM154 337q5 -9 5 -27h6v27h-11zM454 343h11l11 -28l11 6h11
v-17h-11l-11 6q0 -6 -5 -6v6l-11 -6h-6l6 11v17zM493 343h5q0 -11 12 -11v-6h-17v17zM860 337v-5h11v-6h-11v-5q11 0 11 -11h5v16q0 11 -11 11h-5zM1099 337v-5l11 -6q0 6 5 6v-17h6v17l-11 5q0 -5 -6 -5q0 5 -5 5zM1171 337l-5 -11v-16h11l-6 11h11v5h-11l6 11h-6z
M1310 343h6q0 -11 11 -11v-6h-17v17zM515 337q11 -5 17 -5v-6h-17v11zM549 337l11 -5q5 0 5 5q11 -5 17 -5v-6q-17 0 -39 -5q6 10 6 16zM999 332l-6 -11q6 0 6 -6l11 6h17l11 -6v6zM1071 332l-6 -11l12 -6l5 11zM1127 332v-22h5q0 11 11 11v5q-6 0 -16 6zM1399 337
q11 -5 17 -5v-6h-28v6q11 0 11 5zM671 326v-5h22v5h-22zM749 326v-5q12 0 22 -6l5 11h-5v-5l-11 5h-11zM1427 332h16v-17h-16v6h11v5h-11v6zM54 321l11 -6q-6 -11 -6 -17h-11q6 10 6 23zM265 315v-11l-11 6v-12h-6v12h-5v-17q6 0 16 -6v6q-5 0 -5 5h5l12 -5v22h-6zM337 315
v-22q11 5 17 5v12l-11 -6v11h-6zM593 315v-22q28 7 28 17l-11 -6h-11v11h-6zM754 315v-11l-11 6v-12h17v17h-6zM988 315q0 -11 -11 -11v-6q5 0 16 -5v22h-5zM1010 315v-22q11 5 17 5v6q-12 0 -12 11h-5zM1054 315v-5q6 0 6 -6h-11v-6h16v6q0 11 -11 11zM287 310v-6q6 0 6 -6
q-6 0 -6 -5l11 -6v6q-5 0 -5 5h16v6q-12 0 -22 6zM360 310v-6q5 0 5 -6q-5 0 -5 -5l11 5h22v-22h5q0 19 6 28q-6 0 -6 6l-11 -6h-16zM543 315h6q11 -2 11 -11v-6q-8 0 -17 17zM626 310v-6l11 -6h12v6q-13 0 -23 6zM699 310l-6 -12q6 -9 6 -22h5v11q-5 11 -5 17l27 -11v5z
M804 310v-6q2 -11 11 -11l6 11v6h-17zM882 310l-6 -12h6q0 6 6 6q0 -6 5 -6v6zM893 287l6 -11q-6 0 -6 -5l11 5q6 0 6 -5q11 5 16 5v11l-11 17h6l11 -6v12q-30 0 -39 -23zM938 304v-6h16l6 12q-10 -6 -22 -6zM1104 310v-6l11 -6v6l28 -11v5l-28 12q0 -6 -5 -6q0 6 -6 6z
M671 304l-6 -11q10 5 22 5v6h-16zM1088 304l-6 -11q11 5 17 5v6h-11zM454 293q0 -13 -6 -22h6q0 5 6 5q5 -11 5 -16h6v11h-6l6 11v5h-6v-11h-5v17h-6zM637 293v-22h6q11 0 11 11v5h-5v-11h-6v17h-6zM871 293v-17l-11 6q0 -6 -6 -6v11h-5v-11q5 0 5 -5q-5 0 -5 -6h5
q2 11 11 11q0 -5 6 -5q0 5 5 5q2 -11 12 -11v6h-6l6 11v11h-6v-17h-6v17h-5zM910 298q11 -1 11 -11q0 -11 -11 -11v11l-11 -5v5q1 11 11 11zM1199 298h5l12 -5q0 5 5 5v-5q0 -11 -11 -11zM1238 298l22 -16q-6 -11 -6 -17h-5q0 22 -11 22v-5q5 0 5 -6q-11 0 -11 -11
q-11 0 -11 11q11 0 11 11q-5 0 -5 6q11 0 11 5zM1271 298q11 -5 17 -5v-11l-11 5l-11 -5l-6 11q11 0 11 5zM1316 298v-5q0 -11 -12 -11v5q2 11 12 11zM1349 298v-22h-6q0 11 -11 11v6q6 0 17 5zM232 287q0 -11 -11 -11v-5h11q0 5 5 5q6 -9 6 -22h5v17q-11 0 -11 16h-5z
M360 287v-11q5 0 5 -5q-5 0 -5 -6h5l6 11l11 -5h5v5q-6 0 -16 6q0 -6 -6 -6v11h-5zM543 287l-22 -22v-5h5q0 7 23 27h-6zM810 287q0 -6 -6 -16v-6h6q0 6 5 17v5h-5zM943 287q0 -6 -5 -16h5l6 11v5h-6zM1388 293h5v-17h-11q6 11 6 17zM287 282v-6h6l-6 -11q6 -11 6 -17h16
l12 6q0 -6 5 -6v6l11 -6h6q11 0 11 12l-11 -6h-6l-11 6q0 -6 -5 -6q0 22 -12 22l6 -11v-11h-17l6 11h-6q0 -5 -5 -5v11h11v5q-6 0 -17 6zM554 282q6 -10 6 -22h5q0 5 6 16q-6 0 -17 6zM1082 282v-6h6l-6 -11v-5h6q0 11 11 11v5q-6 0 -17 6zM487 276v-5q11 0 11 -11h6v11
l-11 5h-6zM599 276l-6 -11v-5h6q0 11 11 11v5h-11zM977 276v-5q11 0 11 -11h5v11l-11 5h-5zM1015 276l-5 -11v-5h5q0 11 12 11v5h-12zM1049 276v-5q11 0 11 -11h5v16h-16zM1327 282h5q11 -2 11 -11l-11 -6q0 6 -5 17zM1410 282h11l-5 -11v-11l5 -12l-16 -11h-6v6
q11 14 11 17v5h-5v-11h-17v6h11v5h-11v6q22 0 22 11zM70 276v-5q0 -11 -11 -11h-5v11q6 0 16 5zM82 276h11v-16h-6q0 5 -5 16zM276 271q0 -17 -17 -17h-5v-6h22q0 6 6 6q0 -6 5 -6q-5 10 -5 23h-6zM543 271l-6 -11l12 -6v6q-6 0 -6 5q6 0 6 6h-6zM921 271l-6 -11l11 -6v6
q-5 0 -5 5q5 0 5 6h-5zM1171 276h6q11 -1 11 -11l-11 -5q0 5 -6 16zM1299 276v-5q0 -11 -11 -11v5q2 11 11 11zM899 265l-6 -11v-6q2 -11 11 -11h6q0 6 5 17h-16l5 11h-5zM1193 271h17q0 -11 -11 -11zM1216 271h5v-17h-17v6q12 0 12 11zM1238 271h5q0 -11 11 -11v-6h-16v17z
M1271 271h11l-5 -11h11v-6h-17v17zM1310 271h6q0 -11 11 -11v-6h-17v17zM1343 271h28v-6h-28v6zM371 254v-6q6 0 16 -5v17q-10 -6 -16 -6zM476 260v-6q6 0 6 -6q-6 0 -6 -5q6 0 6 -6l-17 -11q0 6 -5 6v-6q5 0 5 -5q-11 -2 -11 -11v-12h6v17h5v-11h6q0 11 11 11v6h-11l16 22
q-5 0 -5 5h16v6q-12 0 -22 6zM582 260l-6 -12q6 0 6 -5h-6q6 -9 6 -28h5q12 0 12 11v6h-6v-11h-6q0 12 -5 22q5 0 5 5q-5 0 -5 6q5 0 5 6h-5zM626 260v-23h6v23h-6zM749 254v-6h16l6 12q-10 -6 -22 -6zM782 254v-6h22l6 12q-9 -6 -28 -6zM821 254v-6h17l5 12q-10 -6 -22 -6z
M849 260v-6q5 0 5 -6q-5 0 -5 -5h5q0 5 6 5v-11h5v11h6v-11h5v17q-18 0 -27 6zM882 260q0 -25 -6 -34h6q0 6 6 6q0 -6 5 -6q-5 9 -5 34h-6zM932 254v-6q11 0 11 -11h6v11h5v-11h6v11q-6 0 -6 6q6 0 6 6q-9 -6 -28 -6zM999 260l-6 -12q6 0 6 -5h-6q6 -11 6 -17h5q0 6 6 17
q-6 0 -6 5q6 0 6 6zM1071 260v-6q6 0 6 -6l-17 -11q0 6 -6 6q6 -10 6 -22h5v16h6v-11h6q0 6 5 17q-5 0 -5 5q5 0 5 6zM1115 260v-17l-11 5q0 -5 -5 -5v11h-11q0 -17 16 -17l-5 -11h5q0 6 6 6q0 -6 5 -6q0 6 6 6q0 -6 6 -6q-6 11 -6 17v5h6v-11h5q0 6 6 17q-13 0 -23 6z
M65 260h22v-6h-22v6zM221 254v-11l11 5v-11h5v17h-16zM448 254q6 -11 6 -17h6v17h-12zM637 254v-17h6q0 6 6 17h-12zM1332 260q11 -2 11 -12l-11 -5v17zM1343 260h28v-23l-5 -11q5 0 5 -5l-11 -6l-5 11q5 0 5 6h-5q0 -6 -6 -6q-6 11 -6 17v5h6v-11h6v11h5v-11h6v17h-23v6z
M360 248q0 -11 -12 -11q0 6 -5 6q0 -6 -6 -6q0 6 -5 6q5 -10 5 -22h6v16h5v-11h6v11l11 -5v5q-5 0 -5 6q5 0 5 5h-5zM915 237l17 -11q-6 10 -6 22q-11 -1 -11 -11zM965 248v-5q6 0 6 -6q-11 -1 -11 -11h5l12 17zM32 248h16v-11q-11 6 -16 6v5zM70 248h23v-5q-13 0 -23 -6v11
zM109 248h17l-6 -11q6 0 6 -5q-22 0 -22 -11h-6v16h17zM259 243v-6q6 0 6 -5h-11v-6q6 0 17 -5v16h5v-22h6l11 6q0 -6 5 -6l-5 11v6l11 -6v6l-17 11l-11 -6q0 6 -5 6q0 -6 -6 -6q0 6 -6 6zM321 243l-12 -28h6v6l11 -6h6v6h-11v11l5 11h-5zM393 243q0 -6 -6 -17h6q0 6 5 6
q0 -6 6 -6q-6 11 -6 17h-5zM554 243q6 -11 6 -17h5v11zM738 243q-6 -10 -6 -22l-17 11v-6l11 -5l-5 -11v-6h5l12 33h5v-11h6q0 6 5 17h-5q0 -6 -6 -6q0 6 -5 6zM810 243l-11 -28h16l-5 11v6l5 11h-5zM832 243q6 -11 6 -17h5v11zM1227 248h27v-5q-12 0 -22 -6zM1271 248h6
q0 -5 5 -16h-11v16zM1310 248h17v-5q-11 0 -11 -22h-6v27zM615 237l-5 -11h5q0 6 6 6q0 -6 5 -6v6zM699 237l-6 -11h6q0 6 5 6q0 -6 6 -6v6zM371 232v-11q-6 0 -6 5q-11 -5 -17 -5v-6h12l-6 -11h11v11h6v-17h-23v-16h17v5h-11v6h17q0 -6 5 -6v6h-5l5 11v6l-5 11q11 0 11 11
h-11zM498 232v-11l12 -6h5q11 0 11 11v6h-5v-11h-17v11h-6zM1082 232q0 -11 -11 -11v-6h11l6 11v6h-6zM1204 237h17v-16h-5q0 11 -12 11v5zM1249 237h5q0 -18 6 -27h-6l-11 5q6 10 6 22zM1421 237h17v-5h-11q2 -11 11 -11q-6 -11 -6 -17h-5q0 4 -6 33zM132 232l5 -11
q-11 0 -11 -11h-6v16zM1177 232l11 -6q0 6 5 6v-11h-16v11zM1199 232l17 -11q-6 -11 -6 -17h-6zM1288 232q11 -6 16 -6v-5h-16v11zM1388 232q2 -11 11 -11q-6 -10 -6 -23h-5q0 12 -11 12v5h11v6h-11q1 11 11 11zM1399 232q11 -6 17 -6v-5h-17v11zM393 221v-17h5q0 11 12 11
v6h-17zM615 221v-6h11l-5 -11h11v6q0 11 -11 11h-6zM687 221v-6q12 0 12 -11h5v17h-17zM849 221v-6q11 0 11 -11h5v11l-11 6h-5zM871 210v-6q2 -11 11 -11h17v5h-23v17h6v-11h6q0 11 11 11v6h-17q-11 -2 -11 -11zM921 221q0 -6 -6 -17h11q0 6 6 17h-11zM960 221l-6 -11v-6
h11l-5 11h11v6h-11zM1332 226h6v-5h-11v-6h11q0 -11 -11 -11l-11 17q10 5 16 5zM87 221l6 -11q-13 0 -23 -6v11q6 0 17 6zM637 215q0 -17 -16 -17h-6v-5h22v-6h-22v-5q22 0 22 -11v-6h6v17q-6 0 -6 5q6 0 6 6h-6l6 11v11h-6zM899 204l11 -6v17q-11 -2 -11 -11zM977 215
l-6 -11l11 -6v6q-5 0 -5 6q5 0 5 5h-5zM165 215h11l-5 -11h11v-6h-17v17zM332 210v-6l11 -6l5 12h-5q0 -6 -6 -6q0 6 -5 6zM515 210v-6l11 -6l6 12h-6q0 -6 -5 -6q0 6 -6 6zM710 210q0 -12 -17 -12v-5h17l5 11v6h-5zM749 210q5 -10 5 -23h6q0 13 5 23h-5q0 -6 -6 -6
q0 6 -5 6zM821 210v-6l11 -6l6 12h-6q0 -6 -6 -6q0 6 -5 6zM1027 210l-6 -12q11 6 17 6v6h-11zM1227 215h16q0 -11 -11 -11zM1293 215h23l-6 -11q-11 6 -17 6v5zM1343 215h6v-17h-17v6q11 0 11 11zM1399 215h22v-5q-12 0 -22 -6v11zM382 204v-6l11 -5h5q12 0 12 11l-12 -6
h-5zM37 204h6q0 -13 5 -22l-11 -6v28zM76 204h6l5 -33l-17 11q6 9 6 22zM109 204h6q0 -13 5 -22q-10 -6 -16 -6h-11v6q16 0 16 16v6zM259 204h6q0 -17 6 -39l-12 6q0 -6 -5 -6v6l5 11h-5q5 9 5 22zM315 198v-16h17v5h-11v6h11v5h-17zM421 198v-5h22v5h-22zM498 198v-16h17v5
h-11v6h11v5h-17zM732 198v-16q6 0 17 -6v6q-6 0 -6 5q6 0 6 6h-6q0 -6 -5 -6v11h-6zM765 198v-16h17v5h-11v6h11v5h-17zM804 198v-16h17v16h-17zM838 198v-22q10 6 16 6v5h-11v6h11v5h-16zM988 198v-16h16v16h-16zM1249 204h22v-6q-17 0 -17 -11h-5v17zM237 198l6 -11
l-11 -5l-6 11zM1199 198h17q-6 -10 -6 -16h-11l5 11q-5 0 -5 5zM1288 198q11 -5 16 -5v-6q-5 0 -16 -5v16zM1321 198h6q0 -5 5 -16h-11v16zM154 193h22v-6h-22v6zM193 193h28v-6h-28v6zM560 182q-6 -11 -6 -17h-5l-12 6q0 -6 -5 -6q0 6 -6 6v-6q11 -2 11 -11q-5 0 -5 -6h5
q0 6 6 6v-22q12 0 22 -6q0 9 34 28v6h-6v-12h-6q0 23 -11 23l6 -11v-12q-6 0 -17 -5v17l6 11h-6q0 -6 -5 -6v6l5 11h-5zM676 182q0 -13 -5 -22q-17 0 -17 16h-5v-5q5 -11 5 -17h11q8 0 17 17v11h-6zM165 182h17v-6q-11 0 -11 -11h-6v17zM215 182h6v-22h-6v22zM237 182h17v-6
q-11 0 -11 -11h-6v17zM348 165q0 6 -5 6q4 -34 33 -34v6h-5l5 11v6h-5v-12h-17v17h11v11zM387 182h17v-17h-6v11h-5v-11h-6v17zM426 176q0 -6 -5 -16l11 -6h11q0 6 5 17v5h-5v-11h-6v11h-11zM876 182h12q11 -2 11 -11v-6h-11v11h-6v-11h-6v17zM1099 182h16v-11l-11 5
q0 -5 -5 -5v11zM1221 182h11q11 -2 11 -11l-11 -6zM1260 182h6q11 -2 11 -11q0 -11 -11 -11h-6l6 11zM1304 182q12 -2 12 -11l-12 -6v17zM1338 182h5q0 -8 -16 -17v6q1 11 11 11zM32 176h5l6 -22v-11h-6l-5 28v5zM321 171v-6l11 -5l5 11h-5q0 -6 -6 -6q0 6 -5 6zM482 171
q0 -11 -17 -11v-6h11l11 17h-5zM504 171q6 -11 6 -17v-6h-6v12h-6v-17h28l-5 28l-11 -6q0 6 -6 6zM159 165h6v-17h-11q5 11 5 17zM232 165h5q0 -6 6 -17l-11 -5v22zM259 165h6v-22h-6v22zM271 165h5v-22h-5v22zM560 165v-22q-11 0 -11 11q1 11 11 11zM754 165v-17h6v17h5
q0 -22 11 -22v-6h-16q0 6 -6 6l-5 -11l11 -6q-6 -10 -6 -22l-11 5l6 12v5h-6v-11h-5q0 11 -12 11v6h17v5h-17v6h23v5l-6 12zM899 165h5q11 -2 11 -11v-17q-10 6 -16 6v5h11zM932 165h6q0 -6 5 -17l-11 -5v22zM1043 165q11 -5 17 -5l-6 -12h6q-6 -10 -6 -16h-5q0 16 -17 16
h-5v6q16 0 16 11zM1065 165h6v-11l11 6v-12h-17v17zM1249 165h5v-22h-5v22zM109 160h6q0 -6 5 -17h-11v17zM132 160l5 -12h-17q2 12 12 12zM315 160q0 -17 17 -17v-6h-17q-11 6 -17 6q0 -6 -5 -6v11q8 0 22 12zM1110 160q0 -6 5 -6q0 6 6 6l6 -12h-28q2 12 11 12zM1288 160
h5v-17h-16v5q11 0 11 12zM1388 160l5 -12h-27v6q12 0 22 6zM838 143h22v-6h-17v-5h17v-6h-11v-5q22 -3 22 -17q-11 0 -11 -11h-6q0 11 -11 11v5h11v6q-11 0 -11 11h-5v-22h-17v17h5v-12h6v12q-6 0 -6 5q12 0 12 17zM115 137h11q0 -16 11 -16v-6h-17q0 6 -5 6v-6q5 0 5 -6
q-10 -5 -16 -5h-6v5h11v6l-5 11l11 6q0 -6 5 -6v6q-5 0 -5 5zM154 137h5q0 -12 6 -22h-11v22zM193 137h5v-16h-11q6 10 6 16zM943 137v-5q0 -11 -11 -11l-6 11q6 0 17 5zM1388 137h5q0 -6 6 -16l-11 -6v22zM82 132q0 -6 5 -6l-5 -11v-6h11v-5h-17q0 17 -11 17v5q6 0 17 6z
M259 132h6v-28h-6v28zM582 126q0 -18 -6 -28l11 -5v5q-5 0 -5 6q11 5 17 5v6q0 11 -12 11h-5zM760 132h28q0 -6 -6 -6q6 -11 6 -17h11v12h5v-17h-33v5h11v6h-11l5 11h-16v6zM960 132h17q0 -6 5 -6q0 6 6 6q0 -6 5 -6l-5 -11v-6h11l-6 -11q6 0 6 -5l-11 -6l-11 28q5 0 5 6h-5
q0 -6 -6 -6q0 11 -11 11v6zM1021 132q0 -13 6 -23l-12 -5h-11v17h6v-12h5v12q-5 0 -5 5zM1027 132h22v-6h-17l6 -11h-11v17zM1065 132h12q-6 -11 -6 -17h-6v17zM1204 132q12 -2 12 -11l-12 -6v17zM1254 132h23v-6q-23 0 -23 -11v-11h-5q0 28 5 28zM560 121q0 -13 -6 -23h6
q0 6 5 6q0 -6 6 -6q-6 10 -6 23h-5zM515 121h6q0 -23 11 -23q0 6 5 6l12 -17q-11 -5 -17 -5h-6v5h11v6h-11q0 -6 -5 -6l-6 11v23zM726 121h6q0 -12 11 -12q0 -7 -17 -16q0 11 -11 11v5q11 0 11 12zM876 121h23v-12q-10 6 -23 6v6zM915 121q0 -12 6 -12q-6 -10 -6 -16h-5
q0 11 -11 11q0 8 16 17zM960 121h5v-6h-11v-6h11v-5q-11 0 -11 -11h-5q0 12 -6 22q11 6 17 6zM1088 121q11 -2 11 -12l-11 -5h-6q6 11 6 17zM1104 121h23v-6h-23v6zM1216 121h5v-17h-17v5q12 0 12 12zM1271 121h6q0 -6 5 -17l-11 -6v23zM48 109h22v-5h-22v5zM132 109h16v-16
h-5v11h-6v-11h-5v16zM232 109h22v-5q-11 0 -11 -11h-6q0 6 -5 16zM460 109h16v-5q-11 0 -11 -11h-5v16zM626 109h11q0 -22 12 -22v-5h-17q0 5 -6 5l-5 -11q-10 6 -22 6v5q11 0 11 11h5v-11h6v11q-6 0 -6 6zM676 104q0 -6 -5 -17h22v6q-11 0 -11 11h-6zM704 109h6
q0 -22 11 -22v-5h-17v27zM888 109l11 -5l-6 -11l6 -11h-11v27zM932 109h11v-16h-11l6 11q-6 0 -6 5zM1332 109h28v-5q-11 0 -11 -6q-11 6 -17 6v5zM70 104q11 -6 17 -6v-11q-11 6 -17 6v11zM354 104l6 -11h-23v5q6 0 17 6zM743 104q10 -6 22 -6v-5h-22v-6h11v-5h-11v-17h22
v-6q-12 0 -22 -5q0 11 -11 11v-6q13 -11 22 -11v-16h-5v11h-6v-11h-5q0 39 -34 39v5h28q0 -5 6 -5v11l-6 11q11 0 11 11zM843 104l11 -17q-5 0 -5 -5q5 0 5 -6h-5q-11 6 -17 6v5h11v6h-11q0 -6 -6 -6l-5 11q12 0 22 6zM1232 104h6v-11q-6 -11 -6 -17h-5q0 6 -6 17
q11 0 11 11zM120 98h6v-16h-17v5q11 0 11 11zM154 98h5v-16h-16v5q11 0 11 11zM215 98h6q0 -6 5 -16h-11v16zM771 98q13 -11 22 -11v-5q-19 -6 -22 -6v22zM782 98h22l-5 -11q-11 6 -17 6v5zM965 98v-16q-11 0 -11 11zM971 98h6q0 -11 11 -11v-5h-17v16zM1004 98h17
q0 -11 -11 -11zM1027 98h5v-22q-11 6 -17 6v5q12 0 12 11zM1104 93v-11h-16v5q6 0 16 6zM1338 93h5q0 -11 -11 -11h-5q1 11 11 11zM1377 93q9 -6 28 -6v-5h-28v11zM932 87h22v-5h-22v5zM137 76v-17q-11 0 -11 12zM237 76q11 -2 11 -11l-11 -6v17zM371 76q0 -11 11 -11v-6
q-6 0 -17 -5q0 6 -5 17zM471 76l11 -5q-6 -11 -6 -17h-5v22zM626 76v-22h-5q0 6 -6 17zM426 71h17v-17h-6q0 11 -11 11v6zM765 71h17q0 -12 -11 -12zM888 71h11q-6 -11 -6 -17q6 -11 6 -17q-11 0 -11 11v23zM960 71h11l-6 -12q6 0 6 -5h-11v17zM410 65h16v-11q-11 5 -16 5v6
zM571 65h11q-6 -11 -6 -17h-5v17zM632 65h5v-22h-5v22zM704 65h6q0 -17 11 -17q0 -11 -11 -11q-6 11 -6 17v11zM782 65h22v-6h-22v6zM971 65h28q-6 -11 -6 -17h-5q0 11 -17 11v6zM1004 65h28v-6q-17 0 -17 -11h-5q0 6 -6 17zM1366 65h5v-22h-5v22zM487 54v-6q0 -11 -11 -11
l-5 11q6 0 16 6zM610 54q10 -6 16 -6v-5q-18 0 -27 -6v11q11 0 11 6zM782 54l6 -11v-6q-11 6 -17 6q2 11 11 11zM971 54q11 -6 17 -6v-5q-11 0 -11 -11h-6q0 11 -11 11v5q11 0 11 6zM1032 54v-22h-5q0 11 -12 11v5q6 0 17 6zM1377 54q11 -6 16 -6v-5h-16v11zM865 48h17
q0 -11 -11 -11zM782 37v-5q0 -11 -11 -11l-6 11q6 0 17 5zM471 32h11q-6 -11 -6 -17h-11q6 11 6 17zM960 32h11q-6 -11 -6 -17h-5v17z" />
    <glyph glyph-name="approxequal" unicode="&#x2248;" horiz-adv-x="806" 
d="M276 926h21q37 0 120 -47q10 0 93 -54q42 -16 73 -16t96 72q52 -15 52 -57q0 -46 -108 -107q-11 -10 -53 -15l-6 3h-18q-63 1 -135.5 57.5t-110.5 56.5h-18q-41 20 -96 -43q-20 -9 -27 -9q-66 13 -66 48q10 57 127 99q35 12 56 12zM276 736h21q37 0 120 -47q10 0 93 -54
q42 -16 73 -16t96 72q52 -15 52 -57q0 -46 -108 -107q-11 -10 -53 -15l-6 3h-18q-63 1 -135.5 57.5t-110.5 56.5h-18q-41 20 -86 -43q-20 -9 -27 -9q-66 13 -66 48q10 57 117 99q35 12 56 12z" />
    <glyph glyph-name="uniF001" unicode="&#xf001;" horiz-adv-x="1073" 
 />
    <glyph glyph-name="uniF001" unicode="&#xfb01;" horiz-adv-x="1073" 
 />
    <glyph glyph-name="uniF002" unicode="&#xf002;" horiz-adv-x="1081" 
 />
    <glyph glyph-name="uniF002" unicode="&#xfb02;" horiz-adv-x="1081" 
 />
  </font>
</defs>
</svg>
